%TF.GenerationSoftware,KiCad,Pcbnew,9.0.2*%
%TF.CreationDate,2025-10-13T17:24:41+02:00*%
%TF.ProjectId,Projet_Robot,50726f6a-6574-45f5-926f-626f742e6b69,rev?*%
%TF.SameCoordinates,Original*%
%TF.FileFunction,Copper,L2,Inr*%
%TF.FilePolarity,Positive*%
%FSLAX46Y46*%
G04 Gerber Fmt 4.6, Leading zero omitted, Abs format (unit mm)*
G04 Created by KiCad (PCBNEW 9.0.2) date 2025-10-13 17:24:41*
%MOMM*%
%LPD*%
G01*
G04 APERTURE LIST*
G04 Aperture macros list*
%AMRoundRect*
0 Rectangle with rounded corners*
0 $1 Rounding radius*
0 $2 $3 $4 $5 $6 $7 $8 $9 X,Y pos of 4 corners*
0 Add a 4 corners polygon primitive as box body*
4,1,4,$2,$3,$4,$5,$6,$7,$8,$9,$2,$3,0*
0 Add four circle primitives for the rounded corners*
1,1,$1+$1,$2,$3*
1,1,$1+$1,$4,$5*
1,1,$1+$1,$6,$7*
1,1,$1+$1,$8,$9*
0 Add four rect primitives between the rounded corners*
20,1,$1+$1,$2,$3,$4,$5,0*
20,1,$1+$1,$4,$5,$6,$7,0*
20,1,$1+$1,$6,$7,$8,$9,0*
20,1,$1+$1,$8,$9,$2,$3,0*%
G04 Aperture macros list end*
%TA.AperFunction,ComponentPad*%
%ADD10O,1.950000X1.700000*%
%TD*%
%TA.AperFunction,ComponentPad*%
%ADD11RoundRect,0.250000X0.725000X-0.600000X0.725000X0.600000X-0.725000X0.600000X-0.725000X-0.600000X0*%
%TD*%
%TA.AperFunction,ComponentPad*%
%ADD12R,1.700000X1.700000*%
%TD*%
%TA.AperFunction,ComponentPad*%
%ADD13C,1.700000*%
%TD*%
%TA.AperFunction,ComponentPad*%
%ADD14C,0.800000*%
%TD*%
%TA.AperFunction,ComponentPad*%
%ADD15C,6.400000*%
%TD*%
%TA.AperFunction,ComponentPad*%
%ADD16C,2.480000*%
%TD*%
%TA.AperFunction,ComponentPad*%
%ADD17RoundRect,0.250000X-0.600000X-0.725000X0.600000X-0.725000X0.600000X0.725000X-0.600000X0.725000X0*%
%TD*%
%TA.AperFunction,ComponentPad*%
%ADD18O,1.700000X1.950000*%
%TD*%
%TA.AperFunction,ComponentPad*%
%ADD19RoundRect,0.250000X-0.600000X-0.750000X0.600000X-0.750000X0.600000X0.750000X-0.600000X0.750000X0*%
%TD*%
%TA.AperFunction,ComponentPad*%
%ADD20O,1.700000X2.000000*%
%TD*%
%TA.AperFunction,ViaPad*%
%ADD21C,0.450000*%
%TD*%
G04 APERTURE END LIST*
D10*
%TO.N,/Moteur2/Motor1+*%
%TO.C,Motor2*%
X184810000Y-78730000D03*
%TO.N,+3.3V*%
X184810000Y-81230000D03*
%TO.N,/Moteur2/ENC1_PH1*%
X184810000Y-83730000D03*
%TO.N,/Moteur2/ENC1_PH2*%
X184810000Y-86230000D03*
%TO.N,GND*%
X184810000Y-88730000D03*
D11*
%TO.N,/Moteur2/Motor1-*%
X184810000Y-91230000D03*
%TD*%
D12*
%TO.N,+3.3V*%
%TO.C,TOF3*%
X140410000Y-90100000D03*
D13*
%TO.N,/Capteurs/I2C1_SCL*%
X140410000Y-87560000D03*
%TO.N,/Capteurs/I2C1_SDA*%
X140410000Y-85020000D03*
%TO.N,/Capteurs/tof3_GPIO*%
X140410000Y-82480000D03*
%TO.N,GND*%
X140410000Y-79940000D03*
%TO.N,/Capteurs/TOF3_XSHUT*%
X140410000Y-77400000D03*
%TD*%
D12*
%TO.N,+3.3V*%
%TO.C,TOF1*%
X136020000Y-90000000D03*
D13*
%TO.N,/Capteurs/I2C1_SCL*%
X136020000Y-87460000D03*
%TO.N,/Capteurs/I2C1_SDA*%
X136020000Y-84920000D03*
%TO.N,/Capteurs/tof1_GPIO*%
X136020000Y-82380000D03*
%TO.N,GND*%
X136020000Y-79840000D03*
%TO.N,/Capteurs/TOF1_XSHUT*%
X136020000Y-77300000D03*
%TD*%
D14*
%TO.N,GND*%
%TO.C,H1*%
X134600000Y-71000000D03*
X135302944Y-69302944D03*
X135302944Y-72697056D03*
X137000000Y-68600000D03*
D15*
X137000000Y-71000000D03*
D14*
X137000000Y-73400000D03*
X138697056Y-69302944D03*
X138697056Y-72697056D03*
X139400000Y-71000000D03*
%TD*%
D16*
%TO.N,unconnected-(S1-Pad1)*%
%TO.C,S1*%
X176230000Y-122170000D03*
%TO.N,+VBAT*%
X176230000Y-117470000D03*
%TO.N,Net-(J1-Pin_2)*%
X176230000Y-112770000D03*
%TD*%
D12*
%TO.N,+3.3V*%
%TO.C,TOF4*%
X140010000Y-111400000D03*
D13*
%TO.N,/Capteurs/I2C1_SCL*%
X140010000Y-108860000D03*
%TO.N,/Capteurs/I2C1_SDA*%
X140010000Y-106320000D03*
%TO.N,/Capteurs/tof4_GPIO*%
X140010000Y-103780000D03*
%TO.N,GND*%
X140010000Y-101240000D03*
%TO.N,/Capteurs/TOF4_XSHUT*%
X140010000Y-98700000D03*
%TD*%
D12*
%TO.N,+3.3V*%
%TO.C,TOF2*%
X135690000Y-111470000D03*
D13*
%TO.N,/Capteurs/I2C1_SCL*%
X135690000Y-108930000D03*
%TO.N,/Capteurs/I2C1_SDA*%
X135690000Y-106390000D03*
%TO.N,/Capteurs/tof2_GPIO*%
X135690000Y-103850000D03*
%TO.N,GND*%
X135690000Y-101310000D03*
%TO.N,/Capteurs/TOF2_XSHUT*%
X135690000Y-98770000D03*
%TD*%
D14*
%TO.N,GND*%
%TO.C,H3*%
X134600000Y-120000000D03*
X135302944Y-118302944D03*
X135302944Y-121697056D03*
X137000000Y-117600000D03*
D15*
X137000000Y-120000000D03*
D14*
X137000000Y-122400000D03*
X138697056Y-118302944D03*
X138697056Y-121697056D03*
X139400000Y-120000000D03*
%TD*%
%TO.N,GND*%
%TO.C,H2*%
X180600000Y-71000000D03*
X181302944Y-69302944D03*
X181302944Y-72697056D03*
X183000000Y-68600000D03*
D15*
X183000000Y-71000000D03*
D14*
X183000000Y-73400000D03*
X184697056Y-69302944D03*
X184697056Y-72697056D03*
X185400000Y-71000000D03*
%TD*%
%TO.N,GND*%
%TO.C,H4*%
X180600000Y-120000000D03*
X181302944Y-118302944D03*
X181302944Y-121697056D03*
X183000000Y-117600000D03*
D15*
X183000000Y-120000000D03*
D14*
X183000000Y-122400000D03*
X184697056Y-118302944D03*
X184697056Y-121697056D03*
X185400000Y-120000000D03*
%TD*%
D11*
%TO.N,/Moteur1/Motor1-*%
%TO.C,Motor1*%
X184670000Y-110500000D03*
D10*
%TO.N,GND*%
X184670000Y-108000000D03*
%TO.N,/Moteur1/ENC1_PH2*%
X184670000Y-105500000D03*
%TO.N,/Moteur1/ENC1_PH1*%
X184670000Y-103000000D03*
%TO.N,+3.3V*%
X184670000Y-100500000D03*
%TO.N,/Moteur1/Motor1+*%
X184670000Y-98000000D03*
%TD*%
D17*
%TO.N,+5V*%
%TO.C,Lidar1*%
X155330000Y-69930000D03*
D18*
%TO.N,/Capteurs/LIDAR_USART2_RX*%
X157830000Y-69930000D03*
%TO.N,unconnected-(Lidar1-Pin_3-Pad3)*%
X160330000Y-69930000D03*
%TO.N,/Capteurs/M_CTR*%
X162830000Y-69930000D03*
%TO.N,GND*%
X165330000Y-69930000D03*
%TD*%
D19*
%TO.N,GND*%
%TO.C,J1*%
X166930000Y-121200000D03*
D20*
%TO.N,Net-(J1-Pin_2)*%
X169430000Y-121200000D03*
%TD*%
D12*
%TO.N,/Capteurs/Bluetooth_En*%
%TO.C,Bluetooth1*%
X155760000Y-121900000D03*
D13*
%TO.N,+5V*%
X153220000Y-121900000D03*
%TO.N,GND*%
X150680000Y-121900000D03*
%TO.N,/Capteurs/Bluetooth_USART3_RX*%
X148140000Y-121900000D03*
%TO.N,/Capteurs/Bluetooth_USART3_TX*%
X145600000Y-121900000D03*
%TO.N,unconnected-(Bluetooth1-Pin_6-Pad6)*%
X143060000Y-121900000D03*
%TD*%
D21*
%TO.N,GND*%
X151667268Y-70007732D03*
X178750000Y-83380000D03*
X164775000Y-85350000D03*
X180150000Y-85380000D03*
X162549000Y-94400000D03*
X177000000Y-103600000D03*
X177000000Y-101600000D03*
X180150000Y-83380000D03*
X158300000Y-96700000D03*
X150975000Y-88425000D03*
X178460000Y-96760000D03*
X179900000Y-103600000D03*
X180150000Y-84380000D03*
X149500000Y-92600000D03*
X179900000Y-102600000D03*
X167025000Y-68975000D03*
X177250000Y-85380000D03*
X153450000Y-74757718D03*
X160600000Y-100000000D03*
X147000000Y-92800000D03*
X151700000Y-90700000D03*
X142425000Y-80200000D03*
X157400000Y-74290000D03*
X156175707Y-82425706D03*
X181630000Y-105480000D03*
X177270000Y-79370000D03*
X177250000Y-83380000D03*
X181700000Y-107950000D03*
X178650000Y-85280000D03*
X153410000Y-101900000D03*
X148700000Y-94000000D03*
X177250000Y-84380000D03*
X178452500Y-102620000D03*
X181810000Y-87170000D03*
X178702500Y-84400000D03*
X179900000Y-101600000D03*
X150660000Y-82260000D03*
X160025000Y-83000000D03*
X157700000Y-95000000D03*
X143375000Y-89150000D03*
X178400000Y-103500000D03*
X136400000Y-94850000D03*
X177000000Y-102600000D03*
X178500000Y-101600000D03*
X157891268Y-80158732D03*
X164200000Y-113200000D03*
%TD*%
%TA.AperFunction,Conductor*%
%TO.N,GND*%
G36*
X143675966Y-67590185D02*
G01*
X143721721Y-67642989D01*
X143731665Y-67712147D01*
X143728704Y-67726580D01*
X143724500Y-67742273D01*
X143724500Y-67847727D01*
X143751793Y-67949587D01*
X143804520Y-68040913D01*
X143879087Y-68115480D01*
X143970413Y-68168207D01*
X144072273Y-68195500D01*
X144072275Y-68195500D01*
X144177725Y-68195500D01*
X144177727Y-68195500D01*
X144279587Y-68168207D01*
X144370913Y-68115480D01*
X144445480Y-68040913D01*
X144498207Y-67949587D01*
X144525500Y-67847727D01*
X144525500Y-67742273D01*
X144521298Y-67726591D01*
X144522961Y-67656744D01*
X144562123Y-67598882D01*
X144626351Y-67571377D01*
X144641073Y-67570500D01*
X152233927Y-67570500D01*
X152300966Y-67590185D01*
X152346721Y-67642989D01*
X152356665Y-67712147D01*
X152353704Y-67726580D01*
X152349500Y-67742273D01*
X152349500Y-67847727D01*
X152376793Y-67949587D01*
X152429520Y-68040913D01*
X152504087Y-68115480D01*
X152595413Y-68168207D01*
X152697273Y-68195500D01*
X152697275Y-68195500D01*
X152802725Y-68195500D01*
X152802727Y-68195500D01*
X152904587Y-68168207D01*
X152995913Y-68115480D01*
X153070480Y-68040913D01*
X153123207Y-67949587D01*
X153150500Y-67847727D01*
X153150500Y-67742273D01*
X153146298Y-67726591D01*
X153147961Y-67656744D01*
X153187123Y-67598882D01*
X153251351Y-67571377D01*
X153266073Y-67570500D01*
X183196499Y-67570500D01*
X183202579Y-67570649D01*
X183224113Y-67571706D01*
X183511033Y-67585793D01*
X183523122Y-67586983D01*
X183850788Y-67635578D01*
X183862709Y-67637948D01*
X184184056Y-67718432D01*
X184195695Y-67721963D01*
X184507573Y-67833547D01*
X184518811Y-67838202D01*
X184656231Y-67903193D01*
X184818276Y-67979831D01*
X184828991Y-67985558D01*
X185113124Y-68155854D01*
X185123226Y-68162603D01*
X185345785Y-68327659D01*
X185389300Y-68359931D01*
X185398705Y-68367649D01*
X185521426Y-68478875D01*
X185644146Y-68590099D01*
X185652751Y-68598704D01*
X185697695Y-68648291D01*
X185837197Y-68802206D01*
X185875205Y-68844140D01*
X185882925Y-68853547D01*
X186080247Y-69119602D01*
X186087008Y-69129720D01*
X186257302Y-69413836D01*
X186263039Y-69424568D01*
X186404667Y-69724014D01*
X186409324Y-69735257D01*
X186520918Y-70047145D01*
X186524450Y-70058790D01*
X186604933Y-70380105D01*
X186607307Y-70392040D01*
X186655908Y-70719698D01*
X186657101Y-70731809D01*
X186673419Y-71064060D01*
X186673568Y-71070143D01*
X186673568Y-71104354D01*
X186564283Y-119960409D01*
X186564117Y-119962909D01*
X186564117Y-120032334D01*
X186563968Y-120038407D01*
X186547268Y-120378992D01*
X186546080Y-120391080D01*
X186496586Y-120725378D01*
X186494221Y-120737292D01*
X186412255Y-121065153D01*
X186408735Y-121076778D01*
X186295091Y-121395029D01*
X186290451Y-121406255D01*
X186146208Y-121711874D01*
X186140492Y-121722591D01*
X185967042Y-122012630D01*
X185960304Y-122022737D01*
X185759317Y-122294403D01*
X185751624Y-122303802D01*
X185525008Y-122554517D01*
X185516431Y-122563118D01*
X185266390Y-122790443D01*
X185257014Y-122798164D01*
X184985911Y-122999951D01*
X184975823Y-123006717D01*
X184686300Y-123180997D01*
X184675600Y-123186744D01*
X184370403Y-123331868D01*
X184359191Y-123336541D01*
X184041256Y-123451110D01*
X184029641Y-123454663D01*
X183702031Y-123537574D01*
X183690124Y-123539974D01*
X183355966Y-123590437D01*
X183343881Y-123591660D01*
X183003650Y-123609329D01*
X182997111Y-123609496D01*
X177088034Y-123604351D01*
X177021012Y-123584608D01*
X176975303Y-123531764D01*
X176965420Y-123462597D01*
X176994500Y-123399067D01*
X177015251Y-123380036D01*
X177168423Y-123268752D01*
X177328752Y-123108423D01*
X177462026Y-122924986D01*
X177564963Y-122722960D01*
X177635030Y-122507318D01*
X177670500Y-122283370D01*
X177670500Y-122056630D01*
X177635030Y-121832682D01*
X177564963Y-121617040D01*
X177462026Y-121415014D01*
X177462024Y-121415011D01*
X177462023Y-121415009D01*
X177328757Y-121231583D01*
X177328753Y-121231578D01*
X177168421Y-121071246D01*
X177168416Y-121071242D01*
X176984990Y-120937976D01*
X176782962Y-120835038D01*
X176782961Y-120835037D01*
X176782960Y-120835037D01*
X176567318Y-120764970D01*
X176567316Y-120764969D01*
X176567315Y-120764969D01*
X176392567Y-120737292D01*
X176343370Y-120729500D01*
X176116630Y-120729500D01*
X176067433Y-120737292D01*
X175892685Y-120764969D01*
X175677037Y-120835038D01*
X175475009Y-120937976D01*
X175291583Y-121071242D01*
X175291578Y-121071246D01*
X175131246Y-121231578D01*
X175131242Y-121231583D01*
X174997976Y-121415009D01*
X174895038Y-121617037D01*
X174824969Y-121832685D01*
X174797920Y-122003466D01*
X174789500Y-122056630D01*
X174789500Y-122283370D01*
X174792736Y-122303802D01*
X174822529Y-122491910D01*
X174824970Y-122507318D01*
X174892767Y-122715975D01*
X174895038Y-122722962D01*
X174997976Y-122924990D01*
X175131242Y-123108416D01*
X175131246Y-123108421D01*
X175291578Y-123268753D01*
X175291583Y-123268757D01*
X175442681Y-123378536D01*
X175485347Y-123433866D01*
X175491326Y-123503479D01*
X175458721Y-123565274D01*
X175397882Y-123599631D01*
X175369688Y-123602854D01*
X137134355Y-123569564D01*
X137134352Y-123569564D01*
X137126104Y-123569556D01*
X137125892Y-123569500D01*
X137062951Y-123569500D01*
X137062940Y-123569497D01*
X137056994Y-123569351D01*
X136942356Y-123563719D01*
X136723071Y-123552947D01*
X136710960Y-123551754D01*
X136383304Y-123503151D01*
X136371369Y-123500777D01*
X136050055Y-123420292D01*
X136038411Y-123416759D01*
X135726540Y-123305170D01*
X135715301Y-123300515D01*
X135415844Y-123158883D01*
X135405121Y-123153150D01*
X135121011Y-122982862D01*
X135110893Y-122976102D01*
X134844829Y-122778775D01*
X134835423Y-122771055D01*
X134613212Y-122569655D01*
X134589986Y-122548604D01*
X134581395Y-122540013D01*
X134358944Y-122294576D01*
X134351224Y-122285170D01*
X134153897Y-122019106D01*
X134147137Y-122008988D01*
X134143829Y-122003469D01*
X134019795Y-121796530D01*
X142009500Y-121796530D01*
X142009500Y-122003469D01*
X142049868Y-122206412D01*
X142049870Y-122206420D01*
X142113539Y-122360131D01*
X142129059Y-122397598D01*
X142130998Y-122400500D01*
X142244024Y-122569657D01*
X142390342Y-122715975D01*
X142390345Y-122715977D01*
X142562402Y-122830941D01*
X142753580Y-122910130D01*
X142898052Y-122938867D01*
X142956530Y-122950499D01*
X142956534Y-122950500D01*
X142956535Y-122950500D01*
X143163466Y-122950500D01*
X143163467Y-122950499D01*
X143366420Y-122910130D01*
X143557598Y-122830941D01*
X143729655Y-122715977D01*
X143875977Y-122569655D01*
X143990941Y-122397598D01*
X144070130Y-122206420D01*
X144110500Y-122003465D01*
X144110500Y-121796535D01*
X144110499Y-121796530D01*
X144549500Y-121796530D01*
X144549500Y-122003469D01*
X144589868Y-122206412D01*
X144589870Y-122206420D01*
X144653539Y-122360131D01*
X144669059Y-122397598D01*
X144670998Y-122400500D01*
X144784024Y-122569657D01*
X144930342Y-122715975D01*
X144930345Y-122715977D01*
X145102402Y-122830941D01*
X145293580Y-122910130D01*
X145438052Y-122938867D01*
X145496530Y-122950499D01*
X145496534Y-122950500D01*
X145496535Y-122950500D01*
X145703466Y-122950500D01*
X145703467Y-122950499D01*
X145906420Y-122910130D01*
X146097598Y-122830941D01*
X146269655Y-122715977D01*
X146415977Y-122569655D01*
X146530941Y-122397598D01*
X146610130Y-122206420D01*
X146650500Y-122003465D01*
X146650500Y-121796535D01*
X146650499Y-121796530D01*
X147089500Y-121796530D01*
X147089500Y-122003469D01*
X147129868Y-122206412D01*
X147129870Y-122206420D01*
X147193539Y-122360131D01*
X147209059Y-122397598D01*
X147210998Y-122400500D01*
X147324024Y-122569657D01*
X147470342Y-122715975D01*
X147470345Y-122715977D01*
X147642402Y-122830941D01*
X147833580Y-122910130D01*
X147978052Y-122938867D01*
X148036530Y-122950499D01*
X148036534Y-122950500D01*
X148036535Y-122950500D01*
X148243466Y-122950500D01*
X148243467Y-122950499D01*
X148446420Y-122910130D01*
X148637598Y-122830941D01*
X148809655Y-122715977D01*
X148955977Y-122569655D01*
X149070941Y-122397598D01*
X149150130Y-122206420D01*
X149190500Y-122003465D01*
X149190500Y-121796535D01*
X149190499Y-121796530D01*
X152169500Y-121796530D01*
X152169500Y-122003469D01*
X152209868Y-122206412D01*
X152209870Y-122206420D01*
X152273539Y-122360131D01*
X152289059Y-122397598D01*
X152290998Y-122400500D01*
X152404024Y-122569657D01*
X152550342Y-122715975D01*
X152550345Y-122715977D01*
X152722402Y-122830941D01*
X152913580Y-122910130D01*
X153058052Y-122938867D01*
X153116530Y-122950499D01*
X153116534Y-122950500D01*
X153116535Y-122950500D01*
X153323466Y-122950500D01*
X153323467Y-122950499D01*
X153526420Y-122910130D01*
X153717598Y-122830941D01*
X153889655Y-122715977D01*
X154035977Y-122569655D01*
X154150941Y-122397598D01*
X154230130Y-122206420D01*
X154270500Y-122003465D01*
X154270500Y-121796535D01*
X154230130Y-121593580D01*
X154150941Y-121402402D01*
X154035977Y-121230345D01*
X154035975Y-121230342D01*
X153889657Y-121084024D01*
X153809173Y-121030247D01*
X154709500Y-121030247D01*
X154709500Y-122769752D01*
X154721131Y-122828229D01*
X154721132Y-122828230D01*
X154765447Y-122894552D01*
X154831769Y-122938867D01*
X154831770Y-122938868D01*
X154890247Y-122950499D01*
X154890250Y-122950500D01*
X154890252Y-122950500D01*
X156629750Y-122950500D01*
X156629751Y-122950499D01*
X156644568Y-122947552D01*
X156688229Y-122938868D01*
X156688229Y-122938867D01*
X156688231Y-122938867D01*
X156754552Y-122894552D01*
X156798867Y-122828231D01*
X156798867Y-122828229D01*
X156798868Y-122828229D01*
X156810499Y-122769752D01*
X156810500Y-122769750D01*
X156810500Y-121030252D01*
X156798867Y-120971769D01*
X156782003Y-120946530D01*
X168379500Y-120946530D01*
X168379500Y-121453469D01*
X168419868Y-121656412D01*
X168419870Y-121656420D01*
X168499058Y-121847596D01*
X168614024Y-122019657D01*
X168760342Y-122165975D01*
X168760345Y-122165977D01*
X168932402Y-122280941D01*
X169123580Y-122360130D01*
X169311936Y-122397596D01*
X169326530Y-122400499D01*
X169326534Y-122400500D01*
X169326535Y-122400500D01*
X169533466Y-122400500D01*
X169533467Y-122400499D01*
X169736420Y-122360130D01*
X169927598Y-122280941D01*
X170099655Y-122165977D01*
X170245977Y-122019655D01*
X170360941Y-121847598D01*
X170440130Y-121656420D01*
X170480500Y-121453465D01*
X170480500Y-120946535D01*
X170440130Y-120743580D01*
X170360941Y-120552402D01*
X170245977Y-120380345D01*
X170245975Y-120380342D01*
X170099657Y-120234024D01*
X170013626Y-120176541D01*
X169927598Y-120119059D01*
X169736420Y-120039870D01*
X169736412Y-120039868D01*
X169533469Y-119999500D01*
X169533465Y-119999500D01*
X169326535Y-119999500D01*
X169326530Y-119999500D01*
X169123587Y-120039868D01*
X169123579Y-120039870D01*
X168932403Y-120119058D01*
X168760342Y-120234024D01*
X168614024Y-120380342D01*
X168499058Y-120552403D01*
X168419870Y-120743579D01*
X168419868Y-120743587D01*
X168379500Y-120946530D01*
X156782003Y-120946530D01*
X156754552Y-120905447D01*
X156688230Y-120861132D01*
X156688229Y-120861131D01*
X156629752Y-120849500D01*
X156629748Y-120849500D01*
X154890252Y-120849500D01*
X154890247Y-120849500D01*
X154831770Y-120861131D01*
X154831769Y-120861132D01*
X154765447Y-120905447D01*
X154721132Y-120971769D01*
X154721131Y-120971770D01*
X154709500Y-121030247D01*
X153809173Y-121030247D01*
X153721655Y-120971770D01*
X153717598Y-120969059D01*
X153642557Y-120937976D01*
X153526420Y-120889870D01*
X153526412Y-120889868D01*
X153323469Y-120849500D01*
X153323465Y-120849500D01*
X153116535Y-120849500D01*
X153116530Y-120849500D01*
X152913587Y-120889868D01*
X152913579Y-120889870D01*
X152722403Y-120969058D01*
X152550342Y-121084024D01*
X152404024Y-121230342D01*
X152289058Y-121402403D01*
X152209870Y-121593579D01*
X152209868Y-121593587D01*
X152169500Y-121796530D01*
X149190499Y-121796530D01*
X149150130Y-121593580D01*
X149070941Y-121402402D01*
X148955977Y-121230345D01*
X148955975Y-121230342D01*
X148809657Y-121084024D01*
X148641655Y-120971770D01*
X148637598Y-120969059D01*
X148562557Y-120937976D01*
X148446420Y-120889870D01*
X148446412Y-120889868D01*
X148243469Y-120849500D01*
X148243465Y-120849500D01*
X148036535Y-120849500D01*
X148036530Y-120849500D01*
X147833587Y-120889868D01*
X147833579Y-120889870D01*
X147642403Y-120969058D01*
X147470342Y-121084024D01*
X147324024Y-121230342D01*
X147209058Y-121402403D01*
X147129870Y-121593579D01*
X147129868Y-121593587D01*
X147089500Y-121796530D01*
X146650499Y-121796530D01*
X146610130Y-121593580D01*
X146530941Y-121402402D01*
X146415977Y-121230345D01*
X146415975Y-121230342D01*
X146269657Y-121084024D01*
X146101655Y-120971770D01*
X146097598Y-120969059D01*
X146022557Y-120937976D01*
X145906420Y-120889870D01*
X145906412Y-120889868D01*
X145703469Y-120849500D01*
X145703465Y-120849500D01*
X145496535Y-120849500D01*
X145496530Y-120849500D01*
X145293587Y-120889868D01*
X145293579Y-120889870D01*
X145102403Y-120969058D01*
X144930342Y-121084024D01*
X144784024Y-121230342D01*
X144669058Y-121402403D01*
X144589870Y-121593579D01*
X144589868Y-121593587D01*
X144549500Y-121796530D01*
X144110499Y-121796530D01*
X144070130Y-121593580D01*
X143990941Y-121402402D01*
X143875977Y-121230345D01*
X143875975Y-121230342D01*
X143729657Y-121084024D01*
X143561655Y-120971770D01*
X143557598Y-120969059D01*
X143482557Y-120937976D01*
X143366420Y-120889870D01*
X143366412Y-120889868D01*
X143163469Y-120849500D01*
X143163465Y-120849500D01*
X142956535Y-120849500D01*
X142956530Y-120849500D01*
X142753587Y-120889868D01*
X142753579Y-120889870D01*
X142562403Y-120969058D01*
X142390342Y-121084024D01*
X142244024Y-121230342D01*
X142129058Y-121402403D01*
X142049870Y-121593579D01*
X142049868Y-121593587D01*
X142009500Y-121796530D01*
X134019795Y-121796530D01*
X133976844Y-121724871D01*
X133971120Y-121714163D01*
X133829479Y-121414688D01*
X133824829Y-121403459D01*
X133824451Y-121402403D01*
X133713240Y-121091588D01*
X133709707Y-121079944D01*
X133707529Y-121071248D01*
X133629219Y-120758617D01*
X133626848Y-120746694D01*
X133625453Y-120737292D01*
X133578245Y-120419037D01*
X133577052Y-120406927D01*
X133576273Y-120391080D01*
X133560649Y-120073032D01*
X133560500Y-120066948D01*
X133560500Y-118647273D01*
X165699500Y-118647273D01*
X165699500Y-118752727D01*
X165726793Y-118854587D01*
X165779520Y-118945913D01*
X165854087Y-119020480D01*
X165945413Y-119073207D01*
X166047273Y-119100500D01*
X166047275Y-119100500D01*
X166152725Y-119100500D01*
X166152727Y-119100500D01*
X166254587Y-119073207D01*
X166345913Y-119020480D01*
X166420480Y-118945913D01*
X166473207Y-118854587D01*
X166500500Y-118752727D01*
X166500500Y-118647273D01*
X166473207Y-118545413D01*
X166420480Y-118454087D01*
X166345913Y-118379520D01*
X166254587Y-118326793D01*
X166152727Y-118299500D01*
X166047273Y-118299500D01*
X165945413Y-118326793D01*
X165945410Y-118326794D01*
X165854085Y-118379521D01*
X165779521Y-118454085D01*
X165726794Y-118545410D01*
X165726793Y-118545413D01*
X165699500Y-118647273D01*
X133560500Y-118647273D01*
X133560500Y-117356630D01*
X174789500Y-117356630D01*
X174789500Y-117583369D01*
X174824969Y-117807314D01*
X174895038Y-118022962D01*
X174997976Y-118224990D01*
X175131242Y-118408416D01*
X175131246Y-118408421D01*
X175291578Y-118568753D01*
X175291583Y-118568757D01*
X175475009Y-118702023D01*
X175475011Y-118702024D01*
X175475014Y-118702026D01*
X175677040Y-118804963D01*
X175892682Y-118875030D01*
X176116630Y-118910500D01*
X176116631Y-118910500D01*
X176343369Y-118910500D01*
X176343370Y-118910500D01*
X176567318Y-118875030D01*
X176782960Y-118804963D01*
X176984986Y-118702026D01*
X177168423Y-118568752D01*
X177328752Y-118408423D01*
X177462026Y-118224986D01*
X177564963Y-118022960D01*
X177635030Y-117807318D01*
X177670500Y-117583370D01*
X177670500Y-117356630D01*
X177635030Y-117132682D01*
X177564963Y-116917040D01*
X177462026Y-116715014D01*
X177462024Y-116715011D01*
X177462023Y-116715009D01*
X177328757Y-116531583D01*
X177328753Y-116531578D01*
X177168421Y-116371246D01*
X177168416Y-116371242D01*
X176984990Y-116237976D01*
X176782962Y-116135038D01*
X176782961Y-116135037D01*
X176782960Y-116135037D01*
X176567318Y-116064970D01*
X176567316Y-116064969D01*
X176567315Y-116064969D01*
X176395283Y-116037722D01*
X176343370Y-116029500D01*
X176116630Y-116029500D01*
X176064716Y-116037722D01*
X175892685Y-116064969D01*
X175677037Y-116135038D01*
X175475009Y-116237976D01*
X175291583Y-116371242D01*
X175291578Y-116371246D01*
X175131246Y-116531578D01*
X175131242Y-116531583D01*
X174997976Y-116715009D01*
X174895038Y-116917037D01*
X174824969Y-117132685D01*
X174789500Y-117356630D01*
X133560500Y-117356630D01*
X133560500Y-112656630D01*
X174789500Y-112656630D01*
X174789500Y-112883369D01*
X174824969Y-113107314D01*
X174895038Y-113322962D01*
X174997976Y-113524990D01*
X175131242Y-113708416D01*
X175131246Y-113708421D01*
X175291578Y-113868753D01*
X175291583Y-113868757D01*
X175475009Y-114002023D01*
X175475011Y-114002024D01*
X175475014Y-114002026D01*
X175677040Y-114104963D01*
X175892682Y-114175030D01*
X176116630Y-114210500D01*
X176116631Y-114210500D01*
X176343369Y-114210500D01*
X176343370Y-114210500D01*
X176567318Y-114175030D01*
X176782960Y-114104963D01*
X176984986Y-114002026D01*
X177168423Y-113868752D01*
X177328752Y-113708423D01*
X177462026Y-113524986D01*
X177564963Y-113322960D01*
X177635030Y-113107318D01*
X177670500Y-112883370D01*
X177670500Y-112656630D01*
X177635030Y-112432682D01*
X177564963Y-112217040D01*
X177462026Y-112015014D01*
X177462024Y-112015011D01*
X177462023Y-112015009D01*
X177328757Y-111831583D01*
X177328753Y-111831578D01*
X177168421Y-111671246D01*
X177168416Y-111671242D01*
X176984990Y-111537976D01*
X176782962Y-111435038D01*
X176782961Y-111435037D01*
X176782960Y-111435037D01*
X176567318Y-111364970D01*
X176567316Y-111364969D01*
X176567315Y-111364969D01*
X176395283Y-111337722D01*
X176343370Y-111329500D01*
X176116630Y-111329500D01*
X176064716Y-111337722D01*
X175892685Y-111364969D01*
X175677037Y-111435038D01*
X175475009Y-111537976D01*
X175291583Y-111671242D01*
X175291578Y-111671246D01*
X175131246Y-111831578D01*
X175131242Y-111831583D01*
X174997976Y-112015009D01*
X174895038Y-112217037D01*
X174824969Y-112432685D01*
X174789500Y-112656630D01*
X133560500Y-112656630D01*
X133560500Y-110600247D01*
X134639500Y-110600247D01*
X134639500Y-112339752D01*
X134651131Y-112398229D01*
X134651132Y-112398230D01*
X134695447Y-112464552D01*
X134761769Y-112508867D01*
X134761770Y-112508868D01*
X134820247Y-112520499D01*
X134820250Y-112520500D01*
X134820252Y-112520500D01*
X136559750Y-112520500D01*
X136559751Y-112520499D01*
X136574568Y-112517552D01*
X136618229Y-112508868D01*
X136618229Y-112508867D01*
X136618231Y-112508867D01*
X136684552Y-112464552D01*
X136728867Y-112398231D01*
X136728867Y-112398229D01*
X136728868Y-112398229D01*
X136740499Y-112339752D01*
X136740500Y-112339750D01*
X136740500Y-110600249D01*
X136740499Y-110600247D01*
X136730177Y-110548351D01*
X136728868Y-110541770D01*
X136728867Y-110541769D01*
X136721168Y-110530247D01*
X138959500Y-110530247D01*
X138959500Y-112269752D01*
X138971131Y-112328229D01*
X138971132Y-112328230D01*
X139015447Y-112394552D01*
X139081769Y-112438867D01*
X139081770Y-112438868D01*
X139140247Y-112450499D01*
X139140250Y-112450500D01*
X139140252Y-112450500D01*
X140879750Y-112450500D01*
X140879751Y-112450499D01*
X140894568Y-112447552D01*
X140938229Y-112438868D01*
X140938229Y-112438867D01*
X140938231Y-112438867D01*
X141004552Y-112394552D01*
X141048867Y-112328231D01*
X141048867Y-112328229D01*
X141048868Y-112328229D01*
X141060499Y-112269752D01*
X141060500Y-112269750D01*
X141060500Y-110747273D01*
X165079500Y-110747273D01*
X165079500Y-110852727D01*
X165106793Y-110954587D01*
X165159520Y-111045913D01*
X165234087Y-111120480D01*
X165325413Y-111173207D01*
X165427273Y-111200500D01*
X165427275Y-111200500D01*
X165532725Y-111200500D01*
X165532727Y-111200500D01*
X165634587Y-111173207D01*
X165725913Y-111120480D01*
X165800480Y-111045913D01*
X165853207Y-110954587D01*
X165880500Y-110852727D01*
X165880500Y-110747273D01*
X165853207Y-110645413D01*
X165800480Y-110554087D01*
X165725913Y-110479520D01*
X165642104Y-110431133D01*
X165634589Y-110426794D01*
X165634588Y-110426793D01*
X165634587Y-110426793D01*
X165532727Y-110399500D01*
X165427273Y-110399500D01*
X165325413Y-110426793D01*
X165325410Y-110426794D01*
X165234085Y-110479521D01*
X165159521Y-110554085D01*
X165106794Y-110645410D01*
X165106793Y-110645413D01*
X165079500Y-110747273D01*
X141060500Y-110747273D01*
X141060500Y-110530249D01*
X141060499Y-110530247D01*
X141048868Y-110471770D01*
X141048867Y-110471769D01*
X141004552Y-110405447D01*
X140938230Y-110361132D01*
X140938229Y-110361131D01*
X140879752Y-110349500D01*
X140879748Y-110349500D01*
X139140252Y-110349500D01*
X139140247Y-110349500D01*
X139081770Y-110361131D01*
X139081769Y-110361132D01*
X139015447Y-110405447D01*
X138971132Y-110471769D01*
X138971131Y-110471770D01*
X138959500Y-110530247D01*
X136721168Y-110530247D01*
X136684552Y-110475447D01*
X136618230Y-110431132D01*
X136618229Y-110431131D01*
X136559752Y-110419500D01*
X136559748Y-110419500D01*
X134820252Y-110419500D01*
X134820247Y-110419500D01*
X134761770Y-110431131D01*
X134761769Y-110431132D01*
X134695447Y-110475447D01*
X134651132Y-110541769D01*
X134651131Y-110541770D01*
X134639500Y-110600247D01*
X133560500Y-110600247D01*
X133560500Y-108826530D01*
X134639500Y-108826530D01*
X134639500Y-109033469D01*
X134679868Y-109236412D01*
X134679870Y-109236420D01*
X134728609Y-109354087D01*
X134759059Y-109427598D01*
X134787561Y-109470255D01*
X134874024Y-109599657D01*
X135020342Y-109745975D01*
X135020345Y-109745977D01*
X135192402Y-109860941D01*
X135383580Y-109940130D01*
X135586530Y-109980499D01*
X135586534Y-109980500D01*
X135586535Y-109980500D01*
X135793466Y-109980500D01*
X135793467Y-109980499D01*
X135996420Y-109940130D01*
X136187598Y-109860941D01*
X136359655Y-109745977D01*
X136505977Y-109599655D01*
X136620941Y-109427598D01*
X136700130Y-109236420D01*
X136740500Y-109033465D01*
X136740500Y-108826535D01*
X136740417Y-108826120D01*
X136730177Y-108774634D01*
X136726576Y-108756530D01*
X138959500Y-108756530D01*
X138959500Y-108963469D01*
X138999868Y-109166412D01*
X138999870Y-109166420D01*
X139079058Y-109357596D01*
X139194024Y-109529657D01*
X139340342Y-109675975D01*
X139340345Y-109675977D01*
X139512402Y-109790941D01*
X139703580Y-109870130D01*
X139906530Y-109910499D01*
X139906534Y-109910500D01*
X139906535Y-109910500D01*
X140113466Y-109910500D01*
X140113467Y-109910499D01*
X140316420Y-109870130D01*
X140507598Y-109790941D01*
X140679655Y-109675977D01*
X140808359Y-109547273D01*
X165139500Y-109547273D01*
X165139500Y-109652727D01*
X165166793Y-109754587D01*
X165219520Y-109845913D01*
X165294087Y-109920480D01*
X165385413Y-109973207D01*
X165487273Y-110000500D01*
X165487275Y-110000500D01*
X165592725Y-110000500D01*
X165592727Y-110000500D01*
X165694587Y-109973207D01*
X165785913Y-109920480D01*
X165860480Y-109845913D01*
X165860586Y-109845730D01*
X183494500Y-109845730D01*
X183494500Y-111154269D01*
X183497353Y-111184699D01*
X183497353Y-111184701D01*
X183542206Y-111312880D01*
X183542207Y-111312882D01*
X183622850Y-111422150D01*
X183732118Y-111502793D01*
X183774845Y-111517744D01*
X183860299Y-111547646D01*
X183890730Y-111550500D01*
X183890734Y-111550500D01*
X185449270Y-111550500D01*
X185479699Y-111547646D01*
X185479701Y-111547646D01*
X185543790Y-111525219D01*
X185607882Y-111502793D01*
X185717150Y-111422150D01*
X185797793Y-111312882D01*
X185820219Y-111248790D01*
X185842646Y-111184701D01*
X185842646Y-111184699D01*
X185845500Y-111154269D01*
X185845500Y-109845730D01*
X185842646Y-109815300D01*
X185842646Y-109815298D01*
X185797793Y-109687119D01*
X185797792Y-109687117D01*
X185717150Y-109577850D01*
X185607882Y-109497207D01*
X185607880Y-109497206D01*
X185479700Y-109452353D01*
X185449270Y-109449500D01*
X185449266Y-109449500D01*
X183890734Y-109449500D01*
X183890730Y-109449500D01*
X183860300Y-109452353D01*
X183860298Y-109452353D01*
X183732119Y-109497206D01*
X183732117Y-109497207D01*
X183622850Y-109577850D01*
X183542207Y-109687117D01*
X183542206Y-109687119D01*
X183497353Y-109815298D01*
X183497353Y-109815300D01*
X183494500Y-109845730D01*
X165860586Y-109845730D01*
X165913207Y-109754587D01*
X165940500Y-109652727D01*
X165940500Y-109547273D01*
X165913207Y-109445413D01*
X165860480Y-109354087D01*
X165785913Y-109279520D01*
X165719059Y-109240922D01*
X165694589Y-109226794D01*
X165694588Y-109226793D01*
X165694587Y-109226793D01*
X165592727Y-109199500D01*
X165487273Y-109199500D01*
X165385413Y-109226793D01*
X165385410Y-109226794D01*
X165294085Y-109279521D01*
X165219521Y-109354085D01*
X165166794Y-109445410D01*
X165166793Y-109445413D01*
X165139500Y-109547273D01*
X140808359Y-109547273D01*
X140825977Y-109529655D01*
X140879535Y-109449500D01*
X140894170Y-109427596D01*
X140940941Y-109357598D01*
X141020130Y-109166420D01*
X141060500Y-108963465D01*
X141060500Y-108756535D01*
X141020130Y-108553580D01*
X140940941Y-108362402D01*
X140825977Y-108190345D01*
X140825975Y-108190342D01*
X140679657Y-108044024D01*
X140593626Y-107986541D01*
X140507598Y-107929059D01*
X140316420Y-107849870D01*
X140316412Y-107849868D01*
X140113469Y-107809500D01*
X140113465Y-107809500D01*
X139906535Y-107809500D01*
X139906530Y-107809500D01*
X139703587Y-107849868D01*
X139703579Y-107849870D01*
X139512403Y-107929058D01*
X139340342Y-108044024D01*
X139194024Y-108190342D01*
X139079058Y-108362403D01*
X138999870Y-108553579D01*
X138999868Y-108553587D01*
X138959500Y-108756530D01*
X136726576Y-108756530D01*
X136700131Y-108623587D01*
X136700130Y-108623580D01*
X136620941Y-108432402D01*
X136505977Y-108260345D01*
X136505975Y-108260342D01*
X136359657Y-108114024D01*
X136254892Y-108044023D01*
X136187598Y-107999059D01*
X135996420Y-107919870D01*
X135996412Y-107919868D01*
X135793469Y-107879500D01*
X135793465Y-107879500D01*
X135586535Y-107879500D01*
X135586530Y-107879500D01*
X135383587Y-107919868D01*
X135383579Y-107919870D01*
X135192403Y-107999058D01*
X135020342Y-108114024D01*
X134874024Y-108260342D01*
X134759058Y-108432403D01*
X134679870Y-108623579D01*
X134679868Y-108623587D01*
X134639500Y-108826530D01*
X133560500Y-108826530D01*
X133560500Y-106286530D01*
X134639500Y-106286530D01*
X134639500Y-106493469D01*
X134679868Y-106696412D01*
X134679870Y-106696420D01*
X134759058Y-106887596D01*
X134874024Y-107059657D01*
X135020342Y-107205975D01*
X135020345Y-107205977D01*
X135192402Y-107320941D01*
X135383580Y-107400130D01*
X135586530Y-107440499D01*
X135586534Y-107440500D01*
X135586535Y-107440500D01*
X135793466Y-107440500D01*
X135793467Y-107440499D01*
X135996420Y-107400130D01*
X136187598Y-107320941D01*
X136359655Y-107205977D01*
X136505977Y-107059655D01*
X136620941Y-106887598D01*
X136700130Y-106696420D01*
X136740500Y-106493465D01*
X136740500Y-106286535D01*
X136740417Y-106286120D01*
X136730177Y-106234634D01*
X136726576Y-106216530D01*
X138959500Y-106216530D01*
X138959500Y-106423469D01*
X138999868Y-106626412D01*
X138999870Y-106626420D01*
X139079058Y-106817596D01*
X139194024Y-106989657D01*
X139340342Y-107135975D01*
X139340345Y-107135977D01*
X139512402Y-107250941D01*
X139703580Y-107330130D01*
X139906530Y-107370499D01*
X139906534Y-107370500D01*
X139906535Y-107370500D01*
X140113466Y-107370500D01*
X140113467Y-107370499D01*
X140316420Y-107330130D01*
X140507598Y-107250941D01*
X140679655Y-107135977D01*
X140825977Y-106989655D01*
X140940941Y-106817598D01*
X141020130Y-106626420D01*
X141060500Y-106423465D01*
X141060500Y-106216535D01*
X141060413Y-106216102D01*
X141049919Y-106163337D01*
X141046724Y-106147273D01*
X177399500Y-106147273D01*
X177399500Y-106252727D01*
X177426793Y-106354587D01*
X177479520Y-106445913D01*
X177554087Y-106520480D01*
X177645413Y-106573207D01*
X177747273Y-106600500D01*
X177747275Y-106600500D01*
X177852725Y-106600500D01*
X177852727Y-106600500D01*
X177954587Y-106573207D01*
X178045913Y-106520480D01*
X178120480Y-106445913D01*
X178173207Y-106354587D01*
X178200500Y-106252727D01*
X178200500Y-106147273D01*
X178173207Y-106045413D01*
X178120480Y-105954087D01*
X178045913Y-105879520D01*
X177954587Y-105826793D01*
X177852727Y-105799500D01*
X177747273Y-105799500D01*
X177645413Y-105826793D01*
X177645410Y-105826794D01*
X177554085Y-105879521D01*
X177479521Y-105954085D01*
X177426794Y-106045410D01*
X177426793Y-106045413D01*
X177399500Y-106147273D01*
X141046724Y-106147273D01*
X141020131Y-106013587D01*
X141020130Y-106013580D01*
X140940941Y-105822402D01*
X140825977Y-105650345D01*
X140825975Y-105650342D01*
X140679657Y-105504024D01*
X140593626Y-105446541D01*
X140518779Y-105396530D01*
X183494500Y-105396530D01*
X183494500Y-105603469D01*
X183534868Y-105806412D01*
X183534870Y-105806420D01*
X183570485Y-105892403D01*
X183614059Y-105997598D01*
X183646006Y-106045410D01*
X183729024Y-106169657D01*
X183875342Y-106315975D01*
X183875345Y-106315977D01*
X184047402Y-106430941D01*
X184238580Y-106510130D01*
X184441530Y-106550499D01*
X184441534Y-106550500D01*
X184441535Y-106550500D01*
X184898466Y-106550500D01*
X184898467Y-106550499D01*
X185101420Y-106510130D01*
X185292598Y-106430941D01*
X185464655Y-106315977D01*
X185610977Y-106169655D01*
X185725941Y-105997598D01*
X185805130Y-105806420D01*
X185845500Y-105603465D01*
X185845500Y-105396535D01*
X185805130Y-105193580D01*
X185725941Y-105002402D01*
X185610977Y-104830345D01*
X185610975Y-104830342D01*
X185464657Y-104684024D01*
X185326070Y-104591424D01*
X185292598Y-104569059D01*
X185190559Y-104526793D01*
X185101420Y-104489870D01*
X185101412Y-104489868D01*
X184898469Y-104449500D01*
X184898465Y-104449500D01*
X184441535Y-104449500D01*
X184441530Y-104449500D01*
X184238587Y-104489868D01*
X184238579Y-104489870D01*
X184047403Y-104569058D01*
X183875342Y-104684024D01*
X183729024Y-104830342D01*
X183614058Y-105002403D01*
X183534870Y-105193579D01*
X183534868Y-105193587D01*
X183494500Y-105396530D01*
X140518779Y-105396530D01*
X140507598Y-105389059D01*
X140316420Y-105309870D01*
X140316412Y-105309868D01*
X140113469Y-105269500D01*
X140113465Y-105269500D01*
X139906535Y-105269500D01*
X139906530Y-105269500D01*
X139703587Y-105309868D01*
X139703579Y-105309870D01*
X139512403Y-105389058D01*
X139340342Y-105504024D01*
X139194024Y-105650342D01*
X139079058Y-105822403D01*
X138999870Y-106013579D01*
X138999868Y-106013587D01*
X138959500Y-106216530D01*
X136726576Y-106216530D01*
X136700131Y-106083587D01*
X136700130Y-106083580D01*
X136620941Y-105892402D01*
X136505977Y-105720345D01*
X136505975Y-105720342D01*
X136359657Y-105574024D01*
X136254892Y-105504023D01*
X136187598Y-105459059D01*
X135996420Y-105379870D01*
X135996412Y-105379868D01*
X135793469Y-105339500D01*
X135793465Y-105339500D01*
X135586535Y-105339500D01*
X135586530Y-105339500D01*
X135383587Y-105379868D01*
X135383579Y-105379870D01*
X135192403Y-105459058D01*
X135020342Y-105574024D01*
X134874024Y-105720342D01*
X134759058Y-105892403D01*
X134679870Y-106083579D01*
X134679868Y-106083587D01*
X134639500Y-106286530D01*
X133560500Y-106286530D01*
X133560500Y-103746530D01*
X134639500Y-103746530D01*
X134639500Y-103953469D01*
X134679868Y-104156412D01*
X134679870Y-104156420D01*
X134759058Y-104347596D01*
X134874024Y-104519657D01*
X135020342Y-104665975D01*
X135020345Y-104665977D01*
X135192402Y-104780941D01*
X135383580Y-104860130D01*
X135586530Y-104900499D01*
X135586534Y-104900500D01*
X135586535Y-104900500D01*
X135793466Y-104900500D01*
X135793467Y-104900499D01*
X135996420Y-104860130D01*
X136027459Y-104847273D01*
X159799500Y-104847273D01*
X159799500Y-104952727D01*
X159826793Y-105054587D01*
X159879520Y-105145913D01*
X159954087Y-105220480D01*
X160045413Y-105273207D01*
X160147273Y-105300500D01*
X160147275Y-105300500D01*
X160252725Y-105300500D01*
X160252727Y-105300500D01*
X160354587Y-105273207D01*
X160438001Y-105225047D01*
X160505900Y-105208575D01*
X160561998Y-105225047D01*
X160645413Y-105273207D01*
X160747273Y-105300500D01*
X160747275Y-105300500D01*
X160852725Y-105300500D01*
X160852727Y-105300500D01*
X160954587Y-105273207D01*
X161038001Y-105225047D01*
X161105900Y-105208575D01*
X161161998Y-105225047D01*
X161245413Y-105273207D01*
X161347273Y-105300500D01*
X161347275Y-105300500D01*
X161452725Y-105300500D01*
X161452727Y-105300500D01*
X161554587Y-105273207D01*
X161645913Y-105220480D01*
X161720480Y-105145913D01*
X161773207Y-105054587D01*
X161800500Y-104952727D01*
X161800500Y-104847273D01*
X161773207Y-104745413D01*
X161720480Y-104654087D01*
X161645913Y-104579520D01*
X161554587Y-104526793D01*
X161452727Y-104499500D01*
X161347273Y-104499500D01*
X161245413Y-104526793D01*
X161245410Y-104526794D01*
X161162000Y-104574951D01*
X161094099Y-104591424D01*
X161038000Y-104574951D01*
X160954589Y-104526794D01*
X160954588Y-104526793D01*
X160954587Y-104526793D01*
X160852727Y-104499500D01*
X160747273Y-104499500D01*
X160645413Y-104526793D01*
X160645410Y-104526794D01*
X160562000Y-104574951D01*
X160494099Y-104591424D01*
X160438000Y-104574951D01*
X160354589Y-104526794D01*
X160354588Y-104526793D01*
X160354587Y-104526793D01*
X160252727Y-104499500D01*
X160147273Y-104499500D01*
X160045413Y-104526793D01*
X160045410Y-104526794D01*
X159954085Y-104579521D01*
X159879521Y-104654085D01*
X159826794Y-104745410D01*
X159826793Y-104745413D01*
X159799500Y-104847273D01*
X136027459Y-104847273D01*
X136187598Y-104780941D01*
X136359655Y-104665977D01*
X136505977Y-104519655D01*
X136620941Y-104347598D01*
X136700130Y-104156420D01*
X136740500Y-103953465D01*
X136740500Y-103746535D01*
X136740417Y-103746120D01*
X136730177Y-103694634D01*
X136726576Y-103676530D01*
X138959500Y-103676530D01*
X138959500Y-103883469D01*
X138999868Y-104086412D01*
X138999870Y-104086420D01*
X139079058Y-104277596D01*
X139194024Y-104449657D01*
X139340342Y-104595975D01*
X139340345Y-104595977D01*
X139512402Y-104710941D01*
X139703580Y-104790130D01*
X139905741Y-104830342D01*
X139906530Y-104830499D01*
X139906534Y-104830500D01*
X139906535Y-104830500D01*
X140113466Y-104830500D01*
X140113467Y-104830499D01*
X140316420Y-104790130D01*
X140507598Y-104710941D01*
X140679655Y-104595977D01*
X140825977Y-104449655D01*
X140940941Y-104277598D01*
X141020130Y-104086420D01*
X141060500Y-103883465D01*
X141060500Y-103676535D01*
X141020130Y-103473580D01*
X140940941Y-103282402D01*
X140825977Y-103110345D01*
X140825975Y-103110342D01*
X140679658Y-102964025D01*
X140679650Y-102964019D01*
X140572311Y-102892297D01*
X140572237Y-102892249D01*
X140558122Y-102882818D01*
X140507598Y-102849059D01*
X140382576Y-102797273D01*
X150499500Y-102797273D01*
X150499500Y-102902727D01*
X150526793Y-103004587D01*
X150579520Y-103095913D01*
X150654087Y-103170480D01*
X150745413Y-103223207D01*
X150847273Y-103250500D01*
X150847275Y-103250500D01*
X150952725Y-103250500D01*
X150952727Y-103250500D01*
X151054587Y-103223207D01*
X151145913Y-103170480D01*
X151220480Y-103095913D01*
X151273207Y-103004587D01*
X151300500Y-102902727D01*
X151300500Y-102896530D01*
X183494500Y-102896530D01*
X183494500Y-103103469D01*
X183534868Y-103306412D01*
X183534870Y-103306420D01*
X183614058Y-103497596D01*
X183729024Y-103669657D01*
X183875342Y-103815975D01*
X183875345Y-103815977D01*
X184047402Y-103930941D01*
X184238580Y-104010130D01*
X184441530Y-104050499D01*
X184441534Y-104050500D01*
X184441535Y-104050500D01*
X184898466Y-104050500D01*
X184898467Y-104050499D01*
X185101420Y-104010130D01*
X185292598Y-103930941D01*
X185464655Y-103815977D01*
X185610977Y-103669655D01*
X185725941Y-103497598D01*
X185805130Y-103306420D01*
X185845500Y-103103465D01*
X185845500Y-102896535D01*
X185805130Y-102693580D01*
X185725941Y-102502402D01*
X185610977Y-102330345D01*
X185610975Y-102330342D01*
X185464657Y-102184024D01*
X185310340Y-102080914D01*
X185292598Y-102069059D01*
X185101420Y-101989870D01*
X185101412Y-101989868D01*
X184898469Y-101949500D01*
X184898465Y-101949500D01*
X184441535Y-101949500D01*
X184441530Y-101949500D01*
X184238587Y-101989868D01*
X184238579Y-101989870D01*
X184047403Y-102069058D01*
X183875342Y-102184024D01*
X183729024Y-102330342D01*
X183614058Y-102502403D01*
X183534870Y-102693579D01*
X183534868Y-102693587D01*
X183494500Y-102896530D01*
X151300500Y-102896530D01*
X151300500Y-102797273D01*
X151273207Y-102695413D01*
X151220480Y-102604087D01*
X151145913Y-102529520D01*
X151054587Y-102476793D01*
X150952727Y-102449500D01*
X150847273Y-102449500D01*
X150745413Y-102476793D01*
X150745410Y-102476794D01*
X150654085Y-102529521D01*
X150579521Y-102604085D01*
X150526794Y-102695410D01*
X150526793Y-102695413D01*
X150499500Y-102797273D01*
X140382576Y-102797273D01*
X140316420Y-102769870D01*
X140316412Y-102769868D01*
X140113469Y-102729500D01*
X140113465Y-102729500D01*
X139906535Y-102729500D01*
X139906530Y-102729500D01*
X139703587Y-102769868D01*
X139703579Y-102769870D01*
X139512403Y-102849058D01*
X139340342Y-102964024D01*
X139194024Y-103110342D01*
X139079058Y-103282403D01*
X138999870Y-103473579D01*
X138999868Y-103473587D01*
X138959500Y-103676530D01*
X136726576Y-103676530D01*
X136700131Y-103543587D01*
X136700130Y-103543580D01*
X136620941Y-103352402D01*
X136505977Y-103180345D01*
X136505975Y-103180342D01*
X136359657Y-103034024D01*
X136254886Y-102964019D01*
X136187598Y-102919059D01*
X136148169Y-102902727D01*
X135996420Y-102839870D01*
X135996412Y-102839868D01*
X135793469Y-102799500D01*
X135793465Y-102799500D01*
X135586535Y-102799500D01*
X135586530Y-102799500D01*
X135383587Y-102839868D01*
X135383579Y-102839870D01*
X135192403Y-102919058D01*
X135020342Y-103034024D01*
X134874024Y-103180342D01*
X134759058Y-103352403D01*
X134679870Y-103543579D01*
X134679868Y-103543587D01*
X134639500Y-103746530D01*
X133560500Y-103746530D01*
X133560500Y-101782273D01*
X137799500Y-101782273D01*
X137799500Y-101887727D01*
X137826793Y-101989587D01*
X137879520Y-102080913D01*
X137954087Y-102155480D01*
X138045413Y-102208207D01*
X138147273Y-102235500D01*
X138147275Y-102235500D01*
X138252725Y-102235500D01*
X138252727Y-102235500D01*
X138354587Y-102208207D01*
X138445913Y-102155480D01*
X138520480Y-102080913D01*
X138573207Y-101989587D01*
X138600500Y-101887727D01*
X138600500Y-101782273D01*
X138573207Y-101680413D01*
X138520480Y-101589087D01*
X138445913Y-101514520D01*
X138354587Y-101461793D01*
X138252727Y-101434500D01*
X138147273Y-101434500D01*
X138045413Y-101461793D01*
X138045410Y-101461794D01*
X137954085Y-101514521D01*
X137879521Y-101589085D01*
X137826794Y-101680410D01*
X137826793Y-101680413D01*
X137799500Y-101782273D01*
X133560500Y-101782273D01*
X133560500Y-100647273D01*
X144299500Y-100647273D01*
X144299500Y-100752727D01*
X144326793Y-100854587D01*
X144379520Y-100945913D01*
X144454087Y-101020480D01*
X144545413Y-101073207D01*
X144647273Y-101100500D01*
X144647275Y-101100500D01*
X144752725Y-101100500D01*
X144752727Y-101100500D01*
X144854587Y-101073207D01*
X144945913Y-101020480D01*
X145020480Y-100945913D01*
X145073207Y-100854587D01*
X145100500Y-100752727D01*
X145100500Y-100647273D01*
X145073207Y-100545413D01*
X145020480Y-100454087D01*
X144945913Y-100379520D01*
X144854587Y-100326793D01*
X144752727Y-100299500D01*
X144647273Y-100299500D01*
X144545413Y-100326793D01*
X144545410Y-100326794D01*
X144454085Y-100379521D01*
X144379521Y-100454085D01*
X144326794Y-100545410D01*
X144326793Y-100545413D01*
X144299500Y-100647273D01*
X133560500Y-100647273D01*
X133560500Y-100047273D01*
X177999500Y-100047273D01*
X177999500Y-100152727D01*
X178026793Y-100254587D01*
X178079520Y-100345913D01*
X178154087Y-100420480D01*
X178245413Y-100473207D01*
X178347273Y-100500500D01*
X178347275Y-100500500D01*
X178452725Y-100500500D01*
X178452727Y-100500500D01*
X178554587Y-100473207D01*
X178645913Y-100420480D01*
X178669863Y-100396530D01*
X183494500Y-100396530D01*
X183494500Y-100603469D01*
X183534868Y-100806412D01*
X183534870Y-100806420D01*
X183614058Y-100997596D01*
X183729024Y-101169657D01*
X183875342Y-101315975D01*
X183875345Y-101315977D01*
X184047402Y-101430941D01*
X184238580Y-101510130D01*
X184441530Y-101550499D01*
X184441534Y-101550500D01*
X184441535Y-101550500D01*
X184898466Y-101550500D01*
X184898467Y-101550499D01*
X185101420Y-101510130D01*
X185292598Y-101430941D01*
X185464655Y-101315977D01*
X185610977Y-101169655D01*
X185725941Y-100997598D01*
X185805130Y-100806420D01*
X185845500Y-100603465D01*
X185845500Y-100396535D01*
X185805130Y-100193580D01*
X185725941Y-100002402D01*
X185610977Y-99830345D01*
X185610975Y-99830342D01*
X185464657Y-99684024D01*
X185378626Y-99626541D01*
X185292598Y-99569059D01*
X185164447Y-99515977D01*
X185101420Y-99489870D01*
X185101412Y-99489868D01*
X184898469Y-99449500D01*
X184898465Y-99449500D01*
X184441535Y-99449500D01*
X184441530Y-99449500D01*
X184238587Y-99489868D01*
X184238579Y-99489870D01*
X184047403Y-99569058D01*
X183875342Y-99684024D01*
X183729024Y-99830342D01*
X183614058Y-100002403D01*
X183534870Y-100193579D01*
X183534868Y-100193587D01*
X183494500Y-100396530D01*
X178669863Y-100396530D01*
X178720480Y-100345913D01*
X178773207Y-100254587D01*
X178800500Y-100152727D01*
X178800500Y-100047273D01*
X178773207Y-99945413D01*
X178720480Y-99854087D01*
X178645913Y-99779520D01*
X178554587Y-99726793D01*
X178452727Y-99699500D01*
X178347273Y-99699500D01*
X178245413Y-99726793D01*
X178245410Y-99726794D01*
X178154085Y-99779521D01*
X178079521Y-99854085D01*
X178026794Y-99945410D01*
X178026793Y-99945413D01*
X177999500Y-100047273D01*
X133560500Y-100047273D01*
X133560500Y-98666530D01*
X134639500Y-98666530D01*
X134639500Y-98873469D01*
X134679868Y-99076412D01*
X134679870Y-99076420D01*
X134759058Y-99267596D01*
X134874024Y-99439657D01*
X135020342Y-99585975D01*
X135020345Y-99585977D01*
X135192402Y-99700941D01*
X135383580Y-99780130D01*
X135586530Y-99820499D01*
X135586534Y-99820500D01*
X135586535Y-99820500D01*
X135793466Y-99820500D01*
X135793467Y-99820499D01*
X135996420Y-99780130D01*
X136187598Y-99700941D01*
X136359655Y-99585977D01*
X136505977Y-99439655D01*
X136620941Y-99267598D01*
X136700130Y-99076420D01*
X136740500Y-98873465D01*
X136740500Y-98666535D01*
X136740417Y-98666120D01*
X136730177Y-98614634D01*
X136726576Y-98596530D01*
X138959500Y-98596530D01*
X138959500Y-98803469D01*
X138999868Y-99006412D01*
X138999870Y-99006420D01*
X139079058Y-99197596D01*
X139194024Y-99369657D01*
X139340342Y-99515975D01*
X139340345Y-99515977D01*
X139512402Y-99630941D01*
X139703580Y-99710130D01*
X139906530Y-99750499D01*
X139906534Y-99750500D01*
X139906535Y-99750500D01*
X140113466Y-99750500D01*
X140113467Y-99750499D01*
X140316420Y-99710130D01*
X140507598Y-99630941D01*
X140679655Y-99515977D01*
X140825977Y-99369655D01*
X140940941Y-99197598D01*
X141003208Y-99047273D01*
X178687000Y-99047273D01*
X178687000Y-99152727D01*
X178714293Y-99254587D01*
X178767020Y-99345913D01*
X178841587Y-99420480D01*
X178932913Y-99473207D01*
X179034773Y-99500500D01*
X179034775Y-99500500D01*
X179140225Y-99500500D01*
X179140227Y-99500500D01*
X179242087Y-99473207D01*
X179333413Y-99420480D01*
X179407980Y-99345913D01*
X179460707Y-99254587D01*
X179488000Y-99152727D01*
X179488000Y-99047273D01*
X179460707Y-98945413D01*
X179407980Y-98854087D01*
X179333413Y-98779520D01*
X179242087Y-98726793D01*
X179140227Y-98699500D01*
X179034773Y-98699500D01*
X178932913Y-98726793D01*
X178932910Y-98726794D01*
X178841585Y-98779521D01*
X178767021Y-98854085D01*
X178714294Y-98945410D01*
X178714293Y-98945413D01*
X178687000Y-99047273D01*
X141003208Y-99047273D01*
X141020130Y-99006420D01*
X141060500Y-98803465D01*
X141060500Y-98596535D01*
X141020130Y-98393580D01*
X140940941Y-98202402D01*
X140877887Y-98108035D01*
X140877887Y-98108033D01*
X140837288Y-98047273D01*
X158624500Y-98047273D01*
X158624500Y-98152727D01*
X158651793Y-98254587D01*
X158704520Y-98345913D01*
X158779087Y-98420480D01*
X158870413Y-98473207D01*
X158972273Y-98500500D01*
X158972275Y-98500500D01*
X159077725Y-98500500D01*
X159077727Y-98500500D01*
X159179587Y-98473207D01*
X159270913Y-98420480D01*
X159345480Y-98345913D01*
X159398207Y-98254587D01*
X159425500Y-98152727D01*
X159425500Y-98047273D01*
X159418801Y-98022273D01*
X173299500Y-98022273D01*
X173299500Y-98127727D01*
X173326793Y-98229587D01*
X173379520Y-98320913D01*
X173454087Y-98395480D01*
X173545413Y-98448207D01*
X173647273Y-98475500D01*
X173647275Y-98475500D01*
X173752725Y-98475500D01*
X173752727Y-98475500D01*
X173854587Y-98448207D01*
X173945913Y-98395480D01*
X174020480Y-98320913D01*
X174073207Y-98229587D01*
X174100500Y-98127727D01*
X174100500Y-98022273D01*
X174073207Y-97920413D01*
X174059418Y-97896530D01*
X183494500Y-97896530D01*
X183494500Y-98103469D01*
X183534868Y-98306412D01*
X183534870Y-98306420D01*
X183593599Y-98448205D01*
X183614059Y-98497598D01*
X183615998Y-98500500D01*
X183729024Y-98669657D01*
X183875342Y-98815975D01*
X183875345Y-98815977D01*
X184047402Y-98930941D01*
X184238580Y-99010130D01*
X184425312Y-99047273D01*
X184441530Y-99050499D01*
X184441534Y-99050500D01*
X184441535Y-99050500D01*
X184898466Y-99050500D01*
X184898467Y-99050499D01*
X185101420Y-99010130D01*
X185292598Y-98930941D01*
X185464655Y-98815977D01*
X185610977Y-98669655D01*
X185725941Y-98497598D01*
X185805130Y-98306420D01*
X185845500Y-98103465D01*
X185845500Y-97896535D01*
X185805130Y-97693580D01*
X185725941Y-97502402D01*
X185610977Y-97330345D01*
X185610975Y-97330342D01*
X185464657Y-97184024D01*
X185378626Y-97126541D01*
X185292598Y-97069059D01*
X185101420Y-96989870D01*
X185101412Y-96989868D01*
X184898469Y-96949500D01*
X184898465Y-96949500D01*
X184441535Y-96949500D01*
X184441530Y-96949500D01*
X184238587Y-96989868D01*
X184238579Y-96989870D01*
X184047403Y-97069058D01*
X183875342Y-97184024D01*
X183729024Y-97330342D01*
X183614058Y-97502403D01*
X183534870Y-97693579D01*
X183534868Y-97693587D01*
X183494500Y-97896530D01*
X174059418Y-97896530D01*
X174020480Y-97829087D01*
X173945913Y-97754520D01*
X173854587Y-97701793D01*
X173752727Y-97674500D01*
X173647273Y-97674500D01*
X173545413Y-97701793D01*
X173545410Y-97701794D01*
X173454085Y-97754521D01*
X173379521Y-97829085D01*
X173326794Y-97920410D01*
X173326793Y-97920413D01*
X173299500Y-98022273D01*
X159418801Y-98022273D01*
X159398207Y-97945413D01*
X159345480Y-97854087D01*
X159270913Y-97779520D01*
X159179587Y-97726793D01*
X159077727Y-97699500D01*
X158972273Y-97699500D01*
X158870413Y-97726793D01*
X158870410Y-97726794D01*
X158779085Y-97779521D01*
X158704521Y-97854085D01*
X158651794Y-97945410D01*
X158651794Y-97945411D01*
X158651793Y-97945413D01*
X158624500Y-98047273D01*
X140837288Y-98047273D01*
X140825980Y-98030349D01*
X140825974Y-98030341D01*
X140679657Y-97884024D01*
X140593626Y-97826541D01*
X140507598Y-97769059D01*
X140472500Y-97754521D01*
X140316420Y-97689870D01*
X140316412Y-97689868D01*
X140113469Y-97649500D01*
X140113465Y-97649500D01*
X139906535Y-97649500D01*
X139906530Y-97649500D01*
X139703587Y-97689868D01*
X139703579Y-97689870D01*
X139512403Y-97769058D01*
X139340342Y-97884024D01*
X139194024Y-98030342D01*
X139079058Y-98202403D01*
X138999870Y-98393579D01*
X138999868Y-98393587D01*
X138959500Y-98596530D01*
X136726576Y-98596530D01*
X136707474Y-98500500D01*
X136700130Y-98463580D01*
X136620941Y-98272402D01*
X136505977Y-98100345D01*
X136505975Y-98100342D01*
X136359657Y-97954024D01*
X136210086Y-97854085D01*
X136187598Y-97839059D01*
X136043861Y-97779521D01*
X135996420Y-97759870D01*
X135996412Y-97759868D01*
X135793469Y-97719500D01*
X135793465Y-97719500D01*
X135586535Y-97719500D01*
X135586530Y-97719500D01*
X135383587Y-97759868D01*
X135383579Y-97759870D01*
X135192403Y-97839058D01*
X135020342Y-97954024D01*
X134874024Y-98100342D01*
X134759058Y-98272403D01*
X134679870Y-98463579D01*
X134679868Y-98463587D01*
X134639500Y-98666530D01*
X133560500Y-98666530D01*
X133560500Y-96503273D01*
X144499500Y-96503273D01*
X144499500Y-96608727D01*
X144526793Y-96710587D01*
X144579520Y-96801913D01*
X144654087Y-96876480D01*
X144745413Y-96929207D01*
X144847273Y-96956500D01*
X144847275Y-96956500D01*
X144952725Y-96956500D01*
X144952727Y-96956500D01*
X145054587Y-96929207D01*
X145145913Y-96876480D01*
X145220480Y-96801913D01*
X145273207Y-96710587D01*
X145300500Y-96608727D01*
X145300500Y-96503273D01*
X145273207Y-96401413D01*
X145220480Y-96310087D01*
X145145913Y-96235520D01*
X145054587Y-96182793D01*
X144952727Y-96155500D01*
X144847273Y-96155500D01*
X144745413Y-96182793D01*
X144745410Y-96182794D01*
X144654085Y-96235521D01*
X144579521Y-96310085D01*
X144526794Y-96401410D01*
X144526793Y-96401413D01*
X144499500Y-96503273D01*
X133560500Y-96503273D01*
X133560500Y-94747273D01*
X134674500Y-94747273D01*
X134674500Y-94852727D01*
X134701793Y-94954587D01*
X134754520Y-95045913D01*
X134829087Y-95120480D01*
X134920413Y-95173207D01*
X135022273Y-95200500D01*
X135022275Y-95200500D01*
X135127725Y-95200500D01*
X135127727Y-95200500D01*
X135229587Y-95173207D01*
X135274506Y-95147273D01*
X159399500Y-95147273D01*
X159399500Y-95252727D01*
X159426793Y-95354587D01*
X159479520Y-95445913D01*
X159554087Y-95520480D01*
X159645413Y-95573207D01*
X159747273Y-95600500D01*
X159747275Y-95600500D01*
X159852725Y-95600500D01*
X159852727Y-95600500D01*
X159954587Y-95573207D01*
X160045913Y-95520480D01*
X160120480Y-95445913D01*
X160173207Y-95354587D01*
X160200500Y-95252727D01*
X160200500Y-95147273D01*
X160173207Y-95045413D01*
X160120480Y-94954087D01*
X160045913Y-94879520D01*
X159954587Y-94826793D01*
X159852727Y-94799500D01*
X159747273Y-94799500D01*
X159645413Y-94826793D01*
X159645410Y-94826794D01*
X159554085Y-94879521D01*
X159479521Y-94954085D01*
X159426794Y-95045410D01*
X159426793Y-95045413D01*
X159399500Y-95147273D01*
X135274506Y-95147273D01*
X135320913Y-95120480D01*
X135395480Y-95045913D01*
X135448207Y-94954587D01*
X135475500Y-94852727D01*
X135475500Y-94747273D01*
X135448207Y-94645413D01*
X135395480Y-94554087D01*
X135320913Y-94479520D01*
X135229587Y-94426793D01*
X135127727Y-94399500D01*
X135022273Y-94399500D01*
X134920413Y-94426793D01*
X134920410Y-94426794D01*
X134829085Y-94479521D01*
X134754521Y-94554085D01*
X134701794Y-94645410D01*
X134701793Y-94645413D01*
X134674500Y-94747273D01*
X133560500Y-94747273D01*
X133560500Y-93797273D01*
X140374500Y-93797273D01*
X140374500Y-93902727D01*
X140401793Y-94004587D01*
X140454520Y-94095913D01*
X140529087Y-94170480D01*
X140620413Y-94223207D01*
X140722273Y-94250500D01*
X140722275Y-94250500D01*
X140827725Y-94250500D01*
X140827727Y-94250500D01*
X140929587Y-94223207D01*
X141020913Y-94170480D01*
X141095480Y-94095913D01*
X141148207Y-94004587D01*
X141175500Y-93902727D01*
X141175500Y-93797273D01*
X141148207Y-93695413D01*
X141095480Y-93604087D01*
X141020913Y-93529520D01*
X140999701Y-93517273D01*
X157899500Y-93517273D01*
X157899500Y-93622727D01*
X157926793Y-93724587D01*
X157979520Y-93815913D01*
X158054087Y-93890480D01*
X158145413Y-93943207D01*
X158247273Y-93970500D01*
X158247275Y-93970500D01*
X158352725Y-93970500D01*
X158352727Y-93970500D01*
X158454587Y-93943207D01*
X158545913Y-93890480D01*
X158620480Y-93815913D01*
X158673207Y-93724587D01*
X158700500Y-93622727D01*
X158700500Y-93517273D01*
X158673207Y-93415413D01*
X158620480Y-93324087D01*
X158545913Y-93249520D01*
X158454587Y-93196793D01*
X158352727Y-93169500D01*
X158247273Y-93169500D01*
X158145413Y-93196793D01*
X158145410Y-93196794D01*
X158054085Y-93249521D01*
X157979521Y-93324085D01*
X157926794Y-93415410D01*
X157926793Y-93415413D01*
X157899500Y-93517273D01*
X140999701Y-93517273D01*
X140929587Y-93476793D01*
X140827727Y-93449500D01*
X140722273Y-93449500D01*
X140620413Y-93476793D01*
X140620410Y-93476794D01*
X140529085Y-93529521D01*
X140454521Y-93604085D01*
X140401794Y-93695410D01*
X140401793Y-93695413D01*
X140374500Y-93797273D01*
X133560500Y-93797273D01*
X133560500Y-91367273D01*
X157769500Y-91367273D01*
X157769500Y-91472727D01*
X157796793Y-91574587D01*
X157849520Y-91665913D01*
X157924087Y-91740480D01*
X158015413Y-91793207D01*
X158117273Y-91820500D01*
X158117275Y-91820500D01*
X158222725Y-91820500D01*
X158222727Y-91820500D01*
X158324587Y-91793207D01*
X158415913Y-91740480D01*
X158490480Y-91665913D01*
X158538933Y-91581990D01*
X164523804Y-91581990D01*
X164523804Y-91687444D01*
X164551097Y-91789304D01*
X164603824Y-91880630D01*
X164678391Y-91955197D01*
X164769717Y-92007924D01*
X164871577Y-92035217D01*
X164871579Y-92035217D01*
X164977029Y-92035217D01*
X164977031Y-92035217D01*
X165078891Y-92007924D01*
X165170217Y-91955197D01*
X165244784Y-91880630D01*
X165297511Y-91789304D01*
X165324804Y-91687444D01*
X165324804Y-91581990D01*
X165297511Y-91480130D01*
X165244784Y-91388804D01*
X165170217Y-91314237D01*
X165078891Y-91261510D01*
X164977031Y-91234217D01*
X164871577Y-91234217D01*
X164769717Y-91261510D01*
X164769714Y-91261511D01*
X164678389Y-91314238D01*
X164603825Y-91388802D01*
X164551098Y-91480127D01*
X164551097Y-91480130D01*
X164523804Y-91581990D01*
X158538933Y-91581990D01*
X158543207Y-91574587D01*
X158570500Y-91472727D01*
X158570500Y-91367273D01*
X158543207Y-91265413D01*
X158490480Y-91174087D01*
X158415913Y-91099520D01*
X158324587Y-91046793D01*
X158222727Y-91019500D01*
X158117273Y-91019500D01*
X158015413Y-91046793D01*
X158015410Y-91046794D01*
X157924085Y-91099521D01*
X157849521Y-91174085D01*
X157796794Y-91265410D01*
X157796793Y-91265413D01*
X157769500Y-91367273D01*
X133560500Y-91367273D01*
X133560500Y-89130247D01*
X134969500Y-89130247D01*
X134969500Y-90869752D01*
X134981131Y-90928229D01*
X134981132Y-90928230D01*
X135025447Y-90994552D01*
X135091769Y-91038867D01*
X135091770Y-91038868D01*
X135150247Y-91050499D01*
X135150250Y-91050500D01*
X135150252Y-91050500D01*
X136889750Y-91050500D01*
X136889751Y-91050499D01*
X136904568Y-91047552D01*
X136948229Y-91038868D01*
X136948229Y-91038867D01*
X136948231Y-91038867D01*
X137014552Y-90994552D01*
X137058867Y-90928231D01*
X137058867Y-90928229D01*
X137058868Y-90928229D01*
X137070499Y-90869752D01*
X137070500Y-90869750D01*
X137070500Y-89230247D01*
X139359500Y-89230247D01*
X139359500Y-90969752D01*
X139371131Y-91028229D01*
X139371132Y-91028230D01*
X139415447Y-91094552D01*
X139481769Y-91138867D01*
X139481770Y-91138868D01*
X139540247Y-91150499D01*
X139540250Y-91150500D01*
X139540252Y-91150500D01*
X141279750Y-91150500D01*
X141279751Y-91150499D01*
X141294568Y-91147552D01*
X141338229Y-91138868D01*
X141338229Y-91138867D01*
X141338231Y-91138867D01*
X141404552Y-91094552D01*
X141448867Y-91028231D01*
X141448867Y-91028229D01*
X141448868Y-91028229D01*
X141460499Y-90969752D01*
X141460500Y-90969750D01*
X141460500Y-90901309D01*
X163462582Y-90901309D01*
X163462582Y-91006763D01*
X163489875Y-91108623D01*
X163542602Y-91199949D01*
X163617169Y-91274516D01*
X163708495Y-91327243D01*
X163810355Y-91354536D01*
X163810357Y-91354536D01*
X163915807Y-91354536D01*
X163915809Y-91354536D01*
X164017669Y-91327243D01*
X164108995Y-91274516D01*
X164183562Y-91199949D01*
X164236289Y-91108623D01*
X164263582Y-91006763D01*
X164263582Y-90901309D01*
X164236289Y-90799449D01*
X164183562Y-90708123D01*
X164133134Y-90657695D01*
X164099649Y-90596372D01*
X164101125Y-90575730D01*
X183634500Y-90575730D01*
X183634500Y-91884269D01*
X183637353Y-91914699D01*
X183637353Y-91914701D01*
X183679525Y-92035217D01*
X183682207Y-92042882D01*
X183762850Y-92152150D01*
X183872118Y-92232793D01*
X183914845Y-92247744D01*
X184000299Y-92277646D01*
X184030730Y-92280500D01*
X184030734Y-92280500D01*
X185589270Y-92280500D01*
X185619699Y-92277646D01*
X185619701Y-92277646D01*
X185683790Y-92255219D01*
X185747882Y-92232793D01*
X185857150Y-92152150D01*
X185937793Y-92042882D01*
X185968476Y-91955195D01*
X185982646Y-91914701D01*
X185982646Y-91914699D01*
X185985500Y-91884269D01*
X185985500Y-90575730D01*
X185982646Y-90545300D01*
X185982646Y-90545298D01*
X185941597Y-90427989D01*
X185937793Y-90417118D01*
X185857150Y-90307850D01*
X185747882Y-90227207D01*
X185747880Y-90227206D01*
X185619700Y-90182353D01*
X185589270Y-90179500D01*
X185589266Y-90179500D01*
X184030734Y-90179500D01*
X184030730Y-90179500D01*
X184000300Y-90182353D01*
X184000298Y-90182353D01*
X183872119Y-90227206D01*
X183872117Y-90227207D01*
X183762850Y-90307850D01*
X183682207Y-90417117D01*
X183682206Y-90417119D01*
X183637353Y-90545298D01*
X183637353Y-90545300D01*
X183634500Y-90575730D01*
X164101125Y-90575730D01*
X164104633Y-90526680D01*
X164133130Y-90482337D01*
X164187480Y-90427988D01*
X164240207Y-90336662D01*
X164267500Y-90234802D01*
X164267500Y-90129348D01*
X164240207Y-90027488D01*
X164187480Y-89936162D01*
X164112913Y-89861595D01*
X164021587Y-89808868D01*
X163919727Y-89781575D01*
X163814273Y-89781575D01*
X163712413Y-89808868D01*
X163712410Y-89808869D01*
X163621085Y-89861596D01*
X163546521Y-89936160D01*
X163493794Y-90027485D01*
X163493793Y-90027488D01*
X163466500Y-90129348D01*
X163466500Y-90234802D01*
X163493793Y-90336662D01*
X163540244Y-90417118D01*
X163546521Y-90427989D01*
X163596947Y-90478415D01*
X163630432Y-90539738D01*
X163625448Y-90609430D01*
X163596948Y-90653777D01*
X163542602Y-90708123D01*
X163489876Y-90799446D01*
X163489875Y-90799449D01*
X163462582Y-90901309D01*
X141460500Y-90901309D01*
X141460500Y-89822273D01*
X156899500Y-89822273D01*
X156899500Y-89927727D01*
X156926793Y-90029587D01*
X156979520Y-90120913D01*
X157054087Y-90195480D01*
X157145413Y-90248207D01*
X157247273Y-90275500D01*
X157247275Y-90275500D01*
X157352725Y-90275500D01*
X157352727Y-90275500D01*
X157454587Y-90248207D01*
X157545913Y-90195480D01*
X157620480Y-90120913D01*
X157673207Y-90029587D01*
X157700500Y-89927727D01*
X157700500Y-89822273D01*
X157673207Y-89720413D01*
X157620480Y-89629087D01*
X157545913Y-89554520D01*
X157459430Y-89504589D01*
X157454589Y-89501794D01*
X157454588Y-89501793D01*
X157454587Y-89501793D01*
X157352727Y-89474500D01*
X157247273Y-89474500D01*
X157145413Y-89501793D01*
X157145410Y-89501794D01*
X157054085Y-89554521D01*
X156979521Y-89629085D01*
X156926794Y-89720410D01*
X156926793Y-89720413D01*
X156899500Y-89822273D01*
X141460500Y-89822273D01*
X141460500Y-89297273D01*
X154149500Y-89297273D01*
X154149500Y-89402727D01*
X154176793Y-89504587D01*
X154229520Y-89595913D01*
X154304087Y-89670480D01*
X154395413Y-89723207D01*
X154497273Y-89750500D01*
X154497275Y-89750500D01*
X154602725Y-89750500D01*
X154602727Y-89750500D01*
X154704587Y-89723207D01*
X154795913Y-89670480D01*
X154870480Y-89595913D01*
X154923207Y-89504587D01*
X154950500Y-89402727D01*
X154950500Y-89349500D01*
X154970185Y-89282461D01*
X155022989Y-89236706D01*
X155074500Y-89225500D01*
X155177256Y-89225500D01*
X155177258Y-89225500D01*
X155279118Y-89198207D01*
X155370444Y-89145480D01*
X155445011Y-89070913D01*
X155497738Y-88979587D01*
X155525031Y-88877727D01*
X155525031Y-88772273D01*
X155504328Y-88695007D01*
X155504328Y-88695005D01*
X155497906Y-88671041D01*
X165575732Y-88671041D01*
X165575732Y-88776495D01*
X165603025Y-88878355D01*
X165655752Y-88969681D01*
X165730319Y-89044248D01*
X165821645Y-89096975D01*
X165923505Y-89124268D01*
X165923507Y-89124268D01*
X166028957Y-89124268D01*
X166028959Y-89124268D01*
X166130819Y-89096975D01*
X166222145Y-89044248D01*
X166296712Y-88969681D01*
X166349439Y-88878355D01*
X166376732Y-88776495D01*
X166376732Y-88671041D01*
X166349439Y-88569181D01*
X166296712Y-88477855D01*
X166222145Y-88403288D01*
X166130819Y-88350561D01*
X166028959Y-88323268D01*
X165923505Y-88323268D01*
X165821645Y-88350561D01*
X165821642Y-88350562D01*
X165730317Y-88403289D01*
X165655753Y-88477853D01*
X165603026Y-88569178D01*
X165603025Y-88569181D01*
X165575732Y-88671041D01*
X155497906Y-88671041D01*
X155497739Y-88670417D01*
X155497738Y-88670413D01*
X155445011Y-88579087D01*
X155370444Y-88504520D01*
X155279118Y-88451793D01*
X155177258Y-88424500D01*
X155071804Y-88424500D01*
X154969944Y-88451793D01*
X154969941Y-88451794D01*
X154878616Y-88504521D01*
X154804052Y-88579085D01*
X154751325Y-88670410D01*
X154751324Y-88670413D01*
X154724031Y-88772273D01*
X154724031Y-88825500D01*
X154704346Y-88892539D01*
X154651542Y-88938294D01*
X154600031Y-88949500D01*
X154497273Y-88949500D01*
X154395413Y-88976793D01*
X154395410Y-88976794D01*
X154304085Y-89029521D01*
X154229521Y-89104085D01*
X154176794Y-89195410D01*
X154176793Y-89195413D01*
X154149500Y-89297273D01*
X141460500Y-89297273D01*
X141460500Y-89230249D01*
X141460499Y-89230247D01*
X141448868Y-89171770D01*
X141448867Y-89171769D01*
X141404552Y-89105447D01*
X141338230Y-89061132D01*
X141338229Y-89061131D01*
X141279752Y-89049500D01*
X141279748Y-89049500D01*
X139540252Y-89049500D01*
X139540247Y-89049500D01*
X139481770Y-89061131D01*
X139481769Y-89061132D01*
X139415447Y-89105447D01*
X139371132Y-89171769D01*
X139371131Y-89171770D01*
X139359500Y-89230247D01*
X137070500Y-89230247D01*
X137070500Y-89130249D01*
X137070499Y-89130247D01*
X137058868Y-89071770D01*
X137058867Y-89071769D01*
X137014552Y-89005447D01*
X136948230Y-88961132D01*
X136948229Y-88961131D01*
X136889752Y-88949500D01*
X136889748Y-88949500D01*
X135150252Y-88949500D01*
X135150247Y-88949500D01*
X135091770Y-88961131D01*
X135091769Y-88961132D01*
X135025447Y-89005447D01*
X134981132Y-89071769D01*
X134981131Y-89071770D01*
X134969500Y-89130247D01*
X133560500Y-89130247D01*
X133560500Y-88613541D01*
X152333232Y-88613541D01*
X152333232Y-88718995D01*
X152360525Y-88820855D01*
X152413252Y-88912181D01*
X152487819Y-88986748D01*
X152579145Y-89039475D01*
X152681005Y-89066768D01*
X152681007Y-89066768D01*
X152786457Y-89066768D01*
X152786459Y-89066768D01*
X152888319Y-89039475D01*
X152979645Y-88986748D01*
X153054212Y-88912181D01*
X153106939Y-88820855D01*
X153134232Y-88718995D01*
X153134232Y-88613541D01*
X153106939Y-88511681D01*
X153054212Y-88420355D01*
X152979645Y-88345788D01*
X152888319Y-88293061D01*
X152786459Y-88265768D01*
X152681005Y-88265768D01*
X152579145Y-88293061D01*
X152579142Y-88293062D01*
X152487817Y-88345789D01*
X152413253Y-88420353D01*
X152360526Y-88511678D01*
X152360525Y-88511681D01*
X152333232Y-88613541D01*
X133560500Y-88613541D01*
X133560500Y-87356530D01*
X134969500Y-87356530D01*
X134969500Y-87563469D01*
X135009868Y-87766412D01*
X135009870Y-87766420D01*
X135087040Y-87952725D01*
X135089059Y-87957598D01*
X135146541Y-88043626D01*
X135204024Y-88129657D01*
X135350342Y-88275975D01*
X135350345Y-88275977D01*
X135522402Y-88390941D01*
X135713580Y-88470130D01*
X135916530Y-88510499D01*
X135916534Y-88510500D01*
X135916535Y-88510500D01*
X136123466Y-88510500D01*
X136123467Y-88510499D01*
X136326420Y-88470130D01*
X136517598Y-88390941D01*
X136689655Y-88275977D01*
X136835977Y-88129655D01*
X136950941Y-87957598D01*
X137030130Y-87766420D01*
X137070500Y-87563465D01*
X137070500Y-87456530D01*
X139359500Y-87456530D01*
X139359500Y-87663469D01*
X139399868Y-87866412D01*
X139399870Y-87866420D01*
X139479058Y-88057596D01*
X139594024Y-88229657D01*
X139740342Y-88375975D01*
X139740345Y-88375977D01*
X139912402Y-88490941D01*
X140103580Y-88570130D01*
X140306530Y-88610499D01*
X140306534Y-88610500D01*
X140306535Y-88610500D01*
X140513466Y-88610500D01*
X140513467Y-88610499D01*
X140716420Y-88570130D01*
X140907598Y-88490941D01*
X141079655Y-88375977D01*
X141225977Y-88229655D01*
X141340941Y-88057598D01*
X141420130Y-87866420D01*
X141458748Y-87672273D01*
X155824500Y-87672273D01*
X155824500Y-87777727D01*
X155851793Y-87879587D01*
X155904520Y-87970913D01*
X155979087Y-88045480D01*
X156070413Y-88098207D01*
X156172273Y-88125500D01*
X156172275Y-88125500D01*
X156277725Y-88125500D01*
X156277727Y-88125500D01*
X156379587Y-88098207D01*
X156470913Y-88045480D01*
X156545480Y-87970913D01*
X156598207Y-87879587D01*
X156606865Y-87847273D01*
X177699500Y-87847273D01*
X177699500Y-87952727D01*
X177726793Y-88054587D01*
X177779520Y-88145913D01*
X177854087Y-88220480D01*
X177945413Y-88273207D01*
X178047273Y-88300500D01*
X178047275Y-88300500D01*
X178152725Y-88300500D01*
X178152727Y-88300500D01*
X178254587Y-88273207D01*
X178345913Y-88220480D01*
X178420480Y-88145913D01*
X178473207Y-88054587D01*
X178500500Y-87952727D01*
X178500500Y-87847273D01*
X178473207Y-87745413D01*
X178420480Y-87654087D01*
X178345913Y-87579520D01*
X178254587Y-87526793D01*
X178152727Y-87499500D01*
X178047273Y-87499500D01*
X177945413Y-87526793D01*
X177945410Y-87526794D01*
X177854085Y-87579521D01*
X177779521Y-87654085D01*
X177726794Y-87745410D01*
X177726793Y-87745413D01*
X177699500Y-87847273D01*
X156606865Y-87847273D01*
X156625500Y-87777727D01*
X156625500Y-87672273D01*
X156598207Y-87570413D01*
X156545480Y-87479087D01*
X156470913Y-87404520D01*
X156404059Y-87365922D01*
X156379589Y-87351794D01*
X156379588Y-87351793D01*
X156379587Y-87351793D01*
X156277727Y-87324500D01*
X156172273Y-87324500D01*
X156070413Y-87351793D01*
X156070410Y-87351794D01*
X155979085Y-87404521D01*
X155904521Y-87479085D01*
X155851794Y-87570410D01*
X155851793Y-87570413D01*
X155824500Y-87672273D01*
X141458748Y-87672273D01*
X141460500Y-87663465D01*
X141460500Y-87456535D01*
X141420130Y-87253580D01*
X141348029Y-87079514D01*
X141340942Y-87062403D01*
X141330832Y-87047273D01*
X142399500Y-87047273D01*
X142399500Y-87152727D01*
X142426793Y-87254587D01*
X142479520Y-87345913D01*
X142554087Y-87420480D01*
X142645413Y-87473207D01*
X142747273Y-87500500D01*
X142747275Y-87500500D01*
X142852725Y-87500500D01*
X142852727Y-87500500D01*
X142954587Y-87473207D01*
X143045913Y-87420480D01*
X143120480Y-87345913D01*
X143173207Y-87254587D01*
X143200500Y-87152727D01*
X143200500Y-87047273D01*
X143173207Y-86945413D01*
X143120480Y-86854087D01*
X143045913Y-86779520D01*
X142963426Y-86731896D01*
X142954589Y-86726794D01*
X142954588Y-86726793D01*
X142954587Y-86726793D01*
X142852727Y-86699500D01*
X142747273Y-86699500D01*
X142645413Y-86726793D01*
X142645410Y-86726794D01*
X142554085Y-86779521D01*
X142479521Y-86854085D01*
X142426794Y-86945410D01*
X142426793Y-86945413D01*
X142399500Y-87047273D01*
X141330832Y-87047273D01*
X141225975Y-86890342D01*
X141079657Y-86744024D01*
X140954653Y-86660500D01*
X140907598Y-86629059D01*
X140854029Y-86606870D01*
X140811124Y-86589098D01*
X148277895Y-86589098D01*
X148277895Y-86694552D01*
X148305188Y-86796412D01*
X148357915Y-86887738D01*
X148432482Y-86962305D01*
X148523808Y-87015032D01*
X148625668Y-87042325D01*
X148625670Y-87042325D01*
X148731120Y-87042325D01*
X148731122Y-87042325D01*
X148832982Y-87015032D01*
X148924308Y-86962305D01*
X148998875Y-86887738D01*
X149051602Y-86796412D01*
X149078895Y-86694552D01*
X149078895Y-86589098D01*
X149051602Y-86487238D01*
X149000978Y-86399554D01*
X153378951Y-86399554D01*
X153378951Y-86505008D01*
X153406244Y-86606868D01*
X153458971Y-86698194D01*
X153533538Y-86772761D01*
X153584279Y-86802056D01*
X153632493Y-86852622D01*
X153645717Y-86921229D01*
X153629670Y-86971433D01*
X153626083Y-86977645D01*
X153626080Y-86977654D01*
X153598787Y-87079514D01*
X153598787Y-87184968D01*
X153626080Y-87286828D01*
X153678807Y-87378154D01*
X153753374Y-87452721D01*
X153844700Y-87505448D01*
X153946560Y-87532741D01*
X153946562Y-87532741D01*
X154052012Y-87532741D01*
X154052014Y-87532741D01*
X154153874Y-87505448D01*
X154245200Y-87452721D01*
X154319767Y-87378154D01*
X154372494Y-87286828D01*
X154399787Y-87184968D01*
X154399787Y-87079514D01*
X154372494Y-86977654D01*
X154319767Y-86886328D01*
X154245200Y-86811761D01*
X154218613Y-86796411D01*
X154194457Y-86782464D01*
X154146242Y-86731896D01*
X154133021Y-86663289D01*
X154139103Y-86635034D01*
X154143013Y-86623571D01*
X154152658Y-86606868D01*
X154155230Y-86597268D01*
X156224500Y-86597268D01*
X156224500Y-86702722D01*
X156251793Y-86804582D01*
X156304520Y-86895908D01*
X156379087Y-86970475D01*
X156470413Y-87023202D01*
X156572273Y-87050495D01*
X156572275Y-87050495D01*
X156677725Y-87050495D01*
X156677727Y-87050495D01*
X156779587Y-87023202D01*
X156870913Y-86970475D01*
X156945480Y-86895908D01*
X156998207Y-86804582D01*
X157025500Y-86702722D01*
X157025500Y-86597268D01*
X156998207Y-86495408D01*
X156945480Y-86404082D01*
X156870913Y-86329515D01*
X156779587Y-86276788D01*
X156677727Y-86249495D01*
X156572273Y-86249495D01*
X156470413Y-86276788D01*
X156470410Y-86276789D01*
X156379085Y-86329516D01*
X156304521Y-86404080D01*
X156251794Y-86495405D01*
X156251793Y-86495408D01*
X156224500Y-86597268D01*
X154155230Y-86597268D01*
X154179951Y-86505008D01*
X154179951Y-86399554D01*
X154152658Y-86297694D01*
X154100454Y-86207273D01*
X174609500Y-86207273D01*
X174609500Y-86312727D01*
X174636793Y-86414587D01*
X174689520Y-86505913D01*
X174764087Y-86580480D01*
X174855413Y-86633207D01*
X174957273Y-86660500D01*
X174957275Y-86660500D01*
X175062725Y-86660500D01*
X175062727Y-86660500D01*
X175164587Y-86633207D01*
X175255913Y-86580480D01*
X175330480Y-86505913D01*
X175383207Y-86414587D01*
X175410500Y-86312727D01*
X175410500Y-86207273D01*
X175388865Y-86126530D01*
X183634500Y-86126530D01*
X183634500Y-86333469D01*
X183674868Y-86536412D01*
X183674870Y-86536420D01*
X183753725Y-86726793D01*
X183754059Y-86727598D01*
X183784236Y-86772761D01*
X183869024Y-86899657D01*
X184015342Y-87045975D01*
X184015345Y-87045977D01*
X184187402Y-87160941D01*
X184378580Y-87240130D01*
X184581530Y-87280499D01*
X184581534Y-87280500D01*
X184581535Y-87280500D01*
X185038466Y-87280500D01*
X185038467Y-87280499D01*
X185241420Y-87240130D01*
X185432598Y-87160941D01*
X185604655Y-87045977D01*
X185750977Y-86899655D01*
X185865941Y-86727598D01*
X185945130Y-86536420D01*
X185985500Y-86333465D01*
X185985500Y-86126535D01*
X185945130Y-85923580D01*
X185865941Y-85732402D01*
X185750977Y-85560345D01*
X185750975Y-85560342D01*
X185604657Y-85414024D01*
X185518626Y-85356541D01*
X185432598Y-85299059D01*
X185418465Y-85293205D01*
X185241420Y-85219870D01*
X185241412Y-85219868D01*
X185038469Y-85179500D01*
X185038465Y-85179500D01*
X184581535Y-85179500D01*
X184581530Y-85179500D01*
X184378587Y-85219868D01*
X184378579Y-85219870D01*
X184187403Y-85299058D01*
X184015342Y-85414024D01*
X183869024Y-85560342D01*
X183754058Y-85732403D01*
X183674870Y-85923579D01*
X183674868Y-85923587D01*
X183634500Y-86126530D01*
X175388865Y-86126530D01*
X175383207Y-86105413D01*
X175330480Y-86014087D01*
X175255913Y-85939520D01*
X175164587Y-85886793D01*
X175062727Y-85859500D01*
X174957273Y-85859500D01*
X174855413Y-85886793D01*
X174855410Y-85886794D01*
X174764085Y-85939521D01*
X174689521Y-86014085D01*
X174636794Y-86105410D01*
X174636793Y-86105413D01*
X174609500Y-86207273D01*
X154100454Y-86207273D01*
X154099931Y-86206368D01*
X154025364Y-86131801D01*
X153934038Y-86079074D01*
X153832178Y-86051781D01*
X153726724Y-86051781D01*
X153624864Y-86079074D01*
X153624861Y-86079075D01*
X153533536Y-86131802D01*
X153458972Y-86206366D01*
X153406245Y-86297691D01*
X153406244Y-86297694D01*
X153378951Y-86399554D01*
X149000978Y-86399554D01*
X148998875Y-86395912D01*
X148924308Y-86321345D01*
X148832982Y-86268618D01*
X148731122Y-86241325D01*
X148625668Y-86241325D01*
X148523808Y-86268618D01*
X148523805Y-86268619D01*
X148432480Y-86321346D01*
X148357916Y-86395910D01*
X148305189Y-86487235D01*
X148305188Y-86487238D01*
X148277895Y-86589098D01*
X140811124Y-86589098D01*
X140716420Y-86549870D01*
X140716412Y-86549868D01*
X140513469Y-86509500D01*
X140513465Y-86509500D01*
X140306535Y-86509500D01*
X140306530Y-86509500D01*
X140103587Y-86549868D01*
X140103579Y-86549870D01*
X139912403Y-86629058D01*
X139740342Y-86744024D01*
X139594024Y-86890342D01*
X139479058Y-87062403D01*
X139399870Y-87253579D01*
X139399868Y-87253587D01*
X139359500Y-87456530D01*
X137070500Y-87456530D01*
X137070500Y-87356535D01*
X137030130Y-87153580D01*
X136950941Y-86962402D01*
X136835977Y-86790345D01*
X136835975Y-86790342D01*
X136689657Y-86644024D01*
X136603626Y-86586541D01*
X136517598Y-86529059D01*
X136461721Y-86505914D01*
X136326420Y-86449870D01*
X136326412Y-86449868D01*
X136123469Y-86409500D01*
X136123465Y-86409500D01*
X135916535Y-86409500D01*
X135916530Y-86409500D01*
X135713587Y-86449868D01*
X135713579Y-86449870D01*
X135522403Y-86529058D01*
X135350342Y-86644024D01*
X135204024Y-86790342D01*
X135089058Y-86962403D01*
X135009870Y-87153579D01*
X135009868Y-87153587D01*
X134969500Y-87356530D01*
X133560500Y-87356530D01*
X133560500Y-84816530D01*
X134969500Y-84816530D01*
X134969500Y-85023469D01*
X135009868Y-85226412D01*
X135009870Y-85226420D01*
X135087578Y-85414024D01*
X135089059Y-85417598D01*
X135113730Y-85454521D01*
X135204024Y-85589657D01*
X135350342Y-85735975D01*
X135350345Y-85735977D01*
X135522402Y-85850941D01*
X135713580Y-85930130D01*
X135916530Y-85970499D01*
X135916534Y-85970500D01*
X135916535Y-85970500D01*
X136123466Y-85970500D01*
X136123467Y-85970499D01*
X136326420Y-85930130D01*
X136517598Y-85850941D01*
X136689655Y-85735977D01*
X136835977Y-85589655D01*
X136950941Y-85417598D01*
X137030130Y-85226420D01*
X137070500Y-85023465D01*
X137070500Y-84867273D01*
X137799500Y-84867273D01*
X137799500Y-84972727D01*
X137826793Y-85074587D01*
X137879520Y-85165913D01*
X137954087Y-85240480D01*
X138045413Y-85293207D01*
X138147273Y-85320500D01*
X138147275Y-85320500D01*
X138252725Y-85320500D01*
X138252727Y-85320500D01*
X138354587Y-85293207D01*
X138445913Y-85240480D01*
X138520480Y-85165913D01*
X138573207Y-85074587D01*
X138600500Y-84972727D01*
X138600500Y-84916530D01*
X139359500Y-84916530D01*
X139359500Y-85123469D01*
X139399868Y-85326412D01*
X139399870Y-85326420D01*
X139459558Y-85470520D01*
X139479059Y-85517598D01*
X139527206Y-85589655D01*
X139594024Y-85689657D01*
X139740342Y-85835975D01*
X139740345Y-85835977D01*
X139912402Y-85950941D01*
X140103580Y-86030130D01*
X140306530Y-86070499D01*
X140306534Y-86070500D01*
X140306535Y-86070500D01*
X140513466Y-86070500D01*
X140513467Y-86070499D01*
X140716420Y-86030130D01*
X140907598Y-85950941D01*
X141079655Y-85835977D01*
X141177359Y-85738273D01*
X145978500Y-85738273D01*
X145978500Y-85843727D01*
X146005793Y-85945587D01*
X146058520Y-86036913D01*
X146133087Y-86111480D01*
X146224413Y-86164207D01*
X146326273Y-86191500D01*
X146326275Y-86191500D01*
X146431725Y-86191500D01*
X146431727Y-86191500D01*
X146533587Y-86164207D01*
X146624913Y-86111480D01*
X146699480Y-86036913D01*
X146752207Y-85945587D01*
X146779500Y-85843727D01*
X146779500Y-85738273D01*
X146752207Y-85636413D01*
X146699480Y-85545087D01*
X146624913Y-85470520D01*
X146533587Y-85417793D01*
X146431727Y-85390500D01*
X146326273Y-85390500D01*
X146224413Y-85417793D01*
X146224410Y-85417794D01*
X146133085Y-85470521D01*
X146058521Y-85545085D01*
X146005794Y-85636410D01*
X146005793Y-85636413D01*
X145978500Y-85738273D01*
X141177359Y-85738273D01*
X141225977Y-85689655D01*
X141340941Y-85517598D01*
X141420130Y-85326420D01*
X141460500Y-85123465D01*
X141460500Y-85096273D01*
X158533147Y-85096273D01*
X158533147Y-85201727D01*
X158560440Y-85303587D01*
X158613167Y-85394913D01*
X158687734Y-85469480D01*
X158779060Y-85522207D01*
X158880920Y-85549500D01*
X158880922Y-85549500D01*
X158986372Y-85549500D01*
X158986374Y-85549500D01*
X159088234Y-85522207D01*
X159179560Y-85469480D01*
X159214003Y-85435037D01*
X159874500Y-85435037D01*
X159874500Y-85540491D01*
X159887674Y-85589655D01*
X159901793Y-85642350D01*
X159901794Y-85642353D01*
X159912708Y-85661256D01*
X159954520Y-85733677D01*
X160029087Y-85808244D01*
X160120413Y-85860971D01*
X160222273Y-85888264D01*
X160222275Y-85888264D01*
X160327725Y-85888264D01*
X160327727Y-85888264D01*
X160429587Y-85860971D01*
X160520913Y-85808244D01*
X160595480Y-85733677D01*
X160602064Y-85722273D01*
X171574500Y-85722273D01*
X171574500Y-85827727D01*
X171600186Y-85923587D01*
X171601793Y-85929586D01*
X171601794Y-85929589D01*
X171602107Y-85930131D01*
X171654520Y-86020913D01*
X171729087Y-86095480D01*
X171820413Y-86148207D01*
X171922273Y-86175500D01*
X171922275Y-86175500D01*
X172027725Y-86175500D01*
X172027727Y-86175500D01*
X172129587Y-86148207D01*
X172220913Y-86095480D01*
X172295480Y-86020913D01*
X172348207Y-85929587D01*
X172375500Y-85827727D01*
X172375500Y-85722273D01*
X172348207Y-85620413D01*
X172295480Y-85529087D01*
X172220913Y-85454520D01*
X172129587Y-85401793D01*
X172027727Y-85374500D01*
X171922273Y-85374500D01*
X171820413Y-85401793D01*
X171820410Y-85401794D01*
X171729085Y-85454521D01*
X171654521Y-85529085D01*
X171601794Y-85620410D01*
X171601793Y-85620413D01*
X171574500Y-85722273D01*
X160602064Y-85722273D01*
X160648207Y-85642351D01*
X160675500Y-85540491D01*
X160675500Y-85435037D01*
X160648207Y-85333177D01*
X160595480Y-85241851D01*
X160520913Y-85167284D01*
X160429587Y-85114557D01*
X160327727Y-85087264D01*
X160222273Y-85087264D01*
X160120413Y-85114557D01*
X160120410Y-85114558D01*
X160029085Y-85167285D01*
X159954521Y-85241849D01*
X159901794Y-85333174D01*
X159901793Y-85333177D01*
X159874500Y-85435037D01*
X159214003Y-85435037D01*
X159254127Y-85394913D01*
X159306854Y-85303587D01*
X159334147Y-85201727D01*
X159334147Y-85096273D01*
X159306854Y-84994413D01*
X159254127Y-84903087D01*
X159179560Y-84828520D01*
X159088234Y-84775793D01*
X158986374Y-84748500D01*
X158880920Y-84748500D01*
X158779060Y-84775793D01*
X158779057Y-84775794D01*
X158687732Y-84828521D01*
X158613168Y-84903085D01*
X158560441Y-84994410D01*
X158560440Y-84994413D01*
X158533147Y-85096273D01*
X141460500Y-85096273D01*
X141460500Y-84916535D01*
X141420130Y-84713580D01*
X141351243Y-84547273D01*
X143324500Y-84547273D01*
X143324500Y-84652727D01*
X143351793Y-84754587D01*
X143404520Y-84845913D01*
X143479087Y-84920480D01*
X143570413Y-84973207D01*
X143672273Y-85000500D01*
X143672275Y-85000500D01*
X143777725Y-85000500D01*
X143777727Y-85000500D01*
X143879587Y-84973207D01*
X143970913Y-84920480D01*
X144045480Y-84845913D01*
X144098207Y-84754587D01*
X144125500Y-84652727D01*
X144125500Y-84547273D01*
X144098207Y-84445413D01*
X144045480Y-84354087D01*
X143970913Y-84279520D01*
X143904059Y-84240922D01*
X143879589Y-84226794D01*
X143879588Y-84226793D01*
X143879587Y-84226793D01*
X143777727Y-84199500D01*
X143672273Y-84199500D01*
X143570413Y-84226793D01*
X143570410Y-84226794D01*
X143479085Y-84279521D01*
X143404521Y-84354085D01*
X143351794Y-84445410D01*
X143351793Y-84445413D01*
X143324500Y-84547273D01*
X141351243Y-84547273D01*
X141340941Y-84522402D01*
X141225977Y-84350345D01*
X141225975Y-84350342D01*
X141079657Y-84204024D01*
X140992687Y-84145913D01*
X140907598Y-84089059D01*
X140824373Y-84054586D01*
X140716420Y-84009870D01*
X140716412Y-84009868D01*
X140513469Y-83969500D01*
X140513465Y-83969500D01*
X140306535Y-83969500D01*
X140306530Y-83969500D01*
X140103587Y-84009868D01*
X140103579Y-84009870D01*
X139912403Y-84089058D01*
X139740342Y-84204024D01*
X139594024Y-84350342D01*
X139479058Y-84522403D01*
X139399870Y-84713579D01*
X139399868Y-84713587D01*
X139359500Y-84916530D01*
X138600500Y-84916530D01*
X138600500Y-84867273D01*
X138573207Y-84765413D01*
X138520480Y-84674087D01*
X138445913Y-84599520D01*
X138355422Y-84547275D01*
X138354589Y-84546794D01*
X138354588Y-84546793D01*
X138354587Y-84546793D01*
X138252727Y-84519500D01*
X138147273Y-84519500D01*
X138045413Y-84546793D01*
X138045410Y-84546794D01*
X137954085Y-84599521D01*
X137879521Y-84674085D01*
X137826794Y-84765410D01*
X137826793Y-84765413D01*
X137799500Y-84867273D01*
X137070500Y-84867273D01*
X137070500Y-84816535D01*
X137030130Y-84613580D01*
X136950941Y-84422402D01*
X136835977Y-84250345D01*
X136835975Y-84250342D01*
X136689657Y-84104024D01*
X136588467Y-84036412D01*
X136517598Y-83989059D01*
X136502702Y-83982889D01*
X136326420Y-83909870D01*
X136326412Y-83909868D01*
X136123469Y-83869500D01*
X136123465Y-83869500D01*
X135916535Y-83869500D01*
X135916530Y-83869500D01*
X135713587Y-83909868D01*
X135713579Y-83909870D01*
X135522403Y-83989058D01*
X135350342Y-84104024D01*
X135204024Y-84250342D01*
X135089058Y-84422403D01*
X135009870Y-84613579D01*
X135009868Y-84613587D01*
X134969500Y-84816530D01*
X133560500Y-84816530D01*
X133560500Y-82276530D01*
X134969500Y-82276530D01*
X134969500Y-82483469D01*
X135009868Y-82686412D01*
X135009870Y-82686420D01*
X135084010Y-82865410D01*
X135089059Y-82877598D01*
X135113397Y-82914023D01*
X135204024Y-83049657D01*
X135350342Y-83195975D01*
X135350345Y-83195977D01*
X135522402Y-83310941D01*
X135713580Y-83390130D01*
X135881741Y-83423579D01*
X135916530Y-83430499D01*
X135916534Y-83430500D01*
X135916535Y-83430500D01*
X136123466Y-83430500D01*
X136123467Y-83430499D01*
X136326420Y-83390130D01*
X136517598Y-83310941D01*
X136689655Y-83195977D01*
X136835977Y-83049655D01*
X136950941Y-82877598D01*
X137030130Y-82686420D01*
X137070500Y-82483465D01*
X137070500Y-82376530D01*
X139359500Y-82376530D01*
X139359500Y-82583469D01*
X139399868Y-82786412D01*
X139399870Y-82786420D01*
X139437636Y-82877596D01*
X139479059Y-82977598D01*
X139490269Y-82994375D01*
X139594024Y-83149657D01*
X139740342Y-83295975D01*
X139740345Y-83295977D01*
X139912402Y-83410941D01*
X140103580Y-83490130D01*
X140287899Y-83526793D01*
X140306530Y-83530499D01*
X140306534Y-83530500D01*
X140306535Y-83530500D01*
X140513466Y-83530500D01*
X140513467Y-83530499D01*
X140716420Y-83490130D01*
X140907598Y-83410941D01*
X141079655Y-83295977D01*
X141225977Y-83149655D01*
X141340941Y-82977598D01*
X141345220Y-82967268D01*
X141619500Y-82967268D01*
X141619500Y-82967273D01*
X141619500Y-83072727D01*
X141628038Y-83104589D01*
X141646793Y-83174586D01*
X141646794Y-83174589D01*
X141660922Y-83199059D01*
X141699520Y-83265913D01*
X141774087Y-83340480D01*
X141865413Y-83393207D01*
X141967273Y-83420500D01*
X141967275Y-83420500D01*
X142072725Y-83420500D01*
X142072727Y-83420500D01*
X142174587Y-83393207D01*
X142265913Y-83340480D01*
X142340480Y-83265913D01*
X142393207Y-83174587D01*
X142420500Y-83072727D01*
X142420500Y-82967273D01*
X142393207Y-82865413D01*
X142340480Y-82774087D01*
X142265913Y-82699520D01*
X142259355Y-82695734D01*
X145789500Y-82695734D01*
X145789500Y-82801188D01*
X145816793Y-82903048D01*
X145869520Y-82994374D01*
X145944087Y-83068941D01*
X145957369Y-83076609D01*
X146005581Y-83127171D01*
X146018806Y-83195778D01*
X145992839Y-83260644D01*
X145983051Y-83271673D01*
X145971310Y-83283414D01*
X145918584Y-83374737D01*
X145918583Y-83374740D01*
X145891290Y-83476600D01*
X145891290Y-83582054D01*
X145918583Y-83683914D01*
X145954089Y-83745413D01*
X145971311Y-83775241D01*
X145995832Y-83799762D01*
X146029317Y-83861085D01*
X146024333Y-83930777D01*
X145991395Y-83975334D01*
X145993203Y-83977142D01*
X145912890Y-84057454D01*
X145860163Y-84148779D01*
X145860162Y-84148782D01*
X145832869Y-84250642D01*
X145832869Y-84356096D01*
X145860162Y-84457956D01*
X145912889Y-84549282D01*
X145987456Y-84623849D01*
X146078782Y-84676576D01*
X146180642Y-84703869D01*
X146180644Y-84703869D01*
X146286094Y-84703869D01*
X146286096Y-84703869D01*
X146387956Y-84676576D01*
X146479282Y-84623849D01*
X146553849Y-84549282D01*
X146606576Y-84457956D01*
X146633869Y-84356096D01*
X146633869Y-84250642D01*
X146606576Y-84148782D01*
X146553849Y-84057456D01*
X146529326Y-84032933D01*
X146495841Y-83971610D01*
X146500825Y-83901918D01*
X146527423Y-83859516D01*
X146535494Y-83851081D01*
X146537703Y-83849807D01*
X146540237Y-83847273D01*
X159623500Y-83847273D01*
X159623500Y-83952727D01*
X159650793Y-84054587D01*
X159703520Y-84145913D01*
X159778087Y-84220480D01*
X159869413Y-84273207D01*
X159971273Y-84300500D01*
X159971275Y-84300500D01*
X160076725Y-84300500D01*
X160076727Y-84300500D01*
X160178587Y-84273207D01*
X160269913Y-84220480D01*
X160344480Y-84145913D01*
X160397207Y-84054587D01*
X160424500Y-83952727D01*
X160424500Y-83847273D01*
X160397207Y-83745413D01*
X160344480Y-83654087D01*
X160316923Y-83626530D01*
X183634500Y-83626530D01*
X183634500Y-83833469D01*
X183674868Y-84036412D01*
X183674870Y-84036420D01*
X183753725Y-84226793D01*
X183754059Y-84227598D01*
X183784533Y-84273206D01*
X183869024Y-84399657D01*
X184015342Y-84545975D01*
X184015345Y-84545977D01*
X184187402Y-84660941D01*
X184378580Y-84740130D01*
X184557871Y-84775793D01*
X184581530Y-84780499D01*
X184581534Y-84780500D01*
X184581535Y-84780500D01*
X185038466Y-84780500D01*
X185038467Y-84780499D01*
X185241420Y-84740130D01*
X185432598Y-84660941D01*
X185604655Y-84545977D01*
X185750977Y-84399655D01*
X185865941Y-84227598D01*
X185945130Y-84036420D01*
X185985500Y-83833465D01*
X185985500Y-83626535D01*
X185945130Y-83423580D01*
X185865941Y-83232402D01*
X185750977Y-83060345D01*
X185750975Y-83060342D01*
X185604657Y-82914024D01*
X185435784Y-82801188D01*
X185432598Y-82799059D01*
X185340327Y-82760839D01*
X185241420Y-82719870D01*
X185241412Y-82719868D01*
X185038469Y-82679500D01*
X185038465Y-82679500D01*
X184581535Y-82679500D01*
X184581530Y-82679500D01*
X184378587Y-82719868D01*
X184378579Y-82719870D01*
X184187403Y-82799058D01*
X184015342Y-82914024D01*
X183869024Y-83060342D01*
X183754058Y-83232403D01*
X183674870Y-83423579D01*
X183674868Y-83423587D01*
X183634500Y-83626530D01*
X160316923Y-83626530D01*
X160269913Y-83579520D01*
X160178587Y-83526793D01*
X160076727Y-83499500D01*
X159971273Y-83499500D01*
X159869413Y-83526793D01*
X159869410Y-83526794D01*
X159778085Y-83579521D01*
X159703521Y-83654085D01*
X159650794Y-83745410D01*
X159650793Y-83745413D01*
X159623500Y-83847273D01*
X146540237Y-83847273D01*
X146612270Y-83775240D01*
X146664997Y-83683914D01*
X146692290Y-83582054D01*
X146692290Y-83476600D01*
X146664997Y-83374740D01*
X146612270Y-83283414D01*
X146537703Y-83208847D01*
X146524420Y-83201178D01*
X146476207Y-83150614D01*
X146462983Y-83082007D01*
X146476952Y-83035549D01*
X146485646Y-83019207D01*
X146510480Y-82994374D01*
X146563207Y-82903048D01*
X146564754Y-82897273D01*
X161024500Y-82897273D01*
X161024500Y-83002727D01*
X161051793Y-83104587D01*
X161104520Y-83195913D01*
X161179087Y-83270480D01*
X161270413Y-83323207D01*
X161372273Y-83350500D01*
X161372275Y-83350500D01*
X161477725Y-83350500D01*
X161477727Y-83350500D01*
X161579587Y-83323207D01*
X161670913Y-83270480D01*
X161745480Y-83195913D01*
X161798207Y-83104587D01*
X161825500Y-83002727D01*
X161825500Y-82897273D01*
X161798207Y-82795413D01*
X161745480Y-82704087D01*
X161670913Y-82629520D01*
X161591150Y-82583469D01*
X161579589Y-82576794D01*
X161579588Y-82576793D01*
X161579587Y-82576793D01*
X161477727Y-82549500D01*
X161372273Y-82549500D01*
X161270413Y-82576793D01*
X161270410Y-82576794D01*
X161179085Y-82629521D01*
X161104521Y-82704085D01*
X161051794Y-82795410D01*
X161051793Y-82795413D01*
X161024500Y-82897273D01*
X146564754Y-82897273D01*
X146590500Y-82801188D01*
X146590500Y-82695734D01*
X146563207Y-82593874D01*
X146510480Y-82502548D01*
X146435913Y-82427981D01*
X146344587Y-82375254D01*
X146242727Y-82347961D01*
X146137273Y-82347961D01*
X146035413Y-82375254D01*
X146035410Y-82375255D01*
X145944085Y-82427982D01*
X145869521Y-82502546D01*
X145816794Y-82593871D01*
X145816793Y-82593874D01*
X145789500Y-82695734D01*
X142259355Y-82695734D01*
X142174587Y-82646793D01*
X142072727Y-82619500D01*
X141967273Y-82619500D01*
X141865413Y-82646793D01*
X141865410Y-82646794D01*
X141774085Y-82699521D01*
X141699520Y-82774086D01*
X141658435Y-82845245D01*
X141658432Y-82845253D01*
X141646793Y-82865413D01*
X141631155Y-82923772D01*
X141631149Y-82923792D01*
X141619500Y-82967268D01*
X141345220Y-82967268D01*
X141420130Y-82786420D01*
X141460500Y-82583465D01*
X141460500Y-82376535D01*
X141420130Y-82173580D01*
X141340941Y-81982402D01*
X141225977Y-81810345D01*
X141225975Y-81810342D01*
X141079657Y-81664024D01*
X140966593Y-81588478D01*
X140907598Y-81549059D01*
X140805605Y-81506812D01*
X140716420Y-81469870D01*
X140716412Y-81469868D01*
X140513469Y-81429500D01*
X140513465Y-81429500D01*
X140306535Y-81429500D01*
X140306530Y-81429500D01*
X140103587Y-81469868D01*
X140103579Y-81469870D01*
X139912403Y-81549058D01*
X139740342Y-81664024D01*
X139594024Y-81810342D01*
X139479058Y-81982403D01*
X139399870Y-82173579D01*
X139399868Y-82173587D01*
X139359500Y-82376530D01*
X137070500Y-82376530D01*
X137070500Y-82276535D01*
X137030130Y-82073580D01*
X136950941Y-81882402D01*
X136835977Y-81710345D01*
X136835975Y-81710342D01*
X136689657Y-81564024D01*
X136529891Y-81457273D01*
X136517598Y-81449059D01*
X136453689Y-81422587D01*
X136326420Y-81369870D01*
X136326412Y-81369868D01*
X136123468Y-81329500D01*
X136123465Y-81329500D01*
X135916535Y-81329500D01*
X135916530Y-81329500D01*
X135713587Y-81369868D01*
X135713579Y-81369870D01*
X135522403Y-81449058D01*
X135350342Y-81564024D01*
X135204024Y-81710342D01*
X135089058Y-81882403D01*
X135009870Y-82073579D01*
X135009868Y-82073587D01*
X134969500Y-82276530D01*
X133560500Y-82276530D01*
X133560500Y-81215273D01*
X142049500Y-81215273D01*
X142049500Y-81320727D01*
X142076793Y-81422587D01*
X142129520Y-81513913D01*
X142204087Y-81588480D01*
X142295413Y-81641207D01*
X142397273Y-81668500D01*
X142397275Y-81668500D01*
X142502725Y-81668500D01*
X142502727Y-81668500D01*
X142604587Y-81641207D01*
X142695913Y-81588480D01*
X142770480Y-81513913D01*
X142803181Y-81457273D01*
X154399500Y-81457273D01*
X154399500Y-81562727D01*
X154420529Y-81641207D01*
X154426793Y-81664586D01*
X154426794Y-81664589D01*
X154429052Y-81668500D01*
X154479520Y-81755913D01*
X154554087Y-81830480D01*
X154645413Y-81883207D01*
X154747273Y-81910500D01*
X154747275Y-81910500D01*
X154852725Y-81910500D01*
X154852727Y-81910500D01*
X154954587Y-81883207D01*
X155045913Y-81830480D01*
X155049102Y-81827291D01*
X178321982Y-81827291D01*
X178321982Y-81932745D01*
X178349275Y-82034605D01*
X178402002Y-82125931D01*
X178476569Y-82200498D01*
X178567895Y-82253225D01*
X178669755Y-82280518D01*
X178669757Y-82280518D01*
X178775207Y-82280518D01*
X178775209Y-82280518D01*
X178877069Y-82253225D01*
X178968395Y-82200498D01*
X179042962Y-82125931D01*
X179095689Y-82034605D01*
X179122982Y-81932745D01*
X179122982Y-81827291D01*
X179095689Y-81725431D01*
X179042962Y-81634105D01*
X178968395Y-81559538D01*
X178877069Y-81506811D01*
X178775209Y-81479518D01*
X178669755Y-81479518D01*
X178567895Y-81506811D01*
X178567892Y-81506812D01*
X178476567Y-81559539D01*
X178402003Y-81634103D01*
X178349276Y-81725428D01*
X178349275Y-81725431D01*
X178321982Y-81827291D01*
X155049102Y-81827291D01*
X155120480Y-81755913D01*
X155173207Y-81664587D01*
X155200500Y-81562727D01*
X155200500Y-81457273D01*
X155173207Y-81355413D01*
X155120480Y-81264087D01*
X155045913Y-81189520D01*
X154954587Y-81136793D01*
X154852727Y-81109500D01*
X154747273Y-81109500D01*
X154645413Y-81136793D01*
X154645410Y-81136794D01*
X154554085Y-81189521D01*
X154479521Y-81264085D01*
X154426794Y-81355410D01*
X154426793Y-81355413D01*
X154399500Y-81457273D01*
X142803181Y-81457273D01*
X142823207Y-81422587D01*
X142850500Y-81320727D01*
X142850500Y-81215273D01*
X142823207Y-81113413D01*
X142770480Y-81022087D01*
X142695913Y-80947520D01*
X142604587Y-80894793D01*
X142502727Y-80867500D01*
X142397273Y-80867500D01*
X142295413Y-80894793D01*
X142295410Y-80894794D01*
X142204085Y-80947521D01*
X142129521Y-81022085D01*
X142076794Y-81113410D01*
X142076793Y-81113413D01*
X142049500Y-81215273D01*
X133560500Y-81215273D01*
X133560500Y-79672273D01*
X155719500Y-79672273D01*
X155719500Y-79777727D01*
X155746793Y-79879587D01*
X155799520Y-79970913D01*
X155874087Y-80045480D01*
X155965413Y-80098207D01*
X156067273Y-80125500D01*
X156067275Y-80125500D01*
X156180854Y-80125500D01*
X156180854Y-80127341D01*
X156239762Y-80136520D01*
X156292023Y-80182894D01*
X156310916Y-80250161D01*
X156303283Y-80287397D01*
X156303897Y-80287562D01*
X156301793Y-80295411D01*
X156301793Y-80295413D01*
X156274500Y-80397273D01*
X156274500Y-80502727D01*
X156301793Y-80604587D01*
X156354520Y-80695913D01*
X156429087Y-80770480D01*
X156520413Y-80823207D01*
X156622273Y-80850500D01*
X156622275Y-80850500D01*
X156727725Y-80850500D01*
X156727727Y-80850500D01*
X156829587Y-80823207D01*
X156920913Y-80770480D01*
X156995480Y-80695913D01*
X157018521Y-80656005D01*
X158040768Y-80656005D01*
X158040768Y-80761459D01*
X158068061Y-80863319D01*
X158120788Y-80954645D01*
X158195355Y-81029212D01*
X158286681Y-81081939D01*
X158388541Y-81109232D01*
X158388543Y-81109232D01*
X158493993Y-81109232D01*
X158493995Y-81109232D01*
X158595855Y-81081939D01*
X158687181Y-81029212D01*
X158761748Y-80954645D01*
X158814475Y-80863319D01*
X158818774Y-80847273D01*
X178937000Y-80847273D01*
X178937000Y-80952727D01*
X178957494Y-81029210D01*
X178964293Y-81054586D01*
X178964294Y-81054589D01*
X178966519Y-81058442D01*
X179017020Y-81145913D01*
X179091587Y-81220480D01*
X179182913Y-81273207D01*
X179284773Y-81300500D01*
X179284775Y-81300500D01*
X179390225Y-81300500D01*
X179390227Y-81300500D01*
X179492087Y-81273207D01*
X179583413Y-81220480D01*
X179657980Y-81145913D01*
X179669171Y-81126530D01*
X183634500Y-81126530D01*
X183634500Y-81333469D01*
X183674868Y-81536412D01*
X183674870Y-81536420D01*
X183746912Y-81710345D01*
X183754059Y-81727598D01*
X183809346Y-81810342D01*
X183869024Y-81899657D01*
X184015342Y-82045975D01*
X184015345Y-82045977D01*
X184187402Y-82160941D01*
X184378580Y-82240130D01*
X184581530Y-82280499D01*
X184581534Y-82280500D01*
X184581535Y-82280500D01*
X185038466Y-82280500D01*
X185038467Y-82280499D01*
X185241420Y-82240130D01*
X185432598Y-82160941D01*
X185604655Y-82045977D01*
X185750977Y-81899655D01*
X185865941Y-81727598D01*
X185945130Y-81536420D01*
X185985500Y-81333465D01*
X185985500Y-81126535D01*
X185945130Y-80923580D01*
X185865941Y-80732402D01*
X185750977Y-80560345D01*
X185750975Y-80560342D01*
X185604657Y-80414024D01*
X185487175Y-80335526D01*
X185432598Y-80299059D01*
X185241420Y-80219870D01*
X185241412Y-80219868D01*
X185038469Y-80179500D01*
X185038465Y-80179500D01*
X184581535Y-80179500D01*
X184581530Y-80179500D01*
X184378587Y-80219868D01*
X184378579Y-80219870D01*
X184187403Y-80299058D01*
X184015342Y-80414024D01*
X183869024Y-80560342D01*
X183754058Y-80732403D01*
X183674870Y-80923579D01*
X183674868Y-80923587D01*
X183634500Y-81126530D01*
X179669171Y-81126530D01*
X179710707Y-81054587D01*
X179738000Y-80952727D01*
X179738000Y-80847273D01*
X179710707Y-80745413D01*
X179657980Y-80654087D01*
X179583413Y-80579520D01*
X179492087Y-80526793D01*
X179390227Y-80499500D01*
X179284773Y-80499500D01*
X179182913Y-80526793D01*
X179182910Y-80526794D01*
X179091585Y-80579521D01*
X179017021Y-80654085D01*
X178964294Y-80745410D01*
X178964293Y-80745413D01*
X178937000Y-80847273D01*
X158818774Y-80847273D01*
X158841768Y-80761459D01*
X158841768Y-80656005D01*
X158814475Y-80554145D01*
X158761748Y-80462819D01*
X158687181Y-80388252D01*
X158595855Y-80335525D01*
X158493995Y-80308232D01*
X158388541Y-80308232D01*
X158286681Y-80335525D01*
X158286678Y-80335526D01*
X158195353Y-80388253D01*
X158120789Y-80462817D01*
X158068062Y-80554142D01*
X158068061Y-80554145D01*
X158040768Y-80656005D01*
X157018521Y-80656005D01*
X157048207Y-80604587D01*
X157075500Y-80502727D01*
X157075500Y-80397273D01*
X157048207Y-80295413D01*
X156995480Y-80204087D01*
X156988666Y-80197273D01*
X160499500Y-80197273D01*
X160499500Y-80302727D01*
X160526793Y-80404587D01*
X160579520Y-80495913D01*
X160654087Y-80570480D01*
X160745413Y-80623207D01*
X160847273Y-80650500D01*
X160847275Y-80650500D01*
X160952725Y-80650500D01*
X160952727Y-80650500D01*
X161054587Y-80623207D01*
X161145913Y-80570480D01*
X161220480Y-80495913D01*
X161273207Y-80404587D01*
X161300500Y-80302727D01*
X161300500Y-80197273D01*
X161273207Y-80095413D01*
X161220480Y-80004087D01*
X161145913Y-79929520D01*
X161059430Y-79879589D01*
X161054589Y-79876794D01*
X161054588Y-79876793D01*
X161054587Y-79876793D01*
X160952727Y-79849500D01*
X160847273Y-79849500D01*
X160745413Y-79876793D01*
X160745410Y-79876794D01*
X160654085Y-79929521D01*
X160579521Y-80004085D01*
X160526794Y-80095410D01*
X160526793Y-80095413D01*
X160499500Y-80197273D01*
X156988666Y-80197273D01*
X156920913Y-80129520D01*
X156829587Y-80076793D01*
X156727727Y-80049500D01*
X156622273Y-80049500D01*
X156614146Y-80049500D01*
X156614146Y-80047662D01*
X156555217Y-80038469D01*
X156502964Y-79992086D01*
X156484083Y-79924816D01*
X156491718Y-79887602D01*
X156491103Y-79887438D01*
X156493955Y-79876794D01*
X156520500Y-79777727D01*
X156520500Y-79672273D01*
X156493207Y-79570413D01*
X156440480Y-79479087D01*
X156365913Y-79404520D01*
X156274587Y-79351793D01*
X156172727Y-79324500D01*
X156067273Y-79324500D01*
X155965413Y-79351793D01*
X155965410Y-79351794D01*
X155874085Y-79404521D01*
X155799521Y-79479085D01*
X155746794Y-79570410D01*
X155746793Y-79570413D01*
X155719500Y-79672273D01*
X133560500Y-79672273D01*
X133560500Y-78556273D01*
X154738758Y-78556273D01*
X154738758Y-78661727D01*
X154766051Y-78763587D01*
X154818778Y-78854913D01*
X154893345Y-78929480D01*
X154984671Y-78982207D01*
X155086531Y-79009500D01*
X155086533Y-79009500D01*
X155191983Y-79009500D01*
X155191985Y-79009500D01*
X155293845Y-78982207D01*
X155371670Y-78937275D01*
X156669938Y-78937275D01*
X156669938Y-79042729D01*
X156697231Y-79144589D01*
X156749958Y-79235915D01*
X156824525Y-79310482D01*
X156915851Y-79363209D01*
X157017711Y-79390502D01*
X157017713Y-79390502D01*
X157123163Y-79390502D01*
X157123165Y-79390502D01*
X157225025Y-79363209D01*
X157316351Y-79310482D01*
X157390918Y-79235915D01*
X157443645Y-79144589D01*
X157470938Y-79042729D01*
X157470938Y-78937275D01*
X157443645Y-78835415D01*
X157390918Y-78744089D01*
X157316351Y-78669522D01*
X157241895Y-78626535D01*
X157241886Y-78626530D01*
X183634500Y-78626530D01*
X183634500Y-78833469D01*
X183655149Y-78937277D01*
X183674870Y-79036420D01*
X183754059Y-79227598D01*
X183759617Y-79235916D01*
X183869024Y-79399657D01*
X184015342Y-79545975D01*
X184015345Y-79545977D01*
X184187402Y-79660941D01*
X184378580Y-79740130D01*
X184567584Y-79777725D01*
X184581530Y-79780499D01*
X184581534Y-79780500D01*
X184581535Y-79780500D01*
X185038466Y-79780500D01*
X185038467Y-79780499D01*
X185241420Y-79740130D01*
X185432598Y-79660941D01*
X185604655Y-79545977D01*
X185750977Y-79399655D01*
X185865941Y-79227598D01*
X185945130Y-79036420D01*
X185985500Y-78833465D01*
X185985500Y-78626535D01*
X185945130Y-78423580D01*
X185865941Y-78232402D01*
X185750977Y-78060345D01*
X185750975Y-78060342D01*
X185604657Y-77914024D01*
X185442857Y-77805914D01*
X185432598Y-77799059D01*
X185312805Y-77749439D01*
X185241420Y-77719870D01*
X185241412Y-77719868D01*
X185038469Y-77679500D01*
X185038465Y-77679500D01*
X184581535Y-77679500D01*
X184581530Y-77679500D01*
X184378587Y-77719868D01*
X184378579Y-77719870D01*
X184187403Y-77799058D01*
X184015342Y-77914024D01*
X183869024Y-78060342D01*
X183754058Y-78232403D01*
X183674870Y-78423579D01*
X183674868Y-78423587D01*
X183634500Y-78626530D01*
X157241886Y-78626530D01*
X157225027Y-78616796D01*
X157225026Y-78616795D01*
X157225025Y-78616795D01*
X157123165Y-78589502D01*
X157017711Y-78589502D01*
X156915851Y-78616795D01*
X156915848Y-78616796D01*
X156824523Y-78669523D01*
X156749959Y-78744087D01*
X156697232Y-78835412D01*
X156697231Y-78835415D01*
X156669938Y-78937275D01*
X155371670Y-78937275D01*
X155385171Y-78929480D01*
X155459738Y-78854913D01*
X155512465Y-78763587D01*
X155539758Y-78661727D01*
X155539758Y-78556273D01*
X155512465Y-78454413D01*
X155459738Y-78363087D01*
X155385171Y-78288520D01*
X155293845Y-78235793D01*
X155191985Y-78208500D01*
X155086531Y-78208500D01*
X154984671Y-78235793D01*
X154984668Y-78235794D01*
X154893343Y-78288521D01*
X154818779Y-78363085D01*
X154766052Y-78454410D01*
X154766051Y-78454413D01*
X154738758Y-78556273D01*
X133560500Y-78556273D01*
X133560500Y-77196530D01*
X134969500Y-77196530D01*
X134969500Y-77403469D01*
X135009868Y-77606412D01*
X135009870Y-77606420D01*
X135080415Y-77776731D01*
X135089059Y-77797598D01*
X135094615Y-77805913D01*
X135204024Y-77969657D01*
X135350342Y-78115975D01*
X135350345Y-78115977D01*
X135522402Y-78230941D01*
X135713580Y-78310130D01*
X135916530Y-78350499D01*
X135916534Y-78350500D01*
X135916535Y-78350500D01*
X136123466Y-78350500D01*
X136123467Y-78350499D01*
X136326420Y-78310130D01*
X136517598Y-78230941D01*
X136689655Y-78115977D01*
X136835977Y-77969655D01*
X136950941Y-77797598D01*
X137030130Y-77606420D01*
X137070500Y-77403465D01*
X137070500Y-77296530D01*
X139359500Y-77296530D01*
X139359500Y-77503469D01*
X139399868Y-77706412D01*
X139399870Y-77706420D01*
X139471967Y-77880478D01*
X139479059Y-77897598D01*
X139527206Y-77969655D01*
X139594024Y-78069657D01*
X139740342Y-78215975D01*
X139740345Y-78215977D01*
X139912402Y-78330941D01*
X140103580Y-78410130D01*
X140306530Y-78450499D01*
X140306534Y-78450500D01*
X140306535Y-78450500D01*
X140513466Y-78450500D01*
X140513467Y-78450499D01*
X140545233Y-78444180D01*
X140633979Y-78426529D01*
X140674473Y-78418473D01*
X140716420Y-78410130D01*
X140907598Y-78330941D01*
X141079655Y-78215977D01*
X141225977Y-78069655D01*
X141340941Y-77897598D01*
X141420130Y-77706420D01*
X141459743Y-77507273D01*
X148479500Y-77507273D01*
X148479500Y-77612727D01*
X148506793Y-77714587D01*
X148559520Y-77805913D01*
X148634087Y-77880480D01*
X148725413Y-77933207D01*
X148827273Y-77960500D01*
X148827275Y-77960500D01*
X148932725Y-77960500D01*
X148932727Y-77960500D01*
X149034587Y-77933207D01*
X149125913Y-77880480D01*
X149200480Y-77805913D01*
X149253207Y-77714587D01*
X149273727Y-77638004D01*
X149310091Y-77578345D01*
X149372937Y-77547816D01*
X149393501Y-77546099D01*
X149439605Y-77546099D01*
X149439607Y-77546099D01*
X149541467Y-77518806D01*
X149632793Y-77466079D01*
X149707360Y-77391512D01*
X149746624Y-77323505D01*
X150065732Y-77323505D01*
X150065732Y-77428959D01*
X150093025Y-77530819D01*
X150145752Y-77622145D01*
X150220319Y-77696712D01*
X150311645Y-77749439D01*
X150413505Y-77776732D01*
X150413507Y-77776732D01*
X150518957Y-77776732D01*
X150518959Y-77776732D01*
X150620819Y-77749439D01*
X150712145Y-77696712D01*
X150786712Y-77622145D01*
X150839439Y-77530819D01*
X150866732Y-77428959D01*
X150866732Y-77323505D01*
X150839439Y-77221645D01*
X150786712Y-77130319D01*
X150712145Y-77055752D01*
X150620819Y-77003025D01*
X150518959Y-76975732D01*
X150413505Y-76975732D01*
X150311645Y-77003025D01*
X150311642Y-77003026D01*
X150220317Y-77055753D01*
X150145753Y-77130317D01*
X150093026Y-77221642D01*
X150093025Y-77221645D01*
X150065732Y-77323505D01*
X149746624Y-77323505D01*
X149760087Y-77300186D01*
X149787380Y-77198326D01*
X149787380Y-77092872D01*
X149760087Y-76991012D01*
X149707360Y-76899686D01*
X149632793Y-76825119D01*
X149541467Y-76772392D01*
X149439607Y-76745099D01*
X149334153Y-76745099D01*
X149232293Y-76772392D01*
X149232290Y-76772393D01*
X149140965Y-76825120D01*
X149066401Y-76899684D01*
X149013674Y-76991009D01*
X149013673Y-76991012D01*
X148993152Y-77067594D01*
X148956789Y-77127254D01*
X148893943Y-77157783D01*
X148873379Y-77159500D01*
X148827273Y-77159500D01*
X148725413Y-77186793D01*
X148725410Y-77186794D01*
X148634085Y-77239521D01*
X148559521Y-77314085D01*
X148506794Y-77405410D01*
X148506793Y-77405413D01*
X148479500Y-77507273D01*
X141459743Y-77507273D01*
X141460500Y-77503465D01*
X141460500Y-77296535D01*
X141420130Y-77093580D01*
X141340941Y-76902402D01*
X141225977Y-76730345D01*
X141225975Y-76730342D01*
X141216906Y-76721273D01*
X141603050Y-76721273D01*
X141603050Y-76826727D01*
X141630343Y-76928587D01*
X141683070Y-77019913D01*
X141757637Y-77094480D01*
X141848963Y-77147207D01*
X141950823Y-77174500D01*
X141950825Y-77174500D01*
X142056275Y-77174500D01*
X142056277Y-77174500D01*
X142158137Y-77147207D01*
X142249463Y-77094480D01*
X142324030Y-77019913D01*
X142376757Y-76928587D01*
X142404050Y-76826727D01*
X142404050Y-76721273D01*
X142376757Y-76619413D01*
X142324030Y-76528087D01*
X142249463Y-76453520D01*
X142158137Y-76400793D01*
X142056277Y-76373500D01*
X141950823Y-76373500D01*
X141848963Y-76400793D01*
X141848960Y-76400794D01*
X141757635Y-76453521D01*
X141683071Y-76528085D01*
X141630344Y-76619410D01*
X141630343Y-76619413D01*
X141603050Y-76721273D01*
X141216906Y-76721273D01*
X141079657Y-76584024D01*
X140993626Y-76526541D01*
X140907598Y-76469059D01*
X140870086Y-76453521D01*
X140716420Y-76389870D01*
X140716412Y-76389868D01*
X140513469Y-76349500D01*
X140513465Y-76349500D01*
X140306535Y-76349500D01*
X140306530Y-76349500D01*
X140103587Y-76389868D01*
X140103579Y-76389870D01*
X139912403Y-76469058D01*
X139740342Y-76584024D01*
X139594024Y-76730342D01*
X139479058Y-76902403D01*
X139399870Y-77093579D01*
X139399868Y-77093587D01*
X139359500Y-77296530D01*
X137070500Y-77296530D01*
X137070500Y-77196535D01*
X137030130Y-76993580D01*
X136950941Y-76802402D01*
X136835977Y-76630345D01*
X136835975Y-76630342D01*
X136689657Y-76484024D01*
X136565093Y-76400794D01*
X136517598Y-76369059D01*
X136326420Y-76289870D01*
X136326412Y-76289868D01*
X136123469Y-76249500D01*
X136123465Y-76249500D01*
X135916535Y-76249500D01*
X135916530Y-76249500D01*
X135713587Y-76289868D01*
X135713579Y-76289870D01*
X135522403Y-76369058D01*
X135350342Y-76484024D01*
X135204024Y-76630342D01*
X135089058Y-76802403D01*
X135009870Y-76993579D01*
X135009868Y-76993587D01*
X134969500Y-77196530D01*
X133560500Y-77196530D01*
X133560500Y-74392273D01*
X151799500Y-74392273D01*
X151799500Y-74497727D01*
X151826793Y-74599587D01*
X151879520Y-74690913D01*
X151954087Y-74765480D01*
X152045413Y-74818207D01*
X152147273Y-74845500D01*
X152147275Y-74845500D01*
X152252725Y-74845500D01*
X152252727Y-74845500D01*
X152354587Y-74818207D01*
X152445913Y-74765480D01*
X152520480Y-74690913D01*
X152573207Y-74599587D01*
X152600500Y-74497727D01*
X152600500Y-74392273D01*
X152573207Y-74290413D01*
X152534923Y-74224103D01*
X157730207Y-74224103D01*
X157730207Y-74329557D01*
X157757500Y-74431417D01*
X157810227Y-74522743D01*
X157884794Y-74597310D01*
X157976120Y-74650037D01*
X158077980Y-74677330D01*
X158077982Y-74677330D01*
X158183432Y-74677330D01*
X158183434Y-74677330D01*
X158285294Y-74650037D01*
X158376620Y-74597310D01*
X158451187Y-74522743D01*
X158503914Y-74431417D01*
X158531207Y-74329557D01*
X158531207Y-74224103D01*
X158503914Y-74122243D01*
X158451187Y-74030917D01*
X158376620Y-73956350D01*
X158285294Y-73903623D01*
X158183434Y-73876330D01*
X158077980Y-73876330D01*
X157976120Y-73903623D01*
X157976117Y-73903624D01*
X157884792Y-73956351D01*
X157810228Y-74030915D01*
X157757501Y-74122240D01*
X157757500Y-74122243D01*
X157730207Y-74224103D01*
X152534923Y-74224103D01*
X152520480Y-74199087D01*
X152445913Y-74124520D01*
X152354587Y-74071793D01*
X152252727Y-74044500D01*
X152147273Y-74044500D01*
X152045413Y-74071793D01*
X152045410Y-74071794D01*
X151954085Y-74124521D01*
X151879521Y-74199085D01*
X151826794Y-74290410D01*
X151826793Y-74290413D01*
X151799500Y-74392273D01*
X133560500Y-74392273D01*
X133560500Y-73701920D01*
X147764751Y-73701920D01*
X147764751Y-73807374D01*
X147792044Y-73909234D01*
X147844771Y-74000560D01*
X147919338Y-74075127D01*
X148010664Y-74127854D01*
X148112524Y-74155147D01*
X148112526Y-74155147D01*
X148217976Y-74155147D01*
X148217978Y-74155147D01*
X148319838Y-74127854D01*
X148411164Y-74075127D01*
X148485731Y-74000560D01*
X148538458Y-73909234D01*
X148565751Y-73807374D01*
X148565751Y-73701920D01*
X148538458Y-73600060D01*
X148485731Y-73508734D01*
X148411164Y-73434167D01*
X148319838Y-73381440D01*
X148217978Y-73354147D01*
X148112524Y-73354147D01*
X148010664Y-73381440D01*
X148010661Y-73381441D01*
X147919336Y-73434168D01*
X147844772Y-73508732D01*
X147792045Y-73600057D01*
X147792044Y-73600060D01*
X147764751Y-73701920D01*
X133560500Y-73701920D01*
X133560500Y-71073051D01*
X133560649Y-71066967D01*
X133570429Y-70867880D01*
X133577052Y-70733068D01*
X133578245Y-70720962D01*
X133626849Y-70393296D01*
X133629218Y-70381385D01*
X133709710Y-70060043D01*
X133713240Y-70048411D01*
X133713693Y-70047145D01*
X133824835Y-69736525D01*
X133829476Y-69725318D01*
X133971124Y-69425828D01*
X133976840Y-69415136D01*
X134135318Y-69150730D01*
X154279500Y-69150730D01*
X154279500Y-70709269D01*
X154282353Y-70739699D01*
X154282353Y-70739701D01*
X154327206Y-70867880D01*
X154327207Y-70867882D01*
X154407850Y-70977150D01*
X154517118Y-71057793D01*
X154559845Y-71072744D01*
X154645299Y-71102646D01*
X154675730Y-71105500D01*
X154675734Y-71105500D01*
X155984270Y-71105500D01*
X156014699Y-71102646D01*
X156014701Y-71102646D01*
X156078790Y-71080219D01*
X156142882Y-71057793D01*
X156252150Y-70977150D01*
X156332793Y-70867882D01*
X156355219Y-70803790D01*
X156377646Y-70739701D01*
X156377646Y-70739699D01*
X156380500Y-70709269D01*
X156380500Y-69701530D01*
X156779500Y-69701530D01*
X156779500Y-70158469D01*
X156819868Y-70361412D01*
X156819870Y-70361420D01*
X156899058Y-70552596D01*
X157014024Y-70724657D01*
X157160342Y-70870975D01*
X157160345Y-70870977D01*
X157332402Y-70985941D01*
X157523580Y-71065130D01*
X157712187Y-71102646D01*
X157726530Y-71105499D01*
X157726534Y-71105500D01*
X157726535Y-71105500D01*
X157933466Y-71105500D01*
X157933467Y-71105499D01*
X158136420Y-71065130D01*
X158327598Y-70985941D01*
X158499655Y-70870977D01*
X158645977Y-70724655D01*
X158760941Y-70552598D01*
X158840130Y-70361420D01*
X158880500Y-70158465D01*
X158880500Y-69701535D01*
X158880499Y-69701530D01*
X159279500Y-69701530D01*
X159279500Y-70158469D01*
X159319868Y-70361412D01*
X159319870Y-70361420D01*
X159399058Y-70552596D01*
X159514024Y-70724657D01*
X159660342Y-70870975D01*
X159660345Y-70870977D01*
X159832402Y-70985941D01*
X160023580Y-71065130D01*
X160212187Y-71102646D01*
X160226530Y-71105499D01*
X160226534Y-71105500D01*
X160226535Y-71105500D01*
X160433466Y-71105500D01*
X160433467Y-71105499D01*
X160636420Y-71065130D01*
X160827598Y-70985941D01*
X160999655Y-70870977D01*
X161145977Y-70724655D01*
X161260941Y-70552598D01*
X161340130Y-70361420D01*
X161380500Y-70158465D01*
X161380500Y-69701535D01*
X161380499Y-69701530D01*
X161779500Y-69701530D01*
X161779500Y-70158469D01*
X161819868Y-70361412D01*
X161819870Y-70361420D01*
X161899058Y-70552596D01*
X162014024Y-70724657D01*
X162160342Y-70870975D01*
X162160345Y-70870977D01*
X162332402Y-70985941D01*
X162523580Y-71065130D01*
X162712187Y-71102646D01*
X162726530Y-71105499D01*
X162726534Y-71105500D01*
X162726535Y-71105500D01*
X162933466Y-71105500D01*
X162933467Y-71105499D01*
X163136420Y-71065130D01*
X163327598Y-70985941D01*
X163499655Y-70870977D01*
X163645977Y-70724655D01*
X163760941Y-70552598D01*
X163840130Y-70361420D01*
X163880500Y-70158465D01*
X163880500Y-69701535D01*
X163840130Y-69498580D01*
X163760941Y-69307402D01*
X163645977Y-69135345D01*
X163645975Y-69135342D01*
X163499657Y-68989024D01*
X163413626Y-68931541D01*
X163327598Y-68874059D01*
X163269372Y-68849941D01*
X163136420Y-68794870D01*
X163136412Y-68794868D01*
X162933469Y-68754500D01*
X162933465Y-68754500D01*
X162726535Y-68754500D01*
X162726530Y-68754500D01*
X162523587Y-68794868D01*
X162523579Y-68794870D01*
X162332403Y-68874058D01*
X162160342Y-68989024D01*
X162014024Y-69135342D01*
X161899058Y-69307403D01*
X161819870Y-69498579D01*
X161819868Y-69498587D01*
X161779500Y-69701530D01*
X161380499Y-69701530D01*
X161340130Y-69498580D01*
X161260941Y-69307402D01*
X161145977Y-69135345D01*
X161145975Y-69135342D01*
X160999657Y-68989024D01*
X160913626Y-68931541D01*
X160827598Y-68874059D01*
X160769372Y-68849941D01*
X160636420Y-68794870D01*
X160636412Y-68794868D01*
X160433469Y-68754500D01*
X160433465Y-68754500D01*
X160226535Y-68754500D01*
X160226530Y-68754500D01*
X160023587Y-68794868D01*
X160023579Y-68794870D01*
X159832403Y-68874058D01*
X159660342Y-68989024D01*
X159514024Y-69135342D01*
X159399058Y-69307403D01*
X159319870Y-69498579D01*
X159319868Y-69498587D01*
X159279500Y-69701530D01*
X158880499Y-69701530D01*
X158840130Y-69498580D01*
X158760941Y-69307402D01*
X158645977Y-69135345D01*
X158645975Y-69135342D01*
X158499657Y-68989024D01*
X158413626Y-68931541D01*
X158327598Y-68874059D01*
X158269372Y-68849941D01*
X158136420Y-68794870D01*
X158136412Y-68794868D01*
X157933469Y-68754500D01*
X157933465Y-68754500D01*
X157726535Y-68754500D01*
X157726530Y-68754500D01*
X157523587Y-68794868D01*
X157523579Y-68794870D01*
X157332403Y-68874058D01*
X157160342Y-68989024D01*
X157014024Y-69135342D01*
X156899058Y-69307403D01*
X156819870Y-69498579D01*
X156819868Y-69498587D01*
X156779500Y-69701530D01*
X156380500Y-69701530D01*
X156380500Y-69150730D01*
X156377646Y-69120300D01*
X156377646Y-69120298D01*
X156332793Y-68992119D01*
X156332792Y-68992117D01*
X156331171Y-68989920D01*
X156252150Y-68882850D01*
X156142882Y-68802207D01*
X156142880Y-68802206D01*
X156014700Y-68757353D01*
X155984270Y-68754500D01*
X155984266Y-68754500D01*
X154675734Y-68754500D01*
X154675730Y-68754500D01*
X154645300Y-68757353D01*
X154645298Y-68757353D01*
X154517119Y-68802206D01*
X154517117Y-68802207D01*
X154407850Y-68882850D01*
X154327207Y-68992117D01*
X154327206Y-68992119D01*
X154282353Y-69120298D01*
X154282353Y-69120300D01*
X154279500Y-69150730D01*
X134135318Y-69150730D01*
X134147145Y-69130998D01*
X134153888Y-69120905D01*
X134351232Y-68854818D01*
X134358935Y-68845433D01*
X134581405Y-68599975D01*
X134589975Y-68591405D01*
X134835433Y-68368935D01*
X134844818Y-68361232D01*
X135110905Y-68163888D01*
X135120998Y-68157145D01*
X135405136Y-67986840D01*
X135415828Y-67981124D01*
X135715318Y-67839476D01*
X135726525Y-67834835D01*
X136038412Y-67723239D01*
X136050043Y-67719710D01*
X136371385Y-67639218D01*
X136383296Y-67636849D01*
X136710962Y-67588244D01*
X136723068Y-67587052D01*
X137056967Y-67570648D01*
X137063051Y-67570500D01*
X137125892Y-67570500D01*
X143608927Y-67570500D01*
X143675966Y-67590185D01*
G37*
%TD.AperFunction*%
%TD*%
M02*
