M48
; DRILL file {KiCad 9.0.2} date 2025-10-13T17:24:35+0200
; FORMAT={-:-/ absolute / metric / decimal}
; #@! TF.CreationDate,2025-10-13T17:24:35+02:00
; #@! TF.GenerationSoftware,Kicad,Pcbnew,9.0.2
; #@! TF.FileFunction,Plated,1,4,PTH
FMAT,2
METRIC
; #@! TA.AperFunction,Plated,PTH,ViaDrill
T1C0.300
; #@! TA.AperFunction,Plated,PTH,ComponentDrill
T2C0.500
; #@! TA.AperFunction,Plated,PTH,ComponentDrill
T3C0.950
; #@! TA.AperFunction,Plated,PTH,ComponentDrill
T4C1.000
; #@! TA.AperFunction,Plated,PTH,ComponentDrill
T5C1.680
; #@! TA.AperFunction,Plated,PTH,ComponentDrill
T6C3.200
%
G90
G05
T1
X135.075Y-94.8
X136.4Y-94.85
X138.2Y-84.92
X138.2Y-101.835
X140.775Y-93.85
X142.004Y-76.774
X142.02Y-83.02
X142.425Y-80.2
X142.45Y-81.268
X142.8Y-87.1
X143.375Y-89.15
X143.725Y-84.6
X144.125Y-67.795
X144.7Y-100.7
X144.9Y-96.556
X146.19Y-82.748
X146.233Y-84.303
X146.292Y-83.529
X146.379Y-85.791
X147.0Y-92.8
X148.165Y-73.755
X148.678Y-86.642
X148.7Y-94.0
X148.88Y-77.56
X149.387Y-77.146
X149.5Y-92.6
X150.466Y-77.376
X150.66Y-82.26
X150.9Y-102.85
X150.975Y-88.425
X151.667Y-70.008
X151.7Y-90.7
X152.2Y-74.445
X152.734Y-88.666
X152.75Y-67.795
X153.41Y-101.9
X153.45Y-74.758
X153.779Y-86.452
X153.999Y-87.132
X154.55Y-89.35
X154.8Y-81.51
X155.125Y-88.825
X155.139Y-78.609
X156.12Y-79.725
X156.176Y-82.426
X156.225Y-87.725
X156.625Y-86.65
X156.675Y-80.45
X157.07Y-78.99
X157.3Y-89.875
X157.4Y-74.29
X157.7Y-95.0
X157.891Y-80.159
X158.131Y-74.277
X158.17Y-91.42
X158.3Y-93.57
X158.3Y-96.7
X158.441Y-80.709
X158.934Y-85.149
X159.025Y-98.1
X159.8Y-95.2
X160.024Y-83.9
X160.025Y-83.0
X160.2Y-104.9
X160.275Y-85.488
X160.6Y-100.0
X160.8Y-104.9
X160.9Y-80.25
X161.4Y-104.9
X161.425Y-82.95
X162.549Y-94.4
X163.863Y-90.954
X163.867Y-90.182
X164.2Y-113.2
X164.775Y-85.35
X164.924Y-91.635
X165.48Y-110.8
X165.54Y-109.6
X165.976Y-88.724
X166.1Y-118.7
X167.025Y-68.975
X171.975Y-85.775
X173.7Y-98.075
X175.01Y-86.26
X177.0Y-101.6
X177.0Y-102.6
X177.0Y-103.6
X177.25Y-83.38
X177.25Y-84.38
X177.25Y-85.38
X177.27Y-79.37
X177.8Y-106.2
X178.1Y-87.9
X178.4Y-100.1
X178.4Y-103.5
X178.452Y-102.62
X178.46Y-96.76
X178.5Y-101.6
X178.65Y-85.28
X178.702Y-84.4
X178.722Y-81.88
X178.75Y-83.38
X179.088Y-99.1
X179.338Y-80.9
X179.9Y-101.6
X179.9Y-102.6
X179.9Y-103.6
X180.15Y-83.38
X180.15Y-84.38
X180.15Y-85.38
X181.63Y-105.48
X181.7Y-107.95
X181.81Y-87.17
T2
X134.6Y-71.0
X134.6Y-120.0
X135.303Y-69.303
X135.303Y-72.697
X135.303Y-118.303
X135.303Y-121.697
X137.0Y-68.6
X137.0Y-73.4
X137.0Y-117.6
X137.0Y-122.4
X138.697Y-69.303
X138.697Y-72.697
X138.697Y-118.303
X138.697Y-121.697
X139.4Y-71.0
X139.4Y-120.0
X180.6Y-71.0
X180.6Y-120.0
X181.303Y-69.303
X181.303Y-72.697
X181.303Y-118.303
X181.303Y-121.697
X183.0Y-68.6
X183.0Y-73.4
X183.0Y-117.6
X183.0Y-122.4
X184.697Y-69.303
X184.697Y-72.697
X184.697Y-118.303
X184.697Y-121.697
X185.4Y-71.0
X185.4Y-120.0
T3
X155.33Y-69.93
X157.83Y-69.93
X160.33Y-69.93
X162.83Y-69.93
X165.33Y-69.93
X184.67Y-98.0
X184.67Y-100.5
X184.67Y-103.0
X184.67Y-105.5
X184.67Y-108.0
X184.67Y-110.5
X184.81Y-78.73
X184.81Y-81.23
X184.81Y-83.73
X184.81Y-86.23
X184.81Y-88.73
X184.81Y-91.23
T4
X135.69Y-98.77
X135.69Y-101.31
X135.69Y-103.85
X135.69Y-106.39
X135.69Y-108.93
X135.69Y-111.47
X136.02Y-77.3
X136.02Y-79.84
X136.02Y-82.38
X136.02Y-84.92
X136.02Y-87.46
X136.02Y-90.0
X140.01Y-98.7
X140.01Y-101.24
X140.01Y-103.78
X140.01Y-106.32
X140.01Y-108.86
X140.01Y-111.4
X140.41Y-77.4
X140.41Y-79.94
X140.41Y-82.48
X140.41Y-85.02
X140.41Y-87.56
X140.41Y-90.1
X143.06Y-121.9
X145.6Y-121.9
X148.14Y-121.9
X150.68Y-121.9
X153.22Y-121.9
X155.76Y-121.9
X166.93Y-121.2
X169.43Y-121.2
T5
X176.23Y-112.77
X176.23Y-117.47
X176.23Y-122.17
T6
X137.0Y-71.0
X137.0Y-120.0
X183.0Y-71.0
X183.0Y-120.0
M30
