%TF.GenerationSoftware,KiCad,Pcbnew,9.0.2*%
%TF.CreationDate,2025-10-13T17:24:41+02:00*%
%TF.ProjectId,Projet_Robot,50726f6a-6574-45f5-926f-626f742e6b69,rev?*%
%TF.SameCoordinates,Original*%
%TF.FileFunction,Legend,Bot*%
%TF.FilePolarity,Positive*%
%FSLAX46Y46*%
G04 Gerber Fmt 4.6, Leading zero omitted, Abs format (unit mm)*
G04 Created by KiCad (PCBNEW 9.0.2) date 2025-10-13 17:24:41*
%MOMM*%
%LPD*%
G01*
G04 APERTURE LIST*
%ADD10C,0.100000*%
G04 APERTURE END LIST*
D10*
G36*
X170700421Y-118516187D02*
G01*
X170702836Y-118516848D01*
X170703648Y-118517660D01*
X170711509Y-118519223D01*
X170719237Y-118521340D01*
X170720325Y-118520977D01*
X170722782Y-118521466D01*
X170949074Y-118521466D01*
X171018847Y-118556352D01*
X171053734Y-118626126D01*
X171053734Y-118697757D01*
X171018847Y-118767532D01*
X170949074Y-118802419D01*
X170734586Y-118802419D01*
X170677544Y-118773898D01*
X170677544Y-118504748D01*
X170700421Y-118516187D01*
G37*
G36*
X172006115Y-118802419D02*
G01*
X171686967Y-118802419D01*
X171609544Y-118763708D01*
X171573398Y-118727561D01*
X171534687Y-118650139D01*
X171534687Y-118530888D01*
X171573398Y-118453464D01*
X171606934Y-118419929D01*
X171730895Y-118378609D01*
X172006115Y-118378609D01*
X172006115Y-118802419D01*
G37*
G36*
X172006115Y-118278609D02*
G01*
X171734586Y-118278609D01*
X171657162Y-118239897D01*
X171621017Y-118203753D01*
X171582306Y-118126330D01*
X171582306Y-118054698D01*
X171621017Y-117977274D01*
X171657162Y-117941130D01*
X171734586Y-117902419D01*
X172006115Y-117902419D01*
X172006115Y-118278609D01*
G37*
G36*
X172217226Y-119013530D02*
G01*
X169184524Y-119013530D01*
X169184524Y-118166618D01*
X169295635Y-118166618D01*
X169295635Y-118204886D01*
X169322695Y-118231946D01*
X169341829Y-118235752D01*
X169529924Y-118235752D01*
X169529924Y-118697757D01*
X169495037Y-118767532D01*
X169425264Y-118802419D01*
X169341829Y-118802419D01*
X169322695Y-118806225D01*
X169295635Y-118833285D01*
X169295635Y-118871553D01*
X169322695Y-118898613D01*
X169341829Y-118902419D01*
X169437067Y-118902419D01*
X169439523Y-118901930D01*
X169440612Y-118902293D01*
X169448339Y-118900176D01*
X169456201Y-118898613D01*
X169457012Y-118897801D01*
X169459428Y-118897140D01*
X169554665Y-118849522D01*
X169562531Y-118843416D01*
X169565065Y-118842572D01*
X169567254Y-118839750D01*
X169570077Y-118837560D01*
X169570922Y-118835025D01*
X169577026Y-118827160D01*
X169624645Y-118731922D01*
X169625306Y-118729506D01*
X169626118Y-118728695D01*
X169627681Y-118720833D01*
X169629798Y-118713106D01*
X169629435Y-118712017D01*
X169629924Y-118709561D01*
X169629924Y-118235752D01*
X169722781Y-118235752D01*
X169741915Y-118231946D01*
X169768975Y-118204886D01*
X169768975Y-118166618D01*
X169867064Y-118166618D01*
X169867064Y-118204886D01*
X169894124Y-118231946D01*
X169913258Y-118235752D01*
X170101353Y-118235752D01*
X170101353Y-118697757D01*
X170066466Y-118767532D01*
X169996693Y-118802419D01*
X169913258Y-118802419D01*
X169894124Y-118806225D01*
X169867064Y-118833285D01*
X169867064Y-118871553D01*
X169894124Y-118898613D01*
X169913258Y-118902419D01*
X170008496Y-118902419D01*
X170010952Y-118901930D01*
X170012041Y-118902293D01*
X170019768Y-118900176D01*
X170027630Y-118898613D01*
X170028441Y-118897801D01*
X170030857Y-118897140D01*
X170126094Y-118849522D01*
X170133960Y-118843416D01*
X170136494Y-118842572D01*
X170138683Y-118839750D01*
X170141506Y-118837560D01*
X170142351Y-118835025D01*
X170148455Y-118827160D01*
X170196074Y-118731922D01*
X170196735Y-118729506D01*
X170197547Y-118728695D01*
X170199110Y-118720833D01*
X170201227Y-118713106D01*
X170200864Y-118712017D01*
X170201353Y-118709561D01*
X170201353Y-118328609D01*
X170577544Y-118328609D01*
X170577544Y-118852419D01*
X170581350Y-118871553D01*
X170608410Y-118898613D01*
X170646678Y-118898613D01*
X170665574Y-118879716D01*
X170700421Y-118897140D01*
X170702836Y-118897801D01*
X170703648Y-118898613D01*
X170711509Y-118900176D01*
X170719237Y-118902293D01*
X170720325Y-118901930D01*
X170722782Y-118902419D01*
X170960877Y-118902419D01*
X170963333Y-118901930D01*
X170964422Y-118902293D01*
X170972149Y-118900176D01*
X170980011Y-118898613D01*
X170980822Y-118897801D01*
X170983238Y-118897140D01*
X171078475Y-118849522D01*
X171086341Y-118843416D01*
X171088875Y-118842572D01*
X171091064Y-118839750D01*
X171093887Y-118837560D01*
X171094732Y-118835025D01*
X171100836Y-118827160D01*
X171148455Y-118731922D01*
X171149116Y-118729506D01*
X171149928Y-118728695D01*
X171151491Y-118720833D01*
X171153608Y-118713106D01*
X171153245Y-118712017D01*
X171153734Y-118709561D01*
X171153734Y-118614323D01*
X171153245Y-118611866D01*
X171153608Y-118610778D01*
X171151491Y-118603050D01*
X171149928Y-118595189D01*
X171149116Y-118594377D01*
X171148455Y-118591962D01*
X171112016Y-118519085D01*
X171434687Y-118519085D01*
X171434687Y-118661942D01*
X171435175Y-118664398D01*
X171434813Y-118665487D01*
X171436929Y-118673214D01*
X171438493Y-118681076D01*
X171439304Y-118681887D01*
X171439966Y-118684303D01*
X171487584Y-118779540D01*
X171492495Y-118785868D01*
X171496950Y-118792535D01*
X171544569Y-118840155D01*
X171551235Y-118844609D01*
X171557564Y-118849521D01*
X171652802Y-118897140D01*
X171655217Y-118897801D01*
X171656029Y-118898613D01*
X171663890Y-118900176D01*
X171671618Y-118902293D01*
X171672706Y-118901930D01*
X171675163Y-118902419D01*
X172056115Y-118902419D01*
X172075249Y-118898613D01*
X172102309Y-118871553D01*
X172106115Y-118852419D01*
X172106115Y-117852419D01*
X172102309Y-117833285D01*
X172075249Y-117806225D01*
X172056115Y-117802419D01*
X171722782Y-117802419D01*
X171720325Y-117802907D01*
X171719237Y-117802545D01*
X171711509Y-117804661D01*
X171703648Y-117806225D01*
X171702836Y-117807036D01*
X171700421Y-117807698D01*
X171605183Y-117855317D01*
X171598854Y-117860228D01*
X171592188Y-117864683D01*
X171544570Y-117912302D01*
X171540118Y-117918963D01*
X171535203Y-117925297D01*
X171487585Y-118020534D01*
X171486923Y-118022949D01*
X171486112Y-118023761D01*
X171484548Y-118031622D01*
X171482432Y-118039350D01*
X171482794Y-118040438D01*
X171482306Y-118042895D01*
X171482306Y-118138133D01*
X171482794Y-118140589D01*
X171482432Y-118141678D01*
X171484548Y-118149405D01*
X171486112Y-118157267D01*
X171486923Y-118158078D01*
X171487585Y-118160494D01*
X171535203Y-118255731D01*
X171540118Y-118262064D01*
X171544570Y-118268726D01*
X171592188Y-118316345D01*
X171595274Y-118318407D01*
X171564114Y-118328794D01*
X171561939Y-118330034D01*
X171560790Y-118330034D01*
X171554123Y-118334488D01*
X171547165Y-118338455D01*
X171546651Y-118339481D01*
X171544569Y-118340873D01*
X171496951Y-118388492D01*
X171492499Y-118395153D01*
X171487584Y-118401487D01*
X171439966Y-118496724D01*
X171439304Y-118499139D01*
X171438493Y-118499951D01*
X171436929Y-118507812D01*
X171434813Y-118515540D01*
X171435175Y-118516628D01*
X171434687Y-118519085D01*
X171112016Y-118519085D01*
X171100836Y-118496724D01*
X171094731Y-118488858D01*
X171093887Y-118486325D01*
X171091066Y-118484135D01*
X171088875Y-118481312D01*
X171086339Y-118480466D01*
X171078475Y-118474363D01*
X170983238Y-118426745D01*
X170980822Y-118426083D01*
X170980011Y-118425272D01*
X170972149Y-118423708D01*
X170964422Y-118421592D01*
X170963333Y-118421954D01*
X170960877Y-118421466D01*
X170734586Y-118421466D01*
X170677544Y-118392945D01*
X170677544Y-118340412D01*
X170712430Y-118270638D01*
X170782205Y-118235752D01*
X170949074Y-118235752D01*
X171033754Y-118278092D01*
X171052570Y-118283245D01*
X171088875Y-118271143D01*
X171105989Y-118236915D01*
X171093887Y-118200611D01*
X171078475Y-118188649D01*
X170983238Y-118141031D01*
X170980822Y-118140369D01*
X170980011Y-118139558D01*
X170972149Y-118137994D01*
X170964422Y-118135878D01*
X170963333Y-118136240D01*
X170960877Y-118135752D01*
X170770401Y-118135752D01*
X170767944Y-118136240D01*
X170766856Y-118135878D01*
X170759128Y-118137994D01*
X170751267Y-118139558D01*
X170750455Y-118140369D01*
X170748040Y-118141031D01*
X170652802Y-118188650D01*
X170644936Y-118194754D01*
X170642403Y-118195599D01*
X170640213Y-118198419D01*
X170637390Y-118200611D01*
X170636544Y-118203146D01*
X170630441Y-118211011D01*
X170582823Y-118306248D01*
X170582161Y-118308663D01*
X170581350Y-118309475D01*
X170579786Y-118317336D01*
X170577670Y-118325064D01*
X170578032Y-118326152D01*
X170577544Y-118328609D01*
X170201353Y-118328609D01*
X170201353Y-118235752D01*
X170294210Y-118235752D01*
X170313344Y-118231946D01*
X170340404Y-118204886D01*
X170340404Y-118166618D01*
X170313344Y-118139558D01*
X170294210Y-118135752D01*
X170201353Y-118135752D01*
X170201353Y-117852419D01*
X170197547Y-117833285D01*
X170170487Y-117806225D01*
X170132219Y-117806225D01*
X170105159Y-117833285D01*
X170101353Y-117852419D01*
X170101353Y-118135752D01*
X169913258Y-118135752D01*
X169894124Y-118139558D01*
X169867064Y-118166618D01*
X169768975Y-118166618D01*
X169741915Y-118139558D01*
X169722781Y-118135752D01*
X169629924Y-118135752D01*
X169629924Y-117852419D01*
X169626118Y-117833285D01*
X169599058Y-117806225D01*
X169560790Y-117806225D01*
X169533730Y-117833285D01*
X169529924Y-117852419D01*
X169529924Y-118135752D01*
X169341829Y-118135752D01*
X169322695Y-118139558D01*
X169295635Y-118166618D01*
X169184524Y-118166618D01*
X169184524Y-117691308D01*
X172217226Y-117691308D01*
X172217226Y-119013530D01*
G37*
X148424687Y-120272419D02*
X148758020Y-119796228D01*
X148996115Y-120272419D02*
X148996115Y-119272419D01*
X148996115Y-119272419D02*
X148615163Y-119272419D01*
X148615163Y-119272419D02*
X148519925Y-119320038D01*
X148519925Y-119320038D02*
X148472306Y-119367657D01*
X148472306Y-119367657D02*
X148424687Y-119462895D01*
X148424687Y-119462895D02*
X148424687Y-119605752D01*
X148424687Y-119605752D02*
X148472306Y-119700990D01*
X148472306Y-119700990D02*
X148519925Y-119748609D01*
X148519925Y-119748609D02*
X148615163Y-119796228D01*
X148615163Y-119796228D02*
X148996115Y-119796228D01*
X148091353Y-119272419D02*
X147424687Y-120272419D01*
X147424687Y-119272419D02*
X148091353Y-120272419D01*
X153696115Y-119891466D02*
X152934211Y-119891466D01*
X153315163Y-120272419D02*
X153315163Y-119510514D01*
X146338972Y-119172419D02*
X145767544Y-119172419D01*
X146053258Y-120172419D02*
X146053258Y-119172419D01*
X145529448Y-119172419D02*
X144862782Y-120172419D01*
X144862782Y-119172419D02*
X145529448Y-120172419D01*
X151196115Y-119991466D02*
X150434211Y-119991466D01*
G36*
X155523640Y-119261130D02*
G01*
X155559784Y-119297275D01*
X155601320Y-119380347D01*
X155646115Y-119559526D01*
X155646115Y-119785311D01*
X155601320Y-119964489D01*
X155559784Y-120047561D01*
X155523638Y-120083708D01*
X155446217Y-120122419D01*
X155374586Y-120122419D01*
X155297163Y-120083708D01*
X155261017Y-120047561D01*
X155219482Y-119964491D01*
X155174687Y-119785311D01*
X155174687Y-119559526D01*
X155219482Y-119380346D01*
X155261017Y-119297274D01*
X155297162Y-119261130D01*
X155374586Y-119222419D01*
X155446217Y-119222419D01*
X155523640Y-119261130D01*
G37*
G36*
X157857226Y-120333530D02*
G01*
X154011195Y-120333530D01*
X154011195Y-119743847D01*
X154122306Y-119743847D01*
X154122306Y-119981942D01*
X154122794Y-119984398D01*
X154122432Y-119985487D01*
X154124548Y-119993214D01*
X154126112Y-120001076D01*
X154126923Y-120001887D01*
X154127585Y-120004303D01*
X154175203Y-120099540D01*
X154180114Y-120105868D01*
X154184569Y-120112535D01*
X154232188Y-120160155D01*
X154238854Y-120164609D01*
X154245183Y-120169521D01*
X154340421Y-120217140D01*
X154342836Y-120217801D01*
X154343648Y-120218613D01*
X154351509Y-120220176D01*
X154359237Y-120222293D01*
X154360325Y-120221930D01*
X154362782Y-120222419D01*
X154600877Y-120222419D01*
X154603333Y-120221930D01*
X154604422Y-120222293D01*
X154612149Y-120220176D01*
X154620011Y-120218613D01*
X154620822Y-120217801D01*
X154623238Y-120217140D01*
X154718475Y-120169522D01*
X154724802Y-120164611D01*
X154731471Y-120160155D01*
X154779090Y-120112535D01*
X154789928Y-120096314D01*
X154789928Y-120058045D01*
X154762868Y-120030986D01*
X154724599Y-120030986D01*
X154708378Y-120041825D01*
X154666495Y-120083708D01*
X154589074Y-120122419D01*
X154374586Y-120122419D01*
X154297163Y-120083708D01*
X154261017Y-120047561D01*
X154222306Y-119970139D01*
X154222306Y-119755650D01*
X154261017Y-119678226D01*
X154297162Y-119642082D01*
X154374586Y-119603371D01*
X154589074Y-119603371D01*
X154666497Y-119642082D01*
X154708378Y-119683964D01*
X154724599Y-119694803D01*
X154727244Y-119694803D01*
X154729291Y-119696478D01*
X154746041Y-119694803D01*
X154762868Y-119694803D01*
X154764737Y-119692933D01*
X154767370Y-119692670D01*
X154778030Y-119679640D01*
X154789928Y-119667743D01*
X154789928Y-119665099D01*
X154791603Y-119663052D01*
X154793486Y-119643634D01*
X154784460Y-119553371D01*
X155074687Y-119553371D01*
X155074687Y-119791466D01*
X155075882Y-119797475D01*
X155076180Y-119803593D01*
X155123799Y-119994069D01*
X155126138Y-119999021D01*
X155127585Y-120004303D01*
X155175203Y-120099540D01*
X155180114Y-120105868D01*
X155184569Y-120112535D01*
X155232188Y-120160155D01*
X155238854Y-120164609D01*
X155245183Y-120169521D01*
X155340421Y-120217140D01*
X155342836Y-120217801D01*
X155343648Y-120218613D01*
X155351509Y-120220176D01*
X155359237Y-120222293D01*
X155360325Y-120221930D01*
X155362782Y-120222419D01*
X155458020Y-120222419D01*
X155460476Y-120221930D01*
X155461565Y-120222293D01*
X155469292Y-120220176D01*
X155477154Y-120218613D01*
X155477965Y-120217801D01*
X155480381Y-120217140D01*
X155575618Y-120169522D01*
X155581945Y-120164611D01*
X155588614Y-120160155D01*
X155636233Y-120112535D01*
X155640686Y-120105869D01*
X155645598Y-120099541D01*
X155693217Y-120004303D01*
X155694663Y-119999021D01*
X155697003Y-119994069D01*
X155744622Y-119803593D01*
X155744919Y-119797475D01*
X155746115Y-119791466D01*
X155746115Y-119553371D01*
X155744919Y-119547361D01*
X155744622Y-119541244D01*
X155697003Y-119350768D01*
X155694663Y-119345815D01*
X155693217Y-119340534D01*
X155647211Y-119248523D01*
X156030874Y-119248523D01*
X156030874Y-119286791D01*
X156057934Y-119313851D01*
X156096202Y-119313851D01*
X156112423Y-119303012D01*
X156151696Y-119263739D01*
X156275657Y-119222419D01*
X156354669Y-119222419D01*
X156478630Y-119263739D01*
X156559783Y-119344892D01*
X156601320Y-119427966D01*
X156646115Y-119607145D01*
X156646115Y-119737692D01*
X156601320Y-119916870D01*
X156559783Y-119999944D01*
X156478629Y-120081098D01*
X156354669Y-120122419D01*
X156275657Y-120122419D01*
X156151697Y-120081099D01*
X156112424Y-120041825D01*
X156096203Y-120030986D01*
X156057934Y-120030986D01*
X156030874Y-120058045D01*
X156030874Y-120096314D01*
X156041712Y-120112535D01*
X156089331Y-120160155D01*
X156091413Y-120161546D01*
X156091927Y-120162573D01*
X156098885Y-120166539D01*
X156105552Y-120170994D01*
X156106701Y-120170994D01*
X156108876Y-120172234D01*
X156251732Y-120219853D01*
X156259682Y-120220855D01*
X156267544Y-120222419D01*
X156362782Y-120222419D01*
X156370644Y-120220855D01*
X156378593Y-120219853D01*
X156521450Y-120172234D01*
X156523625Y-120170994D01*
X156524774Y-120170994D01*
X156531444Y-120166536D01*
X156538398Y-120162573D01*
X156538910Y-120161547D01*
X156540995Y-120160155D01*
X156636233Y-120064916D01*
X156640686Y-120058250D01*
X156645598Y-120051922D01*
X156693217Y-119956684D01*
X156694663Y-119951402D01*
X156697003Y-119946450D01*
X156744622Y-119755974D01*
X156744919Y-119749856D01*
X156746115Y-119743847D01*
X156746115Y-119600990D01*
X156744919Y-119594980D01*
X156744622Y-119588863D01*
X156697003Y-119398387D01*
X156694663Y-119393434D01*
X156693217Y-119388153D01*
X156645598Y-119292915D01*
X156640682Y-119286580D01*
X156636232Y-119279921D01*
X156540994Y-119184683D01*
X156538911Y-119183291D01*
X156538398Y-119182265D01*
X156531437Y-119178297D01*
X156524773Y-119173844D01*
X156523625Y-119173844D01*
X156521450Y-119172604D01*
X156520895Y-119172419D01*
X157074687Y-119172419D01*
X157074687Y-120172419D01*
X157078493Y-120191553D01*
X157105553Y-120218613D01*
X157143821Y-120218613D01*
X157170881Y-120191553D01*
X157174687Y-120172419D01*
X157174687Y-119698609D01*
X157646115Y-119698609D01*
X157646115Y-120172419D01*
X157649921Y-120191553D01*
X157676981Y-120218613D01*
X157715249Y-120218613D01*
X157742309Y-120191553D01*
X157746115Y-120172419D01*
X157746115Y-119172419D01*
X157742309Y-119153285D01*
X157715249Y-119126225D01*
X157676981Y-119126225D01*
X157649921Y-119153285D01*
X157646115Y-119172419D01*
X157646115Y-119598609D01*
X157174687Y-119598609D01*
X157174687Y-119172419D01*
X157170881Y-119153285D01*
X157143821Y-119126225D01*
X157105553Y-119126225D01*
X157078493Y-119153285D01*
X157074687Y-119172419D01*
X156520895Y-119172419D01*
X156378593Y-119124985D01*
X156370644Y-119123982D01*
X156362782Y-119122419D01*
X156267544Y-119122419D01*
X156259682Y-119123982D01*
X156251732Y-119124985D01*
X156108876Y-119172604D01*
X156106701Y-119173844D01*
X156105552Y-119173844D01*
X156098885Y-119178298D01*
X156091927Y-119182265D01*
X156091413Y-119183291D01*
X156089331Y-119184683D01*
X156041713Y-119232302D01*
X156030874Y-119248523D01*
X155647211Y-119248523D01*
X155645598Y-119245296D01*
X155640686Y-119238967D01*
X155636232Y-119232301D01*
X155588613Y-119184683D01*
X155581951Y-119180231D01*
X155575618Y-119175316D01*
X155480381Y-119127698D01*
X155477965Y-119127036D01*
X155477154Y-119126225D01*
X155469292Y-119124661D01*
X155461565Y-119122545D01*
X155460476Y-119122907D01*
X155458020Y-119122419D01*
X155362782Y-119122419D01*
X155360325Y-119122907D01*
X155359237Y-119122545D01*
X155351509Y-119124661D01*
X155343648Y-119126225D01*
X155342836Y-119127036D01*
X155340421Y-119127698D01*
X155245183Y-119175317D01*
X155238854Y-119180228D01*
X155232188Y-119184683D01*
X155184570Y-119232302D01*
X155180118Y-119238963D01*
X155175203Y-119245297D01*
X155127585Y-119340534D01*
X155126138Y-119345815D01*
X155123799Y-119350768D01*
X155076180Y-119541244D01*
X155075882Y-119547361D01*
X155074687Y-119553371D01*
X154784460Y-119553371D01*
X154745867Y-119167444D01*
X154742309Y-119155777D01*
X154742309Y-119153285D01*
X154741215Y-119152191D01*
X154740176Y-119148783D01*
X154727146Y-119138122D01*
X154715249Y-119126225D01*
X154711756Y-119125530D01*
X154710558Y-119124550D01*
X154708076Y-119124798D01*
X154696115Y-119122419D01*
X154219925Y-119122419D01*
X154200791Y-119126225D01*
X154173731Y-119153285D01*
X154173731Y-119191553D01*
X154200791Y-119218613D01*
X154219925Y-119222419D01*
X154650866Y-119222419D01*
X154682449Y-119538255D01*
X154623238Y-119508650D01*
X154620822Y-119507988D01*
X154620011Y-119507177D01*
X154612149Y-119505613D01*
X154604422Y-119503497D01*
X154603333Y-119503859D01*
X154600877Y-119503371D01*
X154362782Y-119503371D01*
X154360325Y-119503859D01*
X154359237Y-119503497D01*
X154351509Y-119505613D01*
X154343648Y-119507177D01*
X154342836Y-119507988D01*
X154340421Y-119508650D01*
X154245183Y-119556269D01*
X154238854Y-119561180D01*
X154232188Y-119565635D01*
X154184570Y-119613254D01*
X154180118Y-119619915D01*
X154175203Y-119626249D01*
X154127585Y-119721486D01*
X154126923Y-119723901D01*
X154126112Y-119724713D01*
X154124548Y-119732574D01*
X154122432Y-119740302D01*
X154122794Y-119741390D01*
X154122306Y-119743847D01*
X154011195Y-119743847D01*
X154011195Y-119011308D01*
X157857226Y-119011308D01*
X157857226Y-120333530D01*
G37*
M02*
