%TF.GenerationSoftware,KiCad,Pcbnew,9.0.2*%
%TF.CreationDate,2025-10-13T17:24:41+02:00*%
%TF.ProjectId,Projet_Robot,50726f6a-6574-45f5-926f-626f742e6b69,rev?*%
%TF.SameCoordinates,Original*%
%TF.FileFunction,Soldermask,Bot*%
%TF.FilePolarity,Negative*%
%FSLAX46Y46*%
G04 Gerber Fmt 4.6, Leading zero omitted, Abs format (unit mm)*
G04 Created by KiCad (PCBNEW 9.0.2) date 2025-10-13 17:24:41*
%MOMM*%
%LPD*%
G01*
G04 APERTURE LIST*
G04 Aperture macros list*
%AMRoundRect*
0 Rectangle with rounded corners*
0 $1 Rounding radius*
0 $2 $3 $4 $5 $6 $7 $8 $9 X,Y pos of 4 corners*
0 Add a 4 corners polygon primitive as box body*
4,1,4,$2,$3,$4,$5,$6,$7,$8,$9,$2,$3,0*
0 Add four circle primitives for the rounded corners*
1,1,$1+$1,$2,$3*
1,1,$1+$1,$4,$5*
1,1,$1+$1,$6,$7*
1,1,$1+$1,$8,$9*
0 Add four rect primitives between the rounded corners*
20,1,$1+$1,$2,$3,$4,$5,0*
20,1,$1+$1,$4,$5,$6,$7,0*
20,1,$1+$1,$6,$7,$8,$9,0*
20,1,$1+$1,$8,$9,$2,$3,0*%
G04 Aperture macros list end*
%ADD10O,1.950000X1.700000*%
%ADD11RoundRect,0.250000X0.725000X-0.600000X0.725000X0.600000X-0.725000X0.600000X-0.725000X-0.600000X0*%
%ADD12R,1.700000X1.700000*%
%ADD13C,1.700000*%
%ADD14C,0.800000*%
%ADD15C,6.400000*%
%ADD16C,2.480000*%
%ADD17RoundRect,0.250000X-0.600000X-0.725000X0.600000X-0.725000X0.600000X0.725000X-0.600000X0.725000X0*%
%ADD18O,1.700000X1.950000*%
%ADD19RoundRect,0.250000X-0.600000X-0.750000X0.600000X-0.750000X0.600000X0.750000X-0.600000X0.750000X0*%
%ADD20O,1.700000X2.000000*%
G04 APERTURE END LIST*
D10*
%TO.C,Motor2*%
X184810000Y-78730000D03*
X184810000Y-81230000D03*
X184810000Y-83730000D03*
X184810000Y-86230000D03*
X184810000Y-88730000D03*
D11*
X184810000Y-91230000D03*
%TD*%
D12*
%TO.C,TOF3*%
X140410000Y-90100000D03*
D13*
X140410000Y-87560000D03*
X140410000Y-85020000D03*
X140410000Y-82480000D03*
X140410000Y-79940000D03*
X140410000Y-77400000D03*
%TD*%
D12*
%TO.C,TOF1*%
X136020000Y-90000000D03*
D13*
X136020000Y-87460000D03*
X136020000Y-84920000D03*
X136020000Y-82380000D03*
X136020000Y-79840000D03*
X136020000Y-77300000D03*
%TD*%
D14*
%TO.C,H1*%
X134600000Y-71000000D03*
X135302944Y-69302944D03*
X135302944Y-72697056D03*
X137000000Y-68600000D03*
D15*
X137000000Y-71000000D03*
D14*
X137000000Y-73400000D03*
X138697056Y-69302944D03*
X138697056Y-72697056D03*
X139400000Y-71000000D03*
%TD*%
D16*
%TO.C,S1*%
X176230000Y-122170000D03*
X176230000Y-117470000D03*
X176230000Y-112770000D03*
%TD*%
D12*
%TO.C,TOF4*%
X140010000Y-111400000D03*
D13*
X140010000Y-108860000D03*
X140010000Y-106320000D03*
X140010000Y-103780000D03*
X140010000Y-101240000D03*
X140010000Y-98700000D03*
%TD*%
D12*
%TO.C,TOF2*%
X135690000Y-111470000D03*
D13*
X135690000Y-108930000D03*
X135690000Y-106390000D03*
X135690000Y-103850000D03*
X135690000Y-101310000D03*
X135690000Y-98770000D03*
%TD*%
D14*
%TO.C,H3*%
X134600000Y-120000000D03*
X135302944Y-118302944D03*
X135302944Y-121697056D03*
X137000000Y-117600000D03*
D15*
X137000000Y-120000000D03*
D14*
X137000000Y-122400000D03*
X138697056Y-118302944D03*
X138697056Y-121697056D03*
X139400000Y-120000000D03*
%TD*%
%TO.C,H2*%
X180600000Y-71000000D03*
X181302944Y-69302944D03*
X181302944Y-72697056D03*
X183000000Y-68600000D03*
D15*
X183000000Y-71000000D03*
D14*
X183000000Y-73400000D03*
X184697056Y-69302944D03*
X184697056Y-72697056D03*
X185400000Y-71000000D03*
%TD*%
%TO.C,H4*%
X180600000Y-120000000D03*
X181302944Y-118302944D03*
X181302944Y-121697056D03*
X183000000Y-117600000D03*
D15*
X183000000Y-120000000D03*
D14*
X183000000Y-122400000D03*
X184697056Y-118302944D03*
X184697056Y-121697056D03*
X185400000Y-120000000D03*
%TD*%
D11*
%TO.C,Motor1*%
X184670000Y-110500000D03*
D10*
X184670000Y-108000000D03*
X184670000Y-105500000D03*
X184670000Y-103000000D03*
X184670000Y-100500000D03*
X184670000Y-98000000D03*
%TD*%
D17*
%TO.C,Lidar1*%
X155330000Y-69930000D03*
D18*
X157830000Y-69930000D03*
X160330000Y-69930000D03*
X162830000Y-69930000D03*
X165330000Y-69930000D03*
%TD*%
D19*
%TO.C,J1*%
X166930000Y-121200000D03*
D20*
X169430000Y-121200000D03*
%TD*%
D12*
%TO.C,Bluetooth1*%
X155760000Y-121900000D03*
D13*
X153220000Y-121900000D03*
X150680000Y-121900000D03*
X148140000Y-121900000D03*
X145600000Y-121900000D03*
X143060000Y-121900000D03*
%TD*%
M02*
