%TF.GenerationSoftware,KiCad,Pcbnew,9.0.2*%
%TF.CreationDate,2025-10-13T17:24:41+02:00*%
%TF.ProjectId,Projet_Robot,50726f6a-6574-45f5-926f-626f742e6b69,rev?*%
%TF.SameCoordinates,Original*%
%TF.FileFunction,Copper,L4,Bot*%
%TF.FilePolarity,Positive*%
%FSLAX46Y46*%
G04 Gerber Fmt 4.6, Leading zero omitted, Abs format (unit mm)*
G04 Created by KiCad (PCBNEW 9.0.2) date 2025-10-13 17:24:41*
%MOMM*%
%LPD*%
G01*
G04 APERTURE LIST*
G04 Aperture macros list*
%AMRoundRect*
0 Rectangle with rounded corners*
0 $1 Rounding radius*
0 $2 $3 $4 $5 $6 $7 $8 $9 X,Y pos of 4 corners*
0 Add a 4 corners polygon primitive as box body*
4,1,4,$2,$3,$4,$5,$6,$7,$8,$9,$2,$3,0*
0 Add four circle primitives for the rounded corners*
1,1,$1+$1,$2,$3*
1,1,$1+$1,$4,$5*
1,1,$1+$1,$6,$7*
1,1,$1+$1,$8,$9*
0 Add four rect primitives between the rounded corners*
20,1,$1+$1,$2,$3,$4,$5,0*
20,1,$1+$1,$4,$5,$6,$7,0*
20,1,$1+$1,$6,$7,$8,$9,0*
20,1,$1+$1,$8,$9,$2,$3,0*%
G04 Aperture macros list end*
%TA.AperFunction,ComponentPad*%
%ADD10O,1.950000X1.700000*%
%TD*%
%TA.AperFunction,ComponentPad*%
%ADD11RoundRect,0.250000X0.725000X-0.600000X0.725000X0.600000X-0.725000X0.600000X-0.725000X-0.600000X0*%
%TD*%
%TA.AperFunction,ComponentPad*%
%ADD12R,1.700000X1.700000*%
%TD*%
%TA.AperFunction,ComponentPad*%
%ADD13C,1.700000*%
%TD*%
%TA.AperFunction,ComponentPad*%
%ADD14C,0.800000*%
%TD*%
%TA.AperFunction,ComponentPad*%
%ADD15C,6.400000*%
%TD*%
%TA.AperFunction,ComponentPad*%
%ADD16C,2.480000*%
%TD*%
%TA.AperFunction,ComponentPad*%
%ADD17RoundRect,0.250000X-0.600000X-0.725000X0.600000X-0.725000X0.600000X0.725000X-0.600000X0.725000X0*%
%TD*%
%TA.AperFunction,ComponentPad*%
%ADD18O,1.700000X1.950000*%
%TD*%
%TA.AperFunction,ComponentPad*%
%ADD19RoundRect,0.250000X-0.600000X-0.750000X0.600000X-0.750000X0.600000X0.750000X-0.600000X0.750000X0*%
%TD*%
%TA.AperFunction,ComponentPad*%
%ADD20O,1.700000X2.000000*%
%TD*%
%TA.AperFunction,ViaPad*%
%ADD21C,0.450000*%
%TD*%
%TA.AperFunction,Conductor*%
%ADD22C,0.200000*%
%TD*%
%TA.AperFunction,Conductor*%
%ADD23C,0.250000*%
%TD*%
G04 APERTURE END LIST*
D10*
%TO.P,Motor2,6,Pin_6*%
%TO.N,/Moteur2/Motor1+*%
X184810000Y-78730000D03*
%TO.P,Motor2,5,Pin_5*%
%TO.N,+3.3V*%
X184810000Y-81230000D03*
%TO.P,Motor2,4,Pin_4*%
%TO.N,/Moteur2/ENC1_PH1*%
X184810000Y-83730000D03*
%TO.P,Motor2,3,Pin_3*%
%TO.N,/Moteur2/ENC1_PH2*%
X184810000Y-86230000D03*
%TO.P,Motor2,2,Pin_2*%
%TO.N,GND*%
X184810000Y-88730000D03*
D11*
%TO.P,Motor2,1,Pin_1*%
%TO.N,/Moteur2/Motor1-*%
X184810000Y-91230000D03*
%TD*%
D12*
%TO.P,TOF3,1,Pin_1*%
%TO.N,+3.3V*%
X140410000Y-90100000D03*
D13*
%TO.P,TOF3,2,Pin_2*%
%TO.N,/Capteurs/I2C1_SCL*%
X140410000Y-87560000D03*
%TO.P,TOF3,3,Pin_3*%
%TO.N,/Capteurs/I2C1_SDA*%
X140410000Y-85020000D03*
%TO.P,TOF3,4,Pin_4*%
%TO.N,/Capteurs/tof3_GPIO*%
X140410000Y-82480000D03*
%TO.P,TOF3,5,Pin_5*%
%TO.N,GND*%
X140410000Y-79940000D03*
%TO.P,TOF3,6,Pin_6*%
%TO.N,/Capteurs/TOF3_XSHUT*%
X140410000Y-77400000D03*
%TD*%
D12*
%TO.P,TOF1,1,Pin_1*%
%TO.N,+3.3V*%
X136020000Y-90000000D03*
D13*
%TO.P,TOF1,2,Pin_2*%
%TO.N,/Capteurs/I2C1_SCL*%
X136020000Y-87460000D03*
%TO.P,TOF1,3,Pin_3*%
%TO.N,/Capteurs/I2C1_SDA*%
X136020000Y-84920000D03*
%TO.P,TOF1,4,Pin_4*%
%TO.N,/Capteurs/tof1_GPIO*%
X136020000Y-82380000D03*
%TO.P,TOF1,5,Pin_5*%
%TO.N,GND*%
X136020000Y-79840000D03*
%TO.P,TOF1,6,Pin_6*%
%TO.N,/Capteurs/TOF1_XSHUT*%
X136020000Y-77300000D03*
%TD*%
D14*
%TO.P,H1,1,1*%
%TO.N,GND*%
X134600000Y-71000000D03*
X135302944Y-69302944D03*
X135302944Y-72697056D03*
X137000000Y-68600000D03*
D15*
X137000000Y-71000000D03*
D14*
X137000000Y-73400000D03*
X138697056Y-69302944D03*
X138697056Y-72697056D03*
X139400000Y-71000000D03*
%TD*%
D16*
%TO.P,S1,1,1*%
%TO.N,unconnected-(S1-Pad1)*%
X176230000Y-122170000D03*
%TO.P,S1,2,2*%
%TO.N,+VBAT*%
X176230000Y-117470000D03*
%TO.P,S1,3,3*%
%TO.N,Net-(J1-Pin_2)*%
X176230000Y-112770000D03*
%TD*%
D12*
%TO.P,TOF4,1,Pin_1*%
%TO.N,+3.3V*%
X140010000Y-111400000D03*
D13*
%TO.P,TOF4,2,Pin_2*%
%TO.N,/Capteurs/I2C1_SCL*%
X140010000Y-108860000D03*
%TO.P,TOF4,3,Pin_3*%
%TO.N,/Capteurs/I2C1_SDA*%
X140010000Y-106320000D03*
%TO.P,TOF4,4,Pin_4*%
%TO.N,/Capteurs/tof4_GPIO*%
X140010000Y-103780000D03*
%TO.P,TOF4,5,Pin_5*%
%TO.N,GND*%
X140010000Y-101240000D03*
%TO.P,TOF4,6,Pin_6*%
%TO.N,/Capteurs/TOF4_XSHUT*%
X140010000Y-98700000D03*
%TD*%
D12*
%TO.P,TOF2,1,Pin_1*%
%TO.N,+3.3V*%
X135690000Y-111470000D03*
D13*
%TO.P,TOF2,2,Pin_2*%
%TO.N,/Capteurs/I2C1_SCL*%
X135690000Y-108930000D03*
%TO.P,TOF2,3,Pin_3*%
%TO.N,/Capteurs/I2C1_SDA*%
X135690000Y-106390000D03*
%TO.P,TOF2,4,Pin_4*%
%TO.N,/Capteurs/tof2_GPIO*%
X135690000Y-103850000D03*
%TO.P,TOF2,5,Pin_5*%
%TO.N,GND*%
X135690000Y-101310000D03*
%TO.P,TOF2,6,Pin_6*%
%TO.N,/Capteurs/TOF2_XSHUT*%
X135690000Y-98770000D03*
%TD*%
D14*
%TO.P,H3,1,1*%
%TO.N,GND*%
X134600000Y-120000000D03*
X135302944Y-118302944D03*
X135302944Y-121697056D03*
X137000000Y-117600000D03*
D15*
X137000000Y-120000000D03*
D14*
X137000000Y-122400000D03*
X138697056Y-118302944D03*
X138697056Y-121697056D03*
X139400000Y-120000000D03*
%TD*%
%TO.P,H2,1,1*%
%TO.N,GND*%
X180600000Y-71000000D03*
X181302944Y-69302944D03*
X181302944Y-72697056D03*
X183000000Y-68600000D03*
D15*
X183000000Y-71000000D03*
D14*
X183000000Y-73400000D03*
X184697056Y-69302944D03*
X184697056Y-72697056D03*
X185400000Y-71000000D03*
%TD*%
%TO.P,H4,1,1*%
%TO.N,GND*%
X180600000Y-120000000D03*
X181302944Y-118302944D03*
X181302944Y-121697056D03*
X183000000Y-117600000D03*
D15*
X183000000Y-120000000D03*
D14*
X183000000Y-122400000D03*
X184697056Y-118302944D03*
X184697056Y-121697056D03*
X185400000Y-120000000D03*
%TD*%
D11*
%TO.P,Motor1,1,Pin_1*%
%TO.N,/Moteur1/Motor1-*%
X184670000Y-110500000D03*
D10*
%TO.P,Motor1,2,Pin_2*%
%TO.N,GND*%
X184670000Y-108000000D03*
%TO.P,Motor1,3,Pin_3*%
%TO.N,/Moteur1/ENC1_PH2*%
X184670000Y-105500000D03*
%TO.P,Motor1,4,Pin_4*%
%TO.N,/Moteur1/ENC1_PH1*%
X184670000Y-103000000D03*
%TO.P,Motor1,5,Pin_5*%
%TO.N,+3.3V*%
X184670000Y-100500000D03*
%TO.P,Motor1,6,Pin_6*%
%TO.N,/Moteur1/Motor1+*%
X184670000Y-98000000D03*
%TD*%
D17*
%TO.P,Lidar1,1,Pin_1*%
%TO.N,+5V*%
X155330000Y-69930000D03*
D18*
%TO.P,Lidar1,2,Pin_2*%
%TO.N,/Capteurs/LIDAR_USART2_RX*%
X157830000Y-69930000D03*
%TO.P,Lidar1,3,Pin_3*%
%TO.N,unconnected-(Lidar1-Pin_3-Pad3)*%
X160330000Y-69930000D03*
%TO.P,Lidar1,4,Pin_4*%
%TO.N,/Capteurs/M_CTR*%
X162830000Y-69930000D03*
%TO.P,Lidar1,5,Pin_5*%
%TO.N,GND*%
X165330000Y-69930000D03*
%TD*%
D19*
%TO.P,J1,1,Pin_1*%
%TO.N,GND*%
X166930000Y-121200000D03*
D20*
%TO.P,J1,2,Pin_2*%
%TO.N,Net-(J1-Pin_2)*%
X169430000Y-121200000D03*
%TD*%
D12*
%TO.P,Bluetooth1,1,Pin_1*%
%TO.N,/Capteurs/Bluetooth_En*%
X155760000Y-121900000D03*
D13*
%TO.P,Bluetooth1,2,Pin_2*%
%TO.N,+5V*%
X153220000Y-121900000D03*
%TO.P,Bluetooth1,3,Pin_3*%
%TO.N,GND*%
X150680000Y-121900000D03*
%TO.P,Bluetooth1,4,Pin_4*%
%TO.N,/Capteurs/Bluetooth_USART3_RX*%
X148140000Y-121900000D03*
%TO.P,Bluetooth1,5,Pin_5*%
%TO.N,/Capteurs/Bluetooth_USART3_TX*%
X145600000Y-121900000D03*
%TO.P,Bluetooth1,6,Pin_6*%
%TO.N,unconnected-(Bluetooth1-Pin_6-Pad6)*%
X143060000Y-121900000D03*
%TD*%
D21*
%TO.N,GND*%
X151667268Y-70007732D03*
%TO.N,/Capteurs/TOF4_XSHUT*%
X142450000Y-81268000D03*
%TO.N,/\u00B5controlleur/NRST*%
X152750000Y-67795000D03*
%TO.N,GND*%
X178750000Y-83380000D03*
X164775000Y-85350000D03*
X180150000Y-85380000D03*
X162549000Y-94400000D03*
X177000000Y-103600000D03*
X177000000Y-101600000D03*
X180150000Y-83380000D03*
X158300000Y-96700000D03*
X150975000Y-88425000D03*
X178460000Y-96760000D03*
X179900000Y-103600000D03*
X180150000Y-84380000D03*
X149500000Y-92600000D03*
X179900000Y-102600000D03*
X167025000Y-68975000D03*
X177250000Y-85380000D03*
X153450000Y-74757718D03*
X160600000Y-100000000D03*
X147000000Y-92800000D03*
X151700000Y-90700000D03*
X142425000Y-80200000D03*
X157400000Y-74290000D03*
X156175707Y-82425706D03*
X181630000Y-105480000D03*
X177270000Y-79370000D03*
X177250000Y-83380000D03*
X181700000Y-107950000D03*
X178650000Y-85280000D03*
X153410000Y-101900000D03*
X148700000Y-94000000D03*
X177250000Y-84380000D03*
X178452500Y-102620000D03*
X181810000Y-87170000D03*
X178702500Y-84400000D03*
X179900000Y-101600000D03*
X150660000Y-82260000D03*
X160025000Y-83000000D03*
X157700000Y-95000000D03*
X143375000Y-89150000D03*
X178400000Y-103500000D03*
X136400000Y-94850000D03*
X177000000Y-102600000D03*
X178500000Y-101600000D03*
X157891268Y-80158732D03*
X164200000Y-113200000D03*
%TO.N,/Capteurs/Bluetooth_USART3_RX*%
X161425000Y-82950000D03*
X164924304Y-91634717D03*
X157070438Y-78990002D03*
%TO.N,/Capteurs/Bluetooth_En*%
X163863082Y-90954036D03*
%TO.N,/Capteurs/Bluetooth_USART3_TX*%
X155124531Y-88825000D03*
X156675000Y-80450000D03*
%TO.N,+5V*%
X160200000Y-104900000D03*
X160800000Y-104900000D03*
X161400000Y-104900000D03*
%TO.N,/\u00B5controlleur/NRST*%
X144125000Y-67795000D03*
X153779451Y-86452281D03*
X157300000Y-89875000D03*
X152733732Y-88666268D03*
%TO.N,+3.3V*%
X144700000Y-100700000D03*
X154800000Y-81510000D03*
X156120000Y-79725000D03*
X143725000Y-84600000D03*
X142800000Y-87100000D03*
X160900000Y-80250000D03*
X158300000Y-93570000D03*
X135075000Y-94800000D03*
X150900000Y-102850000D03*
X140775000Y-93850000D03*
X159025000Y-98100000D03*
X158441268Y-80708732D03*
X152200000Y-74445000D03*
X159800000Y-95200000D03*
%TO.N,+VBAT*%
X178100000Y-87900000D03*
X166100000Y-118700000D03*
X177800000Y-106200000D03*
X178400000Y-100100000D03*
X165540000Y-109600000D03*
X165480000Y-110800000D03*
X179087500Y-99100000D03*
X179337500Y-80900000D03*
X178722482Y-81880018D03*
%TO.N,/\u00B5controlleur/STATUS_SOURIS_LED*%
X144900000Y-96556000D03*
X148678395Y-86641825D03*
%TO.N,/Capteurs/I2C1_SDA*%
X156225000Y-87725000D03*
X138200000Y-101835000D03*
X138200000Y-84920000D03*
%TO.N,/Capteurs/I2C1_SCL*%
X146379000Y-85791000D03*
X158170000Y-91420000D03*
X146233369Y-84303369D03*
%TO.N,/Capteurs/ACC_INT2*%
X155139258Y-78609000D03*
X156625000Y-86649995D03*
%TO.N,/\u00B5controlleur/VCP_TX*%
X148165251Y-73754647D03*
X150466232Y-77376232D03*
%TO.N,/Capteurs/LIDAR_USART2_RX*%
X153999287Y-87132241D03*
X158130707Y-74276830D03*
%TO.N,/Moteur1/PWM_Mot1_CH2*%
X158933647Y-85149000D03*
X165976232Y-88723768D03*
%TO.N,/Moteur1/PWM_Mot1_CH1*%
X173700000Y-98075000D03*
X163867000Y-90182075D03*
%TO.N,/Moteur2/PWM_Mot1_CH1*%
X171975000Y-85775000D03*
X160275000Y-85487764D03*
%TO.N,/Moteur2/PWM_Mot1_CH2*%
X175010000Y-86260000D03*
X160024000Y-83900000D03*
%TO.N,/Moteur1/ENC1_PH1*%
X154550000Y-89350000D03*
%TO.N,/Moteur2/ENC1_PH1*%
X149386880Y-77145599D03*
%TO.N,/Moteur2/ENC1_PH2*%
X148880000Y-77560000D03*
%TO.N,/Capteurs/tof2_GPIO*%
X142020000Y-83020000D03*
%TO.N,/Capteurs/tof3_GPIO*%
X146190000Y-82748461D03*
%TO.N,/Capteurs/tof4_GPIO*%
X146291790Y-83529327D03*
%TO.N,/Capteurs/TOF2_XSHUT*%
X142003550Y-76774000D03*
%TD*%
D22*
%TO.N,/Moteur1/PWM_Mot1_CH1*%
X165332075Y-90182075D02*
X173225000Y-98075000D01*
X163867000Y-90182075D02*
X165332075Y-90182075D01*
X173225000Y-98075000D02*
X173700000Y-98075000D01*
%TO.N,/Capteurs/I2C1_SCL*%
X153726000Y-90401000D02*
X157151000Y-90401000D01*
X152515855Y-89192268D02*
X152517268Y-89192268D01*
X152207732Y-88882732D02*
X152207732Y-88884145D01*
X152517268Y-89192268D02*
X153726000Y-90401000D01*
X157151000Y-90401000D02*
X158170000Y-91420000D01*
X146379000Y-85791000D02*
X149116000Y-85791000D01*
X149116000Y-85791000D02*
X152207732Y-88882732D01*
X152207732Y-88884145D02*
X152515855Y-89192268D01*
%TO.N,/Capteurs/tof2_GPIO*%
X141690000Y-83350000D02*
X142020000Y-83020000D01*
X140535760Y-102580000D02*
X141690000Y-101425760D01*
X141690000Y-101425760D02*
X141690000Y-83350000D01*
X138030000Y-102580000D02*
X140535760Y-102580000D01*
X136760000Y-103850000D02*
X138030000Y-102580000D01*
X135690000Y-103850000D02*
X136760000Y-103850000D01*
%TO.N,/Capteurs/tof4_GPIO*%
X146263534Y-83529327D02*
X146291790Y-83529327D01*
X145882861Y-83910000D02*
X146263534Y-83529327D01*
X142091000Y-101699000D02*
X140010000Y-103780000D01*
X142091000Y-84759000D02*
X142091000Y-101699000D01*
X145882861Y-83910000D02*
X142940000Y-83910000D01*
X142940000Y-83910000D02*
X142091000Y-84759000D01*
%TO.N,/Capteurs/I2C1_SDA*%
X156159243Y-87659243D02*
X156225000Y-87725000D01*
X153782410Y-87659243D02*
X156159243Y-87659243D01*
X153474287Y-87351120D02*
X153782410Y-87659243D01*
X150030000Y-83317100D02*
X150030000Y-83912751D01*
X150030000Y-83912751D02*
X153468369Y-87351120D01*
X145272900Y-78560000D02*
X150030000Y-83317100D01*
X153468369Y-87351120D02*
X153474287Y-87351120D01*
X139440000Y-78560000D02*
X145272900Y-78560000D01*
X138200000Y-79800000D02*
X139440000Y-78560000D01*
X138200000Y-84920000D02*
X138200000Y-79800000D01*
%TO.N,/Capteurs/LIDAR_USART2_RX*%
X154305451Y-78610672D02*
X158130707Y-74785416D01*
X154305451Y-81260672D02*
X154305451Y-78610672D01*
X154274000Y-81292123D02*
X154305451Y-81260672D01*
X154305451Y-81759328D02*
X154274000Y-81727877D01*
X154305451Y-86894549D02*
X154305451Y-81759328D01*
X158130707Y-74785416D02*
X158130707Y-74276830D01*
X154000289Y-87133243D02*
X154066757Y-87133243D01*
X154066757Y-87133243D02*
X154305451Y-86894549D01*
X153999287Y-87132241D02*
X154000289Y-87133243D01*
X154274000Y-81727877D02*
X154274000Y-81292123D01*
%TO.N,/Moteur1/ENC1_PH1*%
X158475000Y-89350000D02*
X154550000Y-89350000D01*
X160174585Y-87650415D02*
X158475000Y-89350000D01*
X161668515Y-87648000D02*
X161666100Y-87650415D01*
X164018000Y-87648000D02*
X161668515Y-87648000D01*
X174470000Y-98100000D02*
X164018000Y-87648000D01*
X161666100Y-87650415D02*
X160174585Y-87650415D01*
X179590000Y-98100000D02*
X174470000Y-98100000D01*
X184550000Y-103060000D02*
X179590000Y-98100000D01*
%TO.N,/Capteurs/TOF2_XSHUT*%
X136800000Y-98690000D02*
X136880000Y-98770000D01*
X136800000Y-96032050D02*
X136800000Y-98690000D01*
X137601000Y-95231050D02*
X136800000Y-96032050D01*
X137601000Y-78011900D02*
X137601000Y-95231050D01*
X141371386Y-76074286D02*
X139538614Y-76074286D01*
X142003550Y-76706450D02*
X141371386Y-76074286D01*
X142003550Y-76774000D02*
X142003550Y-76706450D01*
X139538614Y-76074286D02*
X137601000Y-78011900D01*
X136880000Y-98770000D02*
X135690000Y-98770000D01*
%TO.N,/\u00B5controlleur/NRST*%
X153942464Y-89875000D02*
X152733732Y-88666268D01*
X157300000Y-89875000D02*
X153942464Y-89875000D01*
%TO.N,/Capteurs/Bluetooth_USART3_RX*%
X149720022Y-123480022D02*
X148140000Y-121900000D01*
X160635474Y-123489526D02*
X149720022Y-123480022D01*
X164875000Y-119250000D02*
X160635474Y-123489526D01*
X164875000Y-91666000D02*
X164875000Y-119250000D01*
X164906283Y-91634717D02*
X164875000Y-91666000D01*
X164924304Y-91634717D02*
X164906283Y-91634717D01*
%TO.N,/Capteurs/Bluetooth_En*%
X157440000Y-121900000D02*
X155760000Y-121900000D01*
X162024000Y-117316000D02*
X157440000Y-121900000D01*
X162024000Y-90500999D02*
X162024000Y-117316000D01*
X162487318Y-90037681D02*
X162024000Y-90500999D01*
X163120050Y-90211004D02*
X162946727Y-90037681D01*
X163428173Y-90529950D02*
X163120050Y-90221827D01*
X163438996Y-90529950D02*
X163428173Y-90529950D01*
X163120050Y-90221827D02*
X163120050Y-90211004D01*
X162946727Y-90037681D02*
X162487318Y-90037681D01*
X163863082Y-90954036D02*
X163438996Y-90529950D01*
%TO.N,/Capteurs/TOF4_XSHUT*%
X139080000Y-98700000D02*
X140010000Y-98700000D01*
X138921000Y-82250000D02*
X138921000Y-98541000D01*
X139903000Y-81268000D02*
X138921000Y-82250000D01*
X142450000Y-81268000D02*
X139903000Y-81268000D01*
X138921000Y-98541000D02*
X139080000Y-98700000D01*
%TO.N,/Moteur2/ENC1_PH2*%
X158030000Y-71695000D02*
X151238000Y-78487000D01*
X176100000Y-80000000D02*
X167795000Y-71695000D01*
X149807000Y-78487000D02*
X148880000Y-77560000D01*
X176100000Y-85740000D02*
X176100000Y-80000000D01*
X176640000Y-86280000D02*
X176100000Y-85740000D01*
X184990000Y-86280000D02*
X176640000Y-86280000D01*
X167795000Y-71695000D02*
X158030000Y-71695000D01*
X151238000Y-78487000D02*
X149807000Y-78487000D01*
%TO.N,/Capteurs/tof3_GPIO*%
X145690000Y-82300000D02*
X140590000Y-82300000D01*
X146138461Y-82748461D02*
X145690000Y-82300000D01*
X146190000Y-82748461D02*
X146138461Y-82748461D01*
%TO.N,/Capteurs/I2C1_SCL*%
X146625000Y-84695000D02*
X146233369Y-84303369D01*
X146625000Y-85483808D02*
X146625000Y-84695000D01*
X146379000Y-85729808D02*
X146625000Y-85483808D01*
X146379000Y-85791000D02*
X146379000Y-85729808D01*
D23*
%TO.N,/Moteur2/PWM_Mot1_CH1*%
X171849000Y-85901000D02*
X171975000Y-85775000D01*
X160688236Y-85901000D02*
X171849000Y-85901000D01*
D22*
X160275000Y-85487764D02*
X160688236Y-85901000D01*
%TO.N,/Moteur2/PWM_Mot1_CH2*%
X173250000Y-84500000D02*
X175010000Y-86260000D01*
X160875000Y-84500000D02*
X173250000Y-84500000D01*
X160275000Y-83900000D02*
X160875000Y-84500000D01*
X160024000Y-83900000D02*
X160275000Y-83900000D01*
%TO.N,/Capteurs/ACC_INT2*%
X155897531Y-86649995D02*
X156625000Y-86649995D01*
X155420000Y-86172464D02*
X155897531Y-86649995D01*
X155139258Y-78609000D02*
X155232803Y-78609000D01*
X155232803Y-78609000D02*
X155420000Y-78796197D01*
X155420000Y-78796197D02*
X155420000Y-86172464D01*
%TO.N,/Capteurs/Bluetooth_USART3_RX*%
X157070438Y-78990002D02*
X157465002Y-78990002D01*
X157465002Y-78990002D02*
X161425000Y-82950000D01*
%TO.N,/\u00B5controlleur/NRST*%
X143004000Y-68916000D02*
X144125000Y-67795000D01*
X143004000Y-75724000D02*
X143004000Y-68916000D01*
X153732281Y-86452281D02*
X143004000Y-75724000D01*
X153779451Y-86452281D02*
X153732281Y-86452281D01*
%TO.N,/Capteurs/Bluetooth_USART3_TX*%
X157725000Y-81500000D02*
X156675000Y-80450000D01*
X157725000Y-88439588D02*
X157725000Y-81500000D01*
X157339588Y-88825000D02*
X157725000Y-88439588D01*
X155124531Y-88825000D02*
X157339588Y-88825000D01*
%TO.N,/Moteur2/ENC1_PH1*%
X183220000Y-83780000D02*
X184990000Y-83780000D01*
X157863900Y-71294000D02*
X170734000Y-71294000D01*
X151071900Y-78086000D02*
X157863900Y-71294000D01*
X150217123Y-78086000D02*
X151071900Y-78086000D01*
X149386346Y-77255223D02*
X150217123Y-78086000D01*
X149386880Y-77145599D02*
X149386346Y-77146133D01*
X149386346Y-77146133D02*
X149386346Y-77255223D01*
X170734000Y-71294000D02*
X183220000Y-83780000D01*
%TO.N,/\u00B5controlleur/VCP_TX*%
X148304647Y-73754647D02*
X148165251Y-73754647D01*
X150466232Y-75916232D02*
X148304647Y-73754647D01*
X150466232Y-77376232D02*
X150466232Y-75916232D01*
%TO.N,/\u00B5controlleur/NRST*%
X152750000Y-67795000D02*
X144125000Y-67795000D01*
%TO.N,/\u00B5controlleur/STATUS_SOURIS_LED*%
X144900000Y-96556000D02*
X144914000Y-96556000D01*
X148860000Y-86823430D02*
X148678395Y-86641825D01*
X148860000Y-92610000D02*
X148860000Y-86823430D01*
X144914000Y-96556000D02*
X148860000Y-92610000D01*
%TO.N,/Capteurs/I2C1_SDA*%
X138200000Y-84920000D02*
X138200000Y-101835000D01*
%TO.N,/Moteur1/PWM_Mot1_CH2*%
X158933647Y-85149000D02*
X158933647Y-85233647D01*
X158933647Y-85233647D02*
X160949415Y-87249415D01*
X164472000Y-87247000D02*
X161575000Y-87247000D01*
X165976232Y-88723768D02*
X165948768Y-88723768D01*
X160949415Y-87249415D02*
X161500000Y-87249415D01*
X165948768Y-88723768D02*
X164472000Y-87247000D01*
%TD*%
%TA.AperFunction,Conductor*%
%TO.N,GND*%
G36*
X183202579Y-67570649D02*
G01*
X183224113Y-67571706D01*
X183511033Y-67585793D01*
X183523122Y-67586983D01*
X183850788Y-67635578D01*
X183862709Y-67637948D01*
X184184056Y-67718432D01*
X184195695Y-67721963D01*
X184507573Y-67833547D01*
X184518811Y-67838202D01*
X184545908Y-67851017D01*
X184818276Y-67979831D01*
X184828991Y-67985558D01*
X185113124Y-68155854D01*
X185123226Y-68162603D01*
X185345785Y-68327659D01*
X185389300Y-68359931D01*
X185398705Y-68367649D01*
X185521426Y-68478875D01*
X185644146Y-68590099D01*
X185652751Y-68598704D01*
X185697695Y-68648291D01*
X185837197Y-68802206D01*
X185875205Y-68844140D01*
X185882925Y-68853547D01*
X186080247Y-69119602D01*
X186087008Y-69129720D01*
X186257302Y-69413836D01*
X186263039Y-69424568D01*
X186404667Y-69724014D01*
X186409324Y-69735257D01*
X186520918Y-70047145D01*
X186524450Y-70058790D01*
X186604933Y-70380105D01*
X186607307Y-70392040D01*
X186655908Y-70719698D01*
X186657101Y-70731809D01*
X186673419Y-71064060D01*
X186673568Y-71070143D01*
X186673568Y-71104354D01*
X186564283Y-119960409D01*
X186564117Y-119962909D01*
X186564117Y-120032334D01*
X186563968Y-120038407D01*
X186547268Y-120378992D01*
X186546080Y-120391080D01*
X186496586Y-120725378D01*
X186494221Y-120737292D01*
X186412255Y-121065153D01*
X186408735Y-121076778D01*
X186295091Y-121395029D01*
X186290451Y-121406255D01*
X186146208Y-121711874D01*
X186140492Y-121722591D01*
X185967042Y-122012630D01*
X185960304Y-122022737D01*
X185759317Y-122294403D01*
X185751624Y-122303802D01*
X185525008Y-122554517D01*
X185516431Y-122563118D01*
X185266390Y-122790443D01*
X185257014Y-122798164D01*
X184985911Y-122999951D01*
X184975823Y-123006717D01*
X184686300Y-123180997D01*
X184675600Y-123186744D01*
X184370403Y-123331868D01*
X184359191Y-123336541D01*
X184041256Y-123451110D01*
X184029641Y-123454663D01*
X183702031Y-123537574D01*
X183690124Y-123539974D01*
X183355966Y-123590437D01*
X183343881Y-123591660D01*
X183003650Y-123609329D01*
X182997111Y-123609496D01*
X177088034Y-123604351D01*
X177021012Y-123584608D01*
X176975303Y-123531764D01*
X176965420Y-123462597D01*
X176994500Y-123399067D01*
X177015251Y-123380036D01*
X177168423Y-123268752D01*
X177328752Y-123108423D01*
X177462026Y-122924986D01*
X177564963Y-122722960D01*
X177635030Y-122507318D01*
X177670500Y-122283370D01*
X177670500Y-122056630D01*
X177635030Y-121832682D01*
X177564963Y-121617040D01*
X177462026Y-121415014D01*
X177462024Y-121415011D01*
X177462023Y-121415009D01*
X177328757Y-121231583D01*
X177328753Y-121231578D01*
X177168421Y-121071246D01*
X177168416Y-121071242D01*
X176984990Y-120937976D01*
X176782962Y-120835038D01*
X176782961Y-120835037D01*
X176782960Y-120835037D01*
X176567318Y-120764970D01*
X176567316Y-120764969D01*
X176567315Y-120764969D01*
X176392567Y-120737292D01*
X176343370Y-120729500D01*
X176116630Y-120729500D01*
X176067433Y-120737292D01*
X175892685Y-120764969D01*
X175677037Y-120835038D01*
X175475009Y-120937976D01*
X175291583Y-121071242D01*
X175291578Y-121071246D01*
X175131246Y-121231578D01*
X175131242Y-121231583D01*
X174997976Y-121415009D01*
X174895038Y-121617037D01*
X174824969Y-121832685D01*
X174797920Y-122003466D01*
X174789500Y-122056630D01*
X174789500Y-122283370D01*
X174792736Y-122303802D01*
X174822529Y-122491910D01*
X174824970Y-122507318D01*
X174892767Y-122715975D01*
X174895038Y-122722962D01*
X174997976Y-122924990D01*
X175131242Y-123108416D01*
X175131246Y-123108421D01*
X175291578Y-123268753D01*
X175291583Y-123268757D01*
X175442681Y-123378536D01*
X175485347Y-123433866D01*
X175491326Y-123503479D01*
X175458721Y-123565274D01*
X175397882Y-123599631D01*
X175369688Y-123602854D01*
X161258655Y-123590568D01*
X161191633Y-123570825D01*
X161145924Y-123517981D01*
X161136041Y-123448814D01*
X161165121Y-123385284D01*
X161171067Y-123378902D01*
X163603440Y-120946530D01*
X168379500Y-120946530D01*
X168379500Y-121453469D01*
X168419868Y-121656412D01*
X168419870Y-121656420D01*
X168499058Y-121847596D01*
X168614024Y-122019657D01*
X168760342Y-122165975D01*
X168760345Y-122165977D01*
X168932402Y-122280941D01*
X169123580Y-122360130D01*
X169311936Y-122397596D01*
X169326530Y-122400499D01*
X169326534Y-122400500D01*
X169326535Y-122400500D01*
X169533466Y-122400500D01*
X169533467Y-122400499D01*
X169736420Y-122360130D01*
X169927598Y-122280941D01*
X170099655Y-122165977D01*
X170245977Y-122019655D01*
X170360941Y-121847598D01*
X170440130Y-121656420D01*
X170480500Y-121453465D01*
X170480500Y-120946535D01*
X170440130Y-120743580D01*
X170360941Y-120552402D01*
X170245977Y-120380345D01*
X170245975Y-120380342D01*
X170099657Y-120234024D01*
X170013626Y-120176541D01*
X169927598Y-120119059D01*
X169736420Y-120039870D01*
X169736412Y-120039868D01*
X169533469Y-119999500D01*
X169533465Y-119999500D01*
X169326535Y-119999500D01*
X169326530Y-119999500D01*
X169123587Y-120039868D01*
X169123579Y-120039870D01*
X168932403Y-120119058D01*
X168760342Y-120234024D01*
X168614024Y-120380342D01*
X168499058Y-120552403D01*
X168419870Y-120743579D01*
X168419868Y-120743587D01*
X168379500Y-120946530D01*
X163603440Y-120946530D01*
X165115460Y-119434511D01*
X165155021Y-119365989D01*
X165175500Y-119289562D01*
X165175500Y-118643982D01*
X165674500Y-118643982D01*
X165674500Y-118756018D01*
X165703497Y-118864237D01*
X165759515Y-118961263D01*
X165838737Y-119040485D01*
X165935763Y-119096503D01*
X166043982Y-119125500D01*
X166043984Y-119125500D01*
X166156016Y-119125500D01*
X166156018Y-119125500D01*
X166264237Y-119096503D01*
X166361263Y-119040485D01*
X166440485Y-118961263D01*
X166496503Y-118864237D01*
X166525500Y-118756018D01*
X166525500Y-118643982D01*
X166496503Y-118535763D01*
X166440485Y-118438737D01*
X166361263Y-118359515D01*
X166264237Y-118303497D01*
X166156018Y-118274500D01*
X166043982Y-118274500D01*
X165935763Y-118303497D01*
X165935760Y-118303498D01*
X165838740Y-118359513D01*
X165838734Y-118359517D01*
X165759517Y-118438734D01*
X165759513Y-118438740D01*
X165703498Y-118535760D01*
X165703497Y-118535763D01*
X165674500Y-118643982D01*
X165175500Y-118643982D01*
X165175500Y-117356630D01*
X174789500Y-117356630D01*
X174789500Y-117583369D01*
X174824969Y-117807314D01*
X174895038Y-118022962D01*
X174997976Y-118224990D01*
X175131242Y-118408416D01*
X175131246Y-118408421D01*
X175291578Y-118568753D01*
X175291583Y-118568757D01*
X175475009Y-118702023D01*
X175475011Y-118702024D01*
X175475014Y-118702026D01*
X175677040Y-118804963D01*
X175892682Y-118875030D01*
X176116630Y-118910500D01*
X176116631Y-118910500D01*
X176343369Y-118910500D01*
X176343370Y-118910500D01*
X176567318Y-118875030D01*
X176782960Y-118804963D01*
X176984986Y-118702026D01*
X177168423Y-118568752D01*
X177328752Y-118408423D01*
X177462026Y-118224986D01*
X177564963Y-118022960D01*
X177635030Y-117807318D01*
X177670500Y-117583370D01*
X177670500Y-117356630D01*
X177635030Y-117132682D01*
X177564963Y-116917040D01*
X177462026Y-116715014D01*
X177462024Y-116715011D01*
X177462023Y-116715009D01*
X177328757Y-116531583D01*
X177328753Y-116531578D01*
X177168421Y-116371246D01*
X177168416Y-116371242D01*
X176984990Y-116237976D01*
X176782962Y-116135038D01*
X176782961Y-116135037D01*
X176782960Y-116135037D01*
X176567318Y-116064970D01*
X176567316Y-116064969D01*
X176567315Y-116064969D01*
X176395283Y-116037722D01*
X176343370Y-116029500D01*
X176116630Y-116029500D01*
X176064716Y-116037722D01*
X175892685Y-116064969D01*
X175677037Y-116135038D01*
X175475009Y-116237976D01*
X175291583Y-116371242D01*
X175291578Y-116371246D01*
X175131246Y-116531578D01*
X175131242Y-116531583D01*
X174997976Y-116715009D01*
X174895038Y-116917037D01*
X174824969Y-117132685D01*
X174789500Y-117356630D01*
X165175500Y-117356630D01*
X165175500Y-112656630D01*
X174789500Y-112656630D01*
X174789500Y-112883369D01*
X174824969Y-113107314D01*
X174895038Y-113322962D01*
X174997976Y-113524990D01*
X175131242Y-113708416D01*
X175131246Y-113708421D01*
X175291578Y-113868753D01*
X175291583Y-113868757D01*
X175475009Y-114002023D01*
X175475011Y-114002024D01*
X175475014Y-114002026D01*
X175677040Y-114104963D01*
X175892682Y-114175030D01*
X176116630Y-114210500D01*
X176116631Y-114210500D01*
X176343369Y-114210500D01*
X176343370Y-114210500D01*
X176567318Y-114175030D01*
X176782960Y-114104963D01*
X176984986Y-114002026D01*
X177168423Y-113868752D01*
X177328752Y-113708423D01*
X177462026Y-113524986D01*
X177564963Y-113322960D01*
X177635030Y-113107318D01*
X177670500Y-112883370D01*
X177670500Y-112656630D01*
X177635030Y-112432682D01*
X177564963Y-112217040D01*
X177462026Y-112015014D01*
X177462024Y-112015011D01*
X177462023Y-112015009D01*
X177328757Y-111831583D01*
X177328753Y-111831578D01*
X177168421Y-111671246D01*
X177168416Y-111671242D01*
X176984990Y-111537976D01*
X176782962Y-111435038D01*
X176782961Y-111435037D01*
X176782960Y-111435037D01*
X176567318Y-111364970D01*
X176567316Y-111364969D01*
X176567315Y-111364969D01*
X176395283Y-111337722D01*
X176343370Y-111329500D01*
X176116630Y-111329500D01*
X176064716Y-111337722D01*
X175892685Y-111364969D01*
X175677037Y-111435038D01*
X175475009Y-111537976D01*
X175291583Y-111671242D01*
X175291578Y-111671246D01*
X175131246Y-111831578D01*
X175131242Y-111831583D01*
X174997976Y-112015009D01*
X174895038Y-112217037D01*
X174824969Y-112432685D01*
X174789500Y-112656630D01*
X165175500Y-112656630D01*
X165175500Y-111320519D01*
X165195185Y-111253480D01*
X165247989Y-111207725D01*
X165317147Y-111197781D01*
X165331580Y-111200741D01*
X165423982Y-111225500D01*
X165423985Y-111225500D01*
X165536016Y-111225500D01*
X165536018Y-111225500D01*
X165644237Y-111196503D01*
X165741263Y-111140485D01*
X165820485Y-111061263D01*
X165876503Y-110964237D01*
X165905500Y-110856018D01*
X165905500Y-110743982D01*
X165876503Y-110635763D01*
X165820485Y-110538737D01*
X165741263Y-110459515D01*
X165647616Y-110405448D01*
X165644239Y-110403498D01*
X165644238Y-110403497D01*
X165644237Y-110403497D01*
X165536018Y-110374500D01*
X165423982Y-110374500D01*
X165423980Y-110374500D01*
X165331592Y-110399255D01*
X165306598Y-110398659D01*
X165281853Y-110402218D01*
X165272272Y-110397842D01*
X165261743Y-110397592D01*
X165241038Y-110383578D01*
X165218297Y-110373193D01*
X165212603Y-110364332D01*
X165203880Y-110358429D01*
X165194038Y-110335445D01*
X165180523Y-110314415D01*
X165178243Y-110298557D01*
X165176377Y-110294200D01*
X165175500Y-110279480D01*
X165175500Y-110095655D01*
X165195185Y-110028616D01*
X165247989Y-109982861D01*
X165317147Y-109972917D01*
X165361497Y-109988266D01*
X165375763Y-109996503D01*
X165483982Y-110025500D01*
X165483984Y-110025500D01*
X165596016Y-110025500D01*
X165596018Y-110025500D01*
X165704237Y-109996503D01*
X165801263Y-109940485D01*
X165880485Y-109861263D01*
X165889453Y-109845730D01*
X183494500Y-109845730D01*
X183494500Y-111154269D01*
X183497353Y-111184699D01*
X183497353Y-111184701D01*
X183542206Y-111312880D01*
X183542207Y-111312882D01*
X183622850Y-111422150D01*
X183732118Y-111502793D01*
X183774845Y-111517744D01*
X183860299Y-111547646D01*
X183890730Y-111550500D01*
X183890734Y-111550500D01*
X185449270Y-111550500D01*
X185479699Y-111547646D01*
X185479701Y-111547646D01*
X185543790Y-111525219D01*
X185607882Y-111502793D01*
X185717150Y-111422150D01*
X185797793Y-111312882D01*
X185837032Y-111200744D01*
X185842646Y-111184701D01*
X185842646Y-111184699D01*
X185845500Y-111154269D01*
X185845500Y-109845730D01*
X185842646Y-109815300D01*
X185842646Y-109815298D01*
X185797793Y-109687119D01*
X185797792Y-109687117D01*
X185717150Y-109577850D01*
X185607882Y-109497207D01*
X185607880Y-109497206D01*
X185479700Y-109452353D01*
X185449270Y-109449500D01*
X185449266Y-109449500D01*
X183890734Y-109449500D01*
X183890730Y-109449500D01*
X183860300Y-109452353D01*
X183860298Y-109452353D01*
X183732119Y-109497206D01*
X183732117Y-109497207D01*
X183622850Y-109577850D01*
X183542207Y-109687117D01*
X183542206Y-109687119D01*
X183497353Y-109815298D01*
X183497353Y-109815300D01*
X183494500Y-109845730D01*
X165889453Y-109845730D01*
X165936503Y-109764237D01*
X165965500Y-109656018D01*
X165965500Y-109543982D01*
X165936503Y-109435763D01*
X165880485Y-109338737D01*
X165801263Y-109259515D01*
X165718502Y-109211733D01*
X165704239Y-109203498D01*
X165704238Y-109203497D01*
X165704237Y-109203497D01*
X165596018Y-109174500D01*
X165483982Y-109174500D01*
X165375763Y-109203497D01*
X165375760Y-109203498D01*
X165361497Y-109211733D01*
X165293597Y-109228203D01*
X165227570Y-109205350D01*
X165184381Y-109150427D01*
X165175500Y-109104344D01*
X165175500Y-106143982D01*
X177374500Y-106143982D01*
X177374500Y-106256018D01*
X177403497Y-106364237D01*
X177459515Y-106461263D01*
X177538737Y-106540485D01*
X177635763Y-106596503D01*
X177743982Y-106625500D01*
X177743984Y-106625500D01*
X177856016Y-106625500D01*
X177856018Y-106625500D01*
X177964237Y-106596503D01*
X178061263Y-106540485D01*
X178140485Y-106461263D01*
X178196503Y-106364237D01*
X178225500Y-106256018D01*
X178225500Y-106143982D01*
X178196503Y-106035763D01*
X178140485Y-105938737D01*
X178061263Y-105859515D01*
X177964237Y-105803497D01*
X177856018Y-105774500D01*
X177743982Y-105774500D01*
X177635763Y-105803497D01*
X177635760Y-105803498D01*
X177538740Y-105859513D01*
X177538734Y-105859517D01*
X177459517Y-105938734D01*
X177459513Y-105938740D01*
X177403498Y-106035760D01*
X177403497Y-106035763D01*
X177374500Y-106143982D01*
X165175500Y-106143982D01*
X165175500Y-105396530D01*
X183494500Y-105396530D01*
X183494500Y-105603469D01*
X183534868Y-105806412D01*
X183534870Y-105806420D01*
X183589676Y-105938734D01*
X183614059Y-105997598D01*
X183639558Y-106035760D01*
X183729024Y-106169657D01*
X183875342Y-106315975D01*
X183875345Y-106315977D01*
X184047402Y-106430941D01*
X184238580Y-106510130D01*
X184391171Y-106540482D01*
X184441530Y-106550499D01*
X184441534Y-106550500D01*
X184441535Y-106550500D01*
X184898466Y-106550500D01*
X184898467Y-106550499D01*
X185101420Y-106510130D01*
X185292598Y-106430941D01*
X185464655Y-106315977D01*
X185610977Y-106169655D01*
X185725941Y-105997598D01*
X185805130Y-105806420D01*
X185845500Y-105603465D01*
X185845500Y-105396535D01*
X185805130Y-105193580D01*
X185725941Y-105002402D01*
X185610977Y-104830345D01*
X185610975Y-104830342D01*
X185464657Y-104684024D01*
X185371459Y-104621752D01*
X185292598Y-104569059D01*
X185101420Y-104489870D01*
X185101412Y-104489868D01*
X184898469Y-104449500D01*
X184898465Y-104449500D01*
X184441535Y-104449500D01*
X184441530Y-104449500D01*
X184238587Y-104489868D01*
X184238579Y-104489870D01*
X184047403Y-104569058D01*
X183875342Y-104684024D01*
X183729024Y-104830342D01*
X183614058Y-105002403D01*
X183534870Y-105193579D01*
X183534868Y-105193587D01*
X183494500Y-105396530D01*
X165175500Y-105396530D01*
X165175500Y-100043982D01*
X177974500Y-100043982D01*
X177974500Y-100156018D01*
X178003497Y-100264237D01*
X178059515Y-100361263D01*
X178138737Y-100440485D01*
X178235763Y-100496503D01*
X178343982Y-100525500D01*
X178343984Y-100525500D01*
X178456016Y-100525500D01*
X178456018Y-100525500D01*
X178564237Y-100496503D01*
X178661263Y-100440485D01*
X178740485Y-100361263D01*
X178796503Y-100264237D01*
X178825500Y-100156018D01*
X178825500Y-100043982D01*
X178796503Y-99935763D01*
X178740485Y-99838737D01*
X178661263Y-99759515D01*
X178596579Y-99722169D01*
X178564239Y-99703498D01*
X178564238Y-99703497D01*
X178564237Y-99703497D01*
X178456018Y-99674500D01*
X178343982Y-99674500D01*
X178235763Y-99703497D01*
X178235760Y-99703498D01*
X178138740Y-99759513D01*
X178138734Y-99759517D01*
X178059517Y-99838734D01*
X178059513Y-99838740D01*
X178003498Y-99935760D01*
X178003497Y-99935763D01*
X177974500Y-100043982D01*
X165175500Y-100043982D01*
X165175500Y-99043982D01*
X178662000Y-99043982D01*
X178662000Y-99156018D01*
X178690997Y-99264237D01*
X178747015Y-99361263D01*
X178826237Y-99440485D01*
X178923263Y-99496503D01*
X179031482Y-99525500D01*
X179031484Y-99525500D01*
X179143516Y-99525500D01*
X179143518Y-99525500D01*
X179251737Y-99496503D01*
X179348763Y-99440485D01*
X179427985Y-99361263D01*
X179484003Y-99264237D01*
X179513000Y-99156018D01*
X179513000Y-99043982D01*
X179484003Y-98935763D01*
X179427985Y-98838737D01*
X179348763Y-98759515D01*
X179251737Y-98703497D01*
X179143518Y-98674500D01*
X179031482Y-98674500D01*
X178923263Y-98703497D01*
X178923260Y-98703498D01*
X178826240Y-98759513D01*
X178826234Y-98759517D01*
X178747017Y-98838734D01*
X178747013Y-98838740D01*
X178690998Y-98935760D01*
X178690997Y-98935763D01*
X178662000Y-99043982D01*
X165175500Y-99043982D01*
X165175500Y-92036631D01*
X165195185Y-91969592D01*
X165211819Y-91948950D01*
X165264789Y-91895980D01*
X165320807Y-91798954D01*
X165349804Y-91690735D01*
X165349804Y-91578699D01*
X165320807Y-91470480D01*
X165264789Y-91373454D01*
X165185567Y-91294232D01*
X165088541Y-91238214D01*
X164980322Y-91209217D01*
X164868286Y-91209217D01*
X164760067Y-91238214D01*
X164760064Y-91238215D01*
X164663044Y-91294230D01*
X164663038Y-91294234D01*
X164583821Y-91373451D01*
X164583817Y-91373457D01*
X164527802Y-91470477D01*
X164527801Y-91470480D01*
X164498804Y-91578699D01*
X164498804Y-91690735D01*
X164527801Y-91798954D01*
X164554674Y-91845500D01*
X164557887Y-91851064D01*
X164574500Y-91913064D01*
X164574500Y-119074166D01*
X164554815Y-119141205D01*
X164538181Y-119161847D01*
X160547473Y-123152554D01*
X160486150Y-123186039D01*
X160459684Y-123188873D01*
X156706680Y-123185605D01*
X156639658Y-123165862D01*
X156593949Y-123113018D01*
X156584066Y-123043851D01*
X156613146Y-122980321D01*
X156671957Y-122942597D01*
X156682600Y-122939987D01*
X156688231Y-122938867D01*
X156754552Y-122894552D01*
X156798867Y-122828231D01*
X156798867Y-122828229D01*
X156798868Y-122828229D01*
X156810499Y-122769752D01*
X156810500Y-122769750D01*
X156810500Y-122324500D01*
X156830185Y-122257461D01*
X156882989Y-122211706D01*
X156934500Y-122200500D01*
X157479560Y-122200500D01*
X157479562Y-122200500D01*
X157555989Y-122180021D01*
X157624511Y-122140460D01*
X157680460Y-122084511D01*
X162264460Y-117500511D01*
X162304021Y-117431989D01*
X162324500Y-117355562D01*
X162324500Y-90676832D01*
X162344185Y-90609793D01*
X162360819Y-90589151D01*
X162575470Y-90374500D01*
X162602397Y-90359796D01*
X162628216Y-90343204D01*
X162634416Y-90342312D01*
X162636793Y-90341015D01*
X162663151Y-90338181D01*
X162768648Y-90338181D01*
X162835687Y-90357866D01*
X162876035Y-90400181D01*
X162879590Y-90406338D01*
X163243662Y-90770410D01*
X163255132Y-90777032D01*
X163280814Y-90796739D01*
X163401263Y-90917188D01*
X163434748Y-90978511D01*
X163437582Y-91004869D01*
X163437582Y-91010054D01*
X163456195Y-91079517D01*
X163466579Y-91118272D01*
X163466580Y-91118275D01*
X163485185Y-91150499D01*
X163522597Y-91215299D01*
X163601819Y-91294521D01*
X163698845Y-91350539D01*
X163807064Y-91379536D01*
X163807066Y-91379536D01*
X163919098Y-91379536D01*
X163919100Y-91379536D01*
X164027319Y-91350539D01*
X164124345Y-91294521D01*
X164203567Y-91215299D01*
X164259585Y-91118273D01*
X164288582Y-91010054D01*
X164288582Y-90898018D01*
X164259585Y-90789799D01*
X164203567Y-90692773D01*
X164203561Y-90692767D01*
X164198620Y-90686327D01*
X164200100Y-90685191D01*
X164171565Y-90632933D01*
X164176549Y-90563241D01*
X164218421Y-90507308D01*
X164283885Y-90482891D01*
X164292731Y-90482575D01*
X165156242Y-90482575D01*
X165223281Y-90502260D01*
X165243923Y-90518894D01*
X173040489Y-98315460D01*
X173109012Y-98355022D01*
X173185438Y-98375500D01*
X173347390Y-98375500D01*
X173414429Y-98395185D01*
X173435071Y-98411819D01*
X173438737Y-98415485D01*
X173535763Y-98471503D01*
X173643982Y-98500500D01*
X173643984Y-98500500D01*
X173756016Y-98500500D01*
X173756018Y-98500500D01*
X173864237Y-98471503D01*
X173961263Y-98415485D01*
X174040485Y-98336263D01*
X174047825Y-98323548D01*
X174098388Y-98275333D01*
X174166995Y-98262107D01*
X174231861Y-98288072D01*
X174242894Y-98297865D01*
X174285489Y-98340460D01*
X174285491Y-98340461D01*
X174285495Y-98340464D01*
X174346180Y-98375500D01*
X174354011Y-98380021D01*
X174430438Y-98400500D01*
X179414167Y-98400500D01*
X179481206Y-98420185D01*
X179501848Y-98436819D01*
X183541814Y-102476785D01*
X183575299Y-102538108D01*
X183570315Y-102607800D01*
X183568695Y-102611917D01*
X183534871Y-102693579D01*
X183534869Y-102693583D01*
X183534867Y-102693587D01*
X183494500Y-102896530D01*
X183494500Y-103103469D01*
X183534868Y-103306412D01*
X183534870Y-103306420D01*
X183614058Y-103497596D01*
X183729024Y-103669657D01*
X183875342Y-103815975D01*
X183875345Y-103815977D01*
X184047402Y-103930941D01*
X184238580Y-104010130D01*
X184441530Y-104050499D01*
X184441534Y-104050500D01*
X184441535Y-104050500D01*
X184898466Y-104050500D01*
X184898467Y-104050499D01*
X185101420Y-104010130D01*
X185292598Y-103930941D01*
X185464655Y-103815977D01*
X185610977Y-103669655D01*
X185725941Y-103497598D01*
X185805130Y-103306420D01*
X185845500Y-103103465D01*
X185845500Y-102896535D01*
X185805130Y-102693580D01*
X185725941Y-102502402D01*
X185610977Y-102330345D01*
X185610975Y-102330342D01*
X185464657Y-102184024D01*
X185333306Y-102096259D01*
X185292598Y-102069059D01*
X185101420Y-101989870D01*
X185101412Y-101989868D01*
X184898469Y-101949500D01*
X184898465Y-101949500D01*
X184441535Y-101949500D01*
X184441530Y-101949500D01*
X184238587Y-101989868D01*
X184238579Y-101989870D01*
X184079138Y-102055913D01*
X184009668Y-102063382D01*
X183947189Y-102032107D01*
X183944004Y-102029033D01*
X182311501Y-100396530D01*
X183494500Y-100396530D01*
X183494500Y-100603469D01*
X183534868Y-100806412D01*
X183534870Y-100806420D01*
X183614058Y-100997596D01*
X183729024Y-101169657D01*
X183875342Y-101315975D01*
X183875345Y-101315977D01*
X184047402Y-101430941D01*
X184238580Y-101510130D01*
X184357337Y-101533752D01*
X184441530Y-101550499D01*
X184441534Y-101550500D01*
X184441535Y-101550500D01*
X184898466Y-101550500D01*
X184898467Y-101550499D01*
X185101420Y-101510130D01*
X185292598Y-101430941D01*
X185464655Y-101315977D01*
X185610977Y-101169655D01*
X185725941Y-100997598D01*
X185805130Y-100806420D01*
X185845500Y-100603465D01*
X185845500Y-100396535D01*
X185805130Y-100193580D01*
X185725941Y-100002402D01*
X185610977Y-99830345D01*
X185610975Y-99830342D01*
X185464657Y-99684024D01*
X185378626Y-99626541D01*
X185292598Y-99569059D01*
X185187435Y-99525499D01*
X185101420Y-99489870D01*
X185101412Y-99489868D01*
X184898469Y-99449500D01*
X184898465Y-99449500D01*
X184441535Y-99449500D01*
X184441530Y-99449500D01*
X184238587Y-99489868D01*
X184238579Y-99489870D01*
X184047403Y-99569058D01*
X183875342Y-99684024D01*
X183729024Y-99830342D01*
X183614058Y-100002403D01*
X183534870Y-100193579D01*
X183534868Y-100193587D01*
X183494500Y-100396530D01*
X182311501Y-100396530D01*
X179894569Y-97979598D01*
X179811501Y-97896530D01*
X183494500Y-97896530D01*
X183494500Y-98103469D01*
X183534868Y-98306412D01*
X183534870Y-98306420D01*
X183613604Y-98496501D01*
X183614059Y-98497598D01*
X183659449Y-98565529D01*
X183729024Y-98669657D01*
X183875342Y-98815975D01*
X183875345Y-98815977D01*
X184047402Y-98930941D01*
X184238580Y-99010130D01*
X184408767Y-99043982D01*
X184441530Y-99050499D01*
X184441534Y-99050500D01*
X184441535Y-99050500D01*
X184898466Y-99050500D01*
X184898467Y-99050499D01*
X185101420Y-99010130D01*
X185292598Y-98930941D01*
X185464655Y-98815977D01*
X185610977Y-98669655D01*
X185725941Y-98497598D01*
X185805130Y-98306420D01*
X185845500Y-98103465D01*
X185845500Y-97896535D01*
X185805130Y-97693580D01*
X185725941Y-97502402D01*
X185610977Y-97330345D01*
X185610975Y-97330342D01*
X185464657Y-97184024D01*
X185378626Y-97126541D01*
X185292598Y-97069059D01*
X185101420Y-96989870D01*
X185101412Y-96989868D01*
X184898469Y-96949500D01*
X184898465Y-96949500D01*
X184441535Y-96949500D01*
X184441530Y-96949500D01*
X184238587Y-96989868D01*
X184238579Y-96989870D01*
X184047403Y-97069058D01*
X183875342Y-97184024D01*
X183729024Y-97330342D01*
X183614058Y-97502403D01*
X183534870Y-97693579D01*
X183534868Y-97693587D01*
X183494500Y-97896530D01*
X179811501Y-97896530D01*
X179774511Y-97859540D01*
X179765066Y-97854087D01*
X179705991Y-97819980D01*
X179705990Y-97819979D01*
X179680513Y-97813152D01*
X179629562Y-97799500D01*
X179629560Y-97799500D01*
X174645833Y-97799500D01*
X174578794Y-97779815D01*
X174558152Y-97763181D01*
X167370701Y-90575730D01*
X183634500Y-90575730D01*
X183634500Y-91884269D01*
X183637353Y-91914699D01*
X183637353Y-91914701D01*
X183682206Y-92042880D01*
X183682207Y-92042882D01*
X183762850Y-92152150D01*
X183872118Y-92232793D01*
X183914845Y-92247744D01*
X184000299Y-92277646D01*
X184030730Y-92280500D01*
X184030734Y-92280500D01*
X185589270Y-92280500D01*
X185619699Y-92277646D01*
X185619701Y-92277646D01*
X185683790Y-92255219D01*
X185747882Y-92232793D01*
X185857150Y-92152150D01*
X185937793Y-92042882D01*
X185970661Y-91948950D01*
X185982646Y-91914701D01*
X185982646Y-91914699D01*
X185985500Y-91884269D01*
X185985500Y-90575730D01*
X185982646Y-90545300D01*
X185982646Y-90545298D01*
X185937793Y-90417119D01*
X185937792Y-90417117D01*
X185857150Y-90307850D01*
X185747882Y-90227207D01*
X185747880Y-90227206D01*
X185619700Y-90182353D01*
X185589270Y-90179500D01*
X185589266Y-90179500D01*
X184030734Y-90179500D01*
X184030730Y-90179500D01*
X184000300Y-90182353D01*
X184000298Y-90182353D01*
X183872119Y-90227206D01*
X183872117Y-90227207D01*
X183762850Y-90307850D01*
X183682207Y-90417117D01*
X183682206Y-90417119D01*
X183637353Y-90545298D01*
X183637353Y-90545300D01*
X183634500Y-90575730D01*
X167370701Y-90575730D01*
X166111949Y-89316978D01*
X166078464Y-89255655D01*
X166083448Y-89185963D01*
X166125320Y-89130030D01*
X166137630Y-89121910D01*
X166160777Y-89108546D01*
X166237495Y-89064253D01*
X166316717Y-88985031D01*
X166372735Y-88888005D01*
X166401732Y-88779786D01*
X166401732Y-88667750D01*
X166372735Y-88559531D01*
X166316717Y-88462505D01*
X166237495Y-88383283D01*
X166172811Y-88345937D01*
X166140471Y-88327266D01*
X166140470Y-88327265D01*
X166140469Y-88327265D01*
X166032250Y-88298268D01*
X166032249Y-88298268D01*
X165999601Y-88298268D01*
X165932562Y-88278583D01*
X165911920Y-88261949D01*
X165493953Y-87843982D01*
X177674500Y-87843982D01*
X177674500Y-87956018D01*
X177682865Y-87987234D01*
X177703497Y-88064236D01*
X177703498Y-88064239D01*
X177704218Y-88065486D01*
X177759515Y-88161263D01*
X177838737Y-88240485D01*
X177935763Y-88296503D01*
X178043982Y-88325500D01*
X178043984Y-88325500D01*
X178156016Y-88325500D01*
X178156018Y-88325500D01*
X178264237Y-88296503D01*
X178361263Y-88240485D01*
X178440485Y-88161263D01*
X178496503Y-88064237D01*
X178525500Y-87956018D01*
X178525500Y-87843982D01*
X178496503Y-87735763D01*
X178440485Y-87638737D01*
X178361263Y-87559515D01*
X178264237Y-87503497D01*
X178156018Y-87474500D01*
X178043982Y-87474500D01*
X177935763Y-87503497D01*
X177935760Y-87503498D01*
X177838740Y-87559513D01*
X177838734Y-87559517D01*
X177759517Y-87638734D01*
X177759513Y-87638740D01*
X177703498Y-87735760D01*
X177703497Y-87735763D01*
X177674500Y-87843982D01*
X165493953Y-87843982D01*
X164656510Y-87006539D01*
X164635527Y-86994425D01*
X164614543Y-86982310D01*
X164608930Y-86979069D01*
X164587990Y-86966979D01*
X164587991Y-86966979D01*
X164549775Y-86956739D01*
X164511562Y-86946500D01*
X161535438Y-86946500D01*
X161535436Y-86946500D01*
X161527382Y-86947561D01*
X161527262Y-86946656D01*
X161510101Y-86948915D01*
X161125248Y-86948915D01*
X161058209Y-86929230D01*
X161037567Y-86912596D01*
X160563152Y-86438181D01*
X160529667Y-86376858D01*
X160534651Y-86307166D01*
X160576523Y-86251233D01*
X160641987Y-86226816D01*
X160650833Y-86226500D01*
X171891851Y-86226500D01*
X171891853Y-86226500D01*
X171973121Y-86204724D01*
X172005212Y-86200500D01*
X172031016Y-86200500D01*
X172031018Y-86200500D01*
X172139237Y-86171503D01*
X172236263Y-86115485D01*
X172315485Y-86036263D01*
X172371503Y-85939237D01*
X172400500Y-85831018D01*
X172400500Y-85718982D01*
X172371503Y-85610763D01*
X172315485Y-85513737D01*
X172236263Y-85434515D01*
X172139237Y-85378497D01*
X172031018Y-85349500D01*
X171918982Y-85349500D01*
X171810763Y-85378497D01*
X171810760Y-85378498D01*
X171713740Y-85434513D01*
X171713734Y-85434517D01*
X171634517Y-85513734D01*
X171629567Y-85520186D01*
X171628498Y-85519366D01*
X171584087Y-85561715D01*
X171527265Y-85575500D01*
X160839069Y-85575500D01*
X160809628Y-85566855D01*
X160779642Y-85560332D01*
X160774626Y-85556577D01*
X160772030Y-85555815D01*
X160751388Y-85539181D01*
X160736819Y-85524612D01*
X160703334Y-85463289D01*
X160700500Y-85436931D01*
X160700500Y-85431748D01*
X160700500Y-85431746D01*
X160671503Y-85323527D01*
X160615485Y-85226501D01*
X160536263Y-85147279D01*
X160457801Y-85101979D01*
X160439239Y-85091262D01*
X160439238Y-85091261D01*
X160439237Y-85091261D01*
X160331018Y-85062264D01*
X160218982Y-85062264D01*
X160110763Y-85091261D01*
X160110760Y-85091262D01*
X160013740Y-85147277D01*
X160013734Y-85147281D01*
X159934517Y-85226498D01*
X159934513Y-85226504D01*
X159878498Y-85323524D01*
X159878497Y-85323527D01*
X159849500Y-85431746D01*
X159848439Y-85439806D01*
X159845321Y-85439395D01*
X159829815Y-85492206D01*
X159777011Y-85537961D01*
X159707853Y-85547905D01*
X159644297Y-85518880D01*
X159637819Y-85512848D01*
X159395466Y-85270495D01*
X159361981Y-85209172D01*
X159359147Y-85182814D01*
X159359147Y-85092984D01*
X159359147Y-85092982D01*
X159330150Y-84984763D01*
X159274132Y-84887737D01*
X159194910Y-84808515D01*
X159130226Y-84771169D01*
X159097886Y-84752498D01*
X159097885Y-84752497D01*
X159097884Y-84752497D01*
X158989665Y-84723500D01*
X158877629Y-84723500D01*
X158769410Y-84752497D01*
X158769407Y-84752498D01*
X158672387Y-84808513D01*
X158672381Y-84808517D01*
X158593164Y-84887734D01*
X158593160Y-84887740D01*
X158537145Y-84984760D01*
X158537144Y-84984763D01*
X158508147Y-85092982D01*
X158508147Y-85205018D01*
X158537144Y-85313237D01*
X158593162Y-85410263D01*
X158672384Y-85489485D01*
X158769410Y-85545503D01*
X158769411Y-85545503D01*
X158769411Y-85545504D01*
X158807149Y-85555615D01*
X158862738Y-85587709D01*
X160413263Y-87138234D01*
X160446748Y-87199557D01*
X160441764Y-87269249D01*
X160399892Y-87325182D01*
X160334428Y-87349599D01*
X160325582Y-87349915D01*
X160135023Y-87349915D01*
X160102077Y-87358743D01*
X160058594Y-87370394D01*
X160034134Y-87384517D01*
X159999488Y-87404520D01*
X159994781Y-87407237D01*
X159990073Y-87409955D01*
X159990071Y-87409957D01*
X158386848Y-89013181D01*
X158325525Y-89046666D01*
X158299167Y-89049500D01*
X157839421Y-89049500D01*
X157772382Y-89029815D01*
X157726627Y-88977011D01*
X157716683Y-88907853D01*
X157745708Y-88844297D01*
X157751740Y-88837819D01*
X157965456Y-88624103D01*
X157965460Y-88624099D01*
X157973312Y-88610499D01*
X157974882Y-88607780D01*
X157974882Y-88607779D01*
X158005021Y-88555577D01*
X158025500Y-88479150D01*
X158025500Y-83843982D01*
X159598500Y-83843982D01*
X159598500Y-83956018D01*
X159627497Y-84064237D01*
X159683515Y-84161263D01*
X159762737Y-84240485D01*
X159859763Y-84296503D01*
X159967982Y-84325500D01*
X159967984Y-84325500D01*
X160080015Y-84325500D01*
X160080018Y-84325500D01*
X160165064Y-84302712D01*
X160234910Y-84304375D01*
X160284835Y-84334806D01*
X160634540Y-84684511D01*
X160690489Y-84740460D01*
X160690491Y-84740461D01*
X160690495Y-84740464D01*
X160733319Y-84765188D01*
X160759011Y-84780021D01*
X160835438Y-84800500D01*
X160914562Y-84800500D01*
X173074167Y-84800500D01*
X173141206Y-84820185D01*
X173161848Y-84836819D01*
X174548181Y-86223152D01*
X174581666Y-86284475D01*
X174584500Y-86310833D01*
X174584500Y-86316018D01*
X174609549Y-86409500D01*
X174613497Y-86424236D01*
X174613498Y-86424239D01*
X174623303Y-86441221D01*
X174669515Y-86521263D01*
X174748737Y-86600485D01*
X174845763Y-86656503D01*
X174953982Y-86685500D01*
X174953984Y-86685500D01*
X175066016Y-86685500D01*
X175066018Y-86685500D01*
X175174237Y-86656503D01*
X175271263Y-86600485D01*
X175350485Y-86521263D01*
X175406503Y-86424237D01*
X175435500Y-86316018D01*
X175435500Y-86203982D01*
X175406503Y-86095763D01*
X175350485Y-85998737D01*
X175271263Y-85919515D01*
X175174237Y-85863497D01*
X175066018Y-85834500D01*
X175066017Y-85834500D01*
X175060833Y-85834500D01*
X174993794Y-85814815D01*
X174973152Y-85798181D01*
X173434512Y-84259541D01*
X173434507Y-84259537D01*
X173419099Y-84250641D01*
X173419097Y-84250641D01*
X173387009Y-84232115D01*
X173365990Y-84219979D01*
X173340513Y-84213152D01*
X173289562Y-84199500D01*
X173289560Y-84199500D01*
X161050833Y-84199500D01*
X160983794Y-84179815D01*
X160963152Y-84163181D01*
X160459512Y-83659541D01*
X160459511Y-83659540D01*
X160434872Y-83645315D01*
X160390989Y-83619979D01*
X160352022Y-83609537D01*
X160343278Y-83605678D01*
X160328132Y-83592889D01*
X160305665Y-83579917D01*
X160285265Y-83559517D01*
X160285263Y-83559515D01*
X160188237Y-83503497D01*
X160080018Y-83474500D01*
X159967982Y-83474500D01*
X159859763Y-83503497D01*
X159859760Y-83503498D01*
X159762740Y-83559513D01*
X159762734Y-83559517D01*
X159683517Y-83638734D01*
X159683513Y-83638740D01*
X159627498Y-83735760D01*
X159627497Y-83735763D01*
X159598500Y-83843982D01*
X158025500Y-83843982D01*
X158025500Y-81460438D01*
X158005021Y-81384011D01*
X157975839Y-81333466D01*
X157965464Y-81315495D01*
X157965458Y-81315487D01*
X157136819Y-80486848D01*
X157103334Y-80425525D01*
X157100500Y-80399167D01*
X157100500Y-80393984D01*
X157100500Y-80393982D01*
X157071503Y-80285763D01*
X157015485Y-80188737D01*
X156936263Y-80109515D01*
X156839237Y-80053497D01*
X156731018Y-80024500D01*
X156641859Y-80024500D01*
X156574820Y-80004815D01*
X156529065Y-79952011D01*
X156519121Y-79882853D01*
X156522084Y-79868407D01*
X156526079Y-79853497D01*
X156545500Y-79781018D01*
X156545500Y-79668982D01*
X156516503Y-79560763D01*
X156460485Y-79463737D01*
X156381263Y-79384515D01*
X156284237Y-79328497D01*
X156176018Y-79299500D01*
X156063982Y-79299500D01*
X155955763Y-79328497D01*
X155955760Y-79328498D01*
X155906500Y-79356939D01*
X155838600Y-79373412D01*
X155772573Y-79350559D01*
X155729382Y-79295638D01*
X155720500Y-79249552D01*
X155720500Y-78933984D01*
X156644938Y-78933984D01*
X156644938Y-79046020D01*
X156673935Y-79154239D01*
X156729953Y-79251265D01*
X156809175Y-79330487D01*
X156906201Y-79386505D01*
X157014420Y-79415502D01*
X157014422Y-79415502D01*
X157126454Y-79415502D01*
X157126456Y-79415502D01*
X157234675Y-79386505D01*
X157280248Y-79360193D01*
X157348145Y-79343720D01*
X157414173Y-79366572D01*
X157429928Y-79379899D01*
X158216794Y-80166765D01*
X158250279Y-80228088D01*
X158245295Y-80297780D01*
X158203423Y-80353713D01*
X158191117Y-80361831D01*
X158180008Y-80368245D01*
X158180002Y-80368249D01*
X158100785Y-80447466D01*
X158100781Y-80447472D01*
X158044766Y-80544492D01*
X158044765Y-80544495D01*
X158015768Y-80652714D01*
X158015768Y-80764750D01*
X158044765Y-80872969D01*
X158100783Y-80969995D01*
X158180005Y-81049217D01*
X158277031Y-81105235D01*
X158385250Y-81134232D01*
X158385252Y-81134232D01*
X158497284Y-81134232D01*
X158497286Y-81134232D01*
X158605505Y-81105235D01*
X158702531Y-81049217D01*
X158781753Y-80969995D01*
X158788166Y-80958886D01*
X158838729Y-80910672D01*
X158907336Y-80897447D01*
X158972202Y-80923413D01*
X158983234Y-80933205D01*
X160963181Y-82913152D01*
X160996666Y-82974475D01*
X160999500Y-83000833D01*
X160999500Y-83006018D01*
X161028497Y-83114237D01*
X161084515Y-83211263D01*
X161163737Y-83290485D01*
X161260763Y-83346503D01*
X161368982Y-83375500D01*
X161368984Y-83375500D01*
X161481016Y-83375500D01*
X161481018Y-83375500D01*
X161589237Y-83346503D01*
X161686263Y-83290485D01*
X161765485Y-83211263D01*
X161821503Y-83114237D01*
X161850500Y-83006018D01*
X161850500Y-82893982D01*
X161821503Y-82785763D01*
X161765485Y-82688737D01*
X161686263Y-82609515D01*
X161589237Y-82553497D01*
X161481018Y-82524500D01*
X161481017Y-82524500D01*
X161475833Y-82524500D01*
X161408794Y-82504815D01*
X161388152Y-82488181D01*
X159093953Y-80193982D01*
X160474500Y-80193982D01*
X160474500Y-80306018D01*
X160503497Y-80414237D01*
X160559515Y-80511263D01*
X160638737Y-80590485D01*
X160735763Y-80646503D01*
X160843982Y-80675500D01*
X160843984Y-80675500D01*
X160956016Y-80675500D01*
X160956018Y-80675500D01*
X161064237Y-80646503D01*
X161161263Y-80590485D01*
X161240485Y-80511263D01*
X161296503Y-80414237D01*
X161325500Y-80306018D01*
X161325500Y-80193982D01*
X161296503Y-80085763D01*
X161240485Y-79988737D01*
X161161263Y-79909515D01*
X161064237Y-79853497D01*
X160956018Y-79824500D01*
X160843982Y-79824500D01*
X160735763Y-79853497D01*
X160735760Y-79853498D01*
X160638740Y-79909513D01*
X160638734Y-79909517D01*
X160559517Y-79988734D01*
X160559513Y-79988740D01*
X160503498Y-80085760D01*
X160503497Y-80085763D01*
X160474500Y-80193982D01*
X159093953Y-80193982D01*
X157649514Y-78749543D01*
X157649509Y-78749539D01*
X157640067Y-78744088D01*
X157640066Y-78744088D01*
X157580993Y-78709982D01*
X157580992Y-78709981D01*
X157555515Y-78703154D01*
X157504564Y-78689502D01*
X157504562Y-78689502D01*
X157423048Y-78689502D01*
X157356009Y-78669817D01*
X157335367Y-78653183D01*
X157331703Y-78649519D01*
X157331701Y-78649517D01*
X157234675Y-78593499D01*
X157126456Y-78564502D01*
X157014420Y-78564502D01*
X156906201Y-78593499D01*
X156906198Y-78593500D01*
X156809178Y-78649515D01*
X156809172Y-78649519D01*
X156769190Y-78689502D01*
X156729953Y-78728739D01*
X156729951Y-78728741D01*
X156729951Y-78728742D01*
X156673936Y-78825762D01*
X156673935Y-78825765D01*
X156644938Y-78933984D01*
X155720500Y-78933984D01*
X155720500Y-78929025D01*
X155720500Y-78756635D01*
X155713025Y-78728739D01*
X155700022Y-78680209D01*
X155660460Y-78611686D01*
X155574710Y-78525936D01*
X155542616Y-78470347D01*
X155535761Y-78444763D01*
X155479743Y-78347737D01*
X155400521Y-78268515D01*
X155400519Y-78268514D01*
X155400517Y-78268512D01*
X155332563Y-78229279D01*
X155284347Y-78178712D01*
X155271125Y-78110104D01*
X155297093Y-78045240D01*
X155306874Y-78034219D01*
X158371167Y-74969927D01*
X158410728Y-74901405D01*
X158431207Y-74824978D01*
X158431207Y-74629440D01*
X158450892Y-74562401D01*
X158467526Y-74541759D01*
X158471192Y-74538093D01*
X158527210Y-74441067D01*
X158556207Y-74332848D01*
X158556207Y-74220812D01*
X158527210Y-74112593D01*
X158471192Y-74015567D01*
X158391970Y-73936345D01*
X158294944Y-73880327D01*
X158186725Y-73851330D01*
X158074689Y-73851330D01*
X157966470Y-73880327D01*
X157966467Y-73880328D01*
X157869447Y-73936343D01*
X157869441Y-73936347D01*
X157790224Y-74015564D01*
X157790220Y-74015570D01*
X157734205Y-74112590D01*
X157734204Y-74112593D01*
X157705207Y-74220812D01*
X157705207Y-74332848D01*
X157720249Y-74388984D01*
X157734204Y-74441066D01*
X157734205Y-74441069D01*
X157790220Y-74538090D01*
X157794720Y-74543954D01*
X157819916Y-74609123D01*
X157805879Y-74677568D01*
X157784027Y-74707124D01*
X154120940Y-78370212D01*
X154064992Y-78426159D01*
X154064986Y-78426167D01*
X154025433Y-78494676D01*
X154025430Y-78494681D01*
X154004951Y-78571111D01*
X154004951Y-81124979D01*
X153995515Y-81172425D01*
X153993980Y-81176129D01*
X153993979Y-81176134D01*
X153973500Y-81252561D01*
X153973500Y-81767439D01*
X153980148Y-81792248D01*
X153993979Y-81843868D01*
X153995512Y-81847567D01*
X154004951Y-81895020D01*
X154004951Y-85910593D01*
X153985266Y-85977632D01*
X153932462Y-86023387D01*
X153871081Y-86034200D01*
X153859793Y-86033298D01*
X153835469Y-86026781D01*
X153778166Y-86026781D01*
X153773244Y-86026388D01*
X153745033Y-86015599D01*
X153716075Y-86007096D01*
X153710001Y-86002201D01*
X153707984Y-86001430D01*
X153706440Y-85999332D01*
X153695433Y-85990462D01*
X143340819Y-75635848D01*
X143307334Y-75574525D01*
X143304500Y-75548167D01*
X143304500Y-73698629D01*
X147739751Y-73698629D01*
X147739751Y-73810665D01*
X147768748Y-73918884D01*
X147824766Y-74015910D01*
X147903988Y-74095132D01*
X148001014Y-74151150D01*
X148109233Y-74180147D01*
X148109235Y-74180147D01*
X148221268Y-74180147D01*
X148221269Y-74180147D01*
X148221269Y-74180146D01*
X148229326Y-74179086D01*
X148229606Y-74181214D01*
X148288136Y-74182605D01*
X148338067Y-74213038D01*
X150129413Y-76004384D01*
X150162898Y-76065707D01*
X150165732Y-76092065D01*
X150165732Y-77023622D01*
X150148945Y-77085922D01*
X150140831Y-77099884D01*
X150125747Y-77114969D01*
X150069729Y-77211995D01*
X150064632Y-77231014D01*
X150064632Y-77231016D01*
X150061573Y-77242435D01*
X150025208Y-77302096D01*
X149962361Y-77332625D01*
X149925091Y-77328168D01*
X149924248Y-77328329D01*
X149923328Y-77327958D01*
X149892985Y-77324330D01*
X149861444Y-77302982D01*
X149859456Y-77302180D01*
X149858717Y-77301136D01*
X149854117Y-77298023D01*
X149848699Y-77292605D01*
X149835275Y-77268020D01*
X149819087Y-77245153D01*
X149818755Y-77237768D01*
X149815214Y-77231282D01*
X149812380Y-77204924D01*
X149812380Y-77089583D01*
X149812380Y-77089581D01*
X149783383Y-76981362D01*
X149727365Y-76884336D01*
X149648143Y-76805114D01*
X149551117Y-76749096D01*
X149442898Y-76720099D01*
X149330862Y-76720099D01*
X149222643Y-76749096D01*
X149222640Y-76749097D01*
X149125620Y-76805112D01*
X149125614Y-76805116D01*
X149046397Y-76884333D01*
X149046393Y-76884339D01*
X148990378Y-76981359D01*
X148990377Y-76981361D01*
X148990377Y-76981362D01*
X148973969Y-77042595D01*
X148937606Y-77102253D01*
X148874760Y-77132783D01*
X148854196Y-77134500D01*
X148823982Y-77134500D01*
X148715763Y-77163497D01*
X148715760Y-77163498D01*
X148618740Y-77219513D01*
X148618734Y-77219517D01*
X148539517Y-77298734D01*
X148539513Y-77298740D01*
X148483498Y-77395760D01*
X148483497Y-77395763D01*
X148454500Y-77503982D01*
X148454500Y-77616018D01*
X148483497Y-77724237D01*
X148539515Y-77821263D01*
X148618737Y-77900485D01*
X148715763Y-77956503D01*
X148823982Y-77985500D01*
X148829167Y-77985500D01*
X148896206Y-78005185D01*
X148916848Y-78021819D01*
X149566540Y-78671511D01*
X149622489Y-78727460D01*
X149622491Y-78727461D01*
X149622495Y-78727464D01*
X149651291Y-78744089D01*
X149691011Y-78767021D01*
X149767438Y-78787500D01*
X149767440Y-78787500D01*
X151277560Y-78787500D01*
X151277562Y-78787500D01*
X151353989Y-78767021D01*
X151422511Y-78727460D01*
X151478460Y-78671511D01*
X158118152Y-72031819D01*
X158179475Y-71998334D01*
X158205833Y-71995500D01*
X167619167Y-71995500D01*
X167686206Y-72015185D01*
X167706848Y-72031819D01*
X175763181Y-80088152D01*
X175796666Y-80149475D01*
X175799500Y-80175833D01*
X175799500Y-85779562D01*
X175804489Y-85798181D01*
X175819979Y-85855990D01*
X175819980Y-85855991D01*
X175837506Y-85886347D01*
X175859540Y-85924511D01*
X176399540Y-86464511D01*
X176455489Y-86520460D01*
X176455491Y-86520461D01*
X176455495Y-86520464D01*
X176506425Y-86549868D01*
X176524011Y-86560021D01*
X176600438Y-86580500D01*
X183610275Y-86580500D01*
X183677314Y-86600185D01*
X183723069Y-86652989D01*
X183724836Y-86657048D01*
X183754056Y-86727594D01*
X183869024Y-86899657D01*
X184015342Y-87045975D01*
X184015345Y-87045977D01*
X184187402Y-87160941D01*
X184378580Y-87240130D01*
X184525455Y-87269345D01*
X184581530Y-87280499D01*
X184581534Y-87280500D01*
X184581535Y-87280500D01*
X185038466Y-87280500D01*
X185038467Y-87280499D01*
X185241420Y-87240130D01*
X185432598Y-87160941D01*
X185604655Y-87045977D01*
X185750977Y-86899655D01*
X185865941Y-86727598D01*
X185945130Y-86536420D01*
X185985500Y-86333465D01*
X185985500Y-86126535D01*
X185945130Y-85923580D01*
X185865941Y-85732402D01*
X185750977Y-85560345D01*
X185750975Y-85560342D01*
X185604657Y-85414024D01*
X185469217Y-85323527D01*
X185432598Y-85299059D01*
X185241420Y-85219870D01*
X185241412Y-85219868D01*
X185038469Y-85179500D01*
X185038465Y-85179500D01*
X184581535Y-85179500D01*
X184581530Y-85179500D01*
X184378587Y-85219868D01*
X184378579Y-85219870D01*
X184187403Y-85299058D01*
X184015342Y-85414024D01*
X183869024Y-85560342D01*
X183754057Y-85732403D01*
X183683414Y-85902953D01*
X183639573Y-85957356D01*
X183573279Y-85979421D01*
X183568853Y-85979500D01*
X176815833Y-85979500D01*
X176748794Y-85959815D01*
X176728152Y-85943181D01*
X176436819Y-85651848D01*
X176403334Y-85590525D01*
X176400500Y-85564167D01*
X176400500Y-81824000D01*
X178296982Y-81824000D01*
X178296982Y-81936036D01*
X178325979Y-82044255D01*
X178381997Y-82141281D01*
X178461219Y-82220503D01*
X178558245Y-82276521D01*
X178666464Y-82305518D01*
X178666466Y-82305518D01*
X178778498Y-82305518D01*
X178778500Y-82305518D01*
X178886719Y-82276521D01*
X178983745Y-82220503D01*
X179062967Y-82141281D01*
X179118985Y-82044255D01*
X179147982Y-81936036D01*
X179147982Y-81824000D01*
X179118985Y-81715781D01*
X179062967Y-81618755D01*
X178983745Y-81539533D01*
X178886719Y-81483515D01*
X178778500Y-81454518D01*
X178666464Y-81454518D01*
X178558245Y-81483515D01*
X178558242Y-81483516D01*
X178461222Y-81539531D01*
X178461216Y-81539535D01*
X178381999Y-81618752D01*
X178381995Y-81618758D01*
X178325980Y-81715778D01*
X178325979Y-81715781D01*
X178296982Y-81824000D01*
X176400500Y-81824000D01*
X176400500Y-79960440D01*
X176400500Y-79960438D01*
X176380022Y-79884012D01*
X176340460Y-79815489D01*
X168331152Y-71806181D01*
X168297667Y-71744858D01*
X168302651Y-71675166D01*
X168344523Y-71619233D01*
X168409987Y-71594816D01*
X168418833Y-71594500D01*
X170558167Y-71594500D01*
X170625206Y-71614185D01*
X170645848Y-71630819D01*
X179293695Y-80278666D01*
X179327180Y-80339989D01*
X179322196Y-80409681D01*
X179280324Y-80465614D01*
X179238108Y-80486122D01*
X179173261Y-80503497D01*
X179173260Y-80503498D01*
X179076240Y-80559513D01*
X179076234Y-80559517D01*
X178997017Y-80638734D01*
X178997013Y-80638740D01*
X178940998Y-80735760D01*
X178940997Y-80735763D01*
X178912000Y-80843982D01*
X178912000Y-80956018D01*
X178940997Y-81064237D01*
X178997015Y-81161263D01*
X179076237Y-81240485D01*
X179173263Y-81296503D01*
X179281482Y-81325500D01*
X179281484Y-81325500D01*
X179393516Y-81325500D01*
X179393518Y-81325500D01*
X179501737Y-81296503D01*
X179598763Y-81240485D01*
X179677985Y-81161263D01*
X179734003Y-81064237D01*
X179751378Y-80999390D01*
X179787741Y-80939732D01*
X179850588Y-80909202D01*
X179919963Y-80917496D01*
X179958833Y-80943804D01*
X183035489Y-84020460D01*
X183104012Y-84060022D01*
X183180438Y-84080500D01*
X183259562Y-84080500D01*
X183610275Y-84080500D01*
X183677314Y-84100185D01*
X183723069Y-84152989D01*
X183724836Y-84157048D01*
X183754056Y-84227594D01*
X183869024Y-84399657D01*
X184015342Y-84545975D01*
X184015345Y-84545977D01*
X184187402Y-84660941D01*
X184378580Y-84740130D01*
X184579107Y-84780017D01*
X184581530Y-84780499D01*
X184581534Y-84780500D01*
X184581535Y-84780500D01*
X185038466Y-84780500D01*
X185038467Y-84780499D01*
X185241420Y-84740130D01*
X185432598Y-84660941D01*
X185604655Y-84545977D01*
X185750977Y-84399655D01*
X185865941Y-84227598D01*
X185945130Y-84036420D01*
X185985500Y-83833465D01*
X185985500Y-83626535D01*
X185945130Y-83423580D01*
X185865941Y-83232402D01*
X185750977Y-83060345D01*
X185750975Y-83060342D01*
X185604657Y-82914024D01*
X185517458Y-82855760D01*
X185432598Y-82799059D01*
X185241420Y-82719870D01*
X185241412Y-82719868D01*
X185038469Y-82679500D01*
X185038465Y-82679500D01*
X184581535Y-82679500D01*
X184581530Y-82679500D01*
X184378587Y-82719868D01*
X184378579Y-82719870D01*
X184187403Y-82799058D01*
X184015342Y-82914024D01*
X183869024Y-83060342D01*
X183754057Y-83232403D01*
X183683414Y-83402953D01*
X183670870Y-83418518D01*
X183662566Y-83436703D01*
X183649395Y-83445167D01*
X183639573Y-83457356D01*
X183620605Y-83463668D01*
X183603788Y-83474477D01*
X183576227Y-83478439D01*
X183573279Y-83479421D01*
X183568853Y-83479500D01*
X183395833Y-83479500D01*
X183328794Y-83459815D01*
X183308152Y-83443181D01*
X180991501Y-81126530D01*
X183634500Y-81126530D01*
X183634500Y-81333469D01*
X183674868Y-81536412D01*
X183674870Y-81536420D01*
X183746912Y-81710345D01*
X183754059Y-81727598D01*
X183809346Y-81810342D01*
X183869024Y-81899657D01*
X184015342Y-82045975D01*
X184015345Y-82045977D01*
X184187402Y-82160941D01*
X184378580Y-82240130D01*
X184581530Y-82280499D01*
X184581534Y-82280500D01*
X184581535Y-82280500D01*
X185038466Y-82280500D01*
X185038467Y-82280499D01*
X185241420Y-82240130D01*
X185432598Y-82160941D01*
X185604655Y-82045977D01*
X185750977Y-81899655D01*
X185865941Y-81727598D01*
X185945130Y-81536420D01*
X185985500Y-81333465D01*
X185985500Y-81126535D01*
X185945130Y-80923580D01*
X185865941Y-80732402D01*
X185750977Y-80560345D01*
X185750975Y-80560342D01*
X185604657Y-80414024D01*
X185514394Y-80353713D01*
X185432598Y-80299059D01*
X185429510Y-80297780D01*
X185241420Y-80219870D01*
X185241412Y-80219868D01*
X185038469Y-80179500D01*
X185038465Y-80179500D01*
X184581535Y-80179500D01*
X184581530Y-80179500D01*
X184378587Y-80219868D01*
X184378579Y-80219870D01*
X184187403Y-80299058D01*
X184015342Y-80414024D01*
X183869024Y-80560342D01*
X183754058Y-80732403D01*
X183674870Y-80923579D01*
X183674868Y-80923587D01*
X183634500Y-81126530D01*
X180991501Y-81126530D01*
X178491501Y-78626530D01*
X183634500Y-78626530D01*
X183634500Y-78833469D01*
X183674868Y-79036412D01*
X183674870Y-79036420D01*
X183754058Y-79227596D01*
X183869024Y-79399657D01*
X184015342Y-79545975D01*
X184015345Y-79545977D01*
X184187402Y-79660941D01*
X184378580Y-79740130D01*
X184581530Y-79780499D01*
X184581534Y-79780500D01*
X184581535Y-79780500D01*
X185038466Y-79780500D01*
X185038467Y-79780499D01*
X185241420Y-79740130D01*
X185432598Y-79660941D01*
X185604655Y-79545977D01*
X185750977Y-79399655D01*
X185865941Y-79227598D01*
X185945130Y-79036420D01*
X185985500Y-78833465D01*
X185985500Y-78626535D01*
X185945130Y-78423580D01*
X185865941Y-78232402D01*
X185750977Y-78060345D01*
X185750975Y-78060342D01*
X185604657Y-77914024D01*
X185465823Y-77821259D01*
X185432598Y-77799059D01*
X185392756Y-77782556D01*
X185241420Y-77719870D01*
X185241412Y-77719868D01*
X185038469Y-77679500D01*
X185038465Y-77679500D01*
X184581535Y-77679500D01*
X184581530Y-77679500D01*
X184378587Y-77719868D01*
X184378579Y-77719870D01*
X184187403Y-77799058D01*
X184015342Y-77914024D01*
X183869024Y-78060342D01*
X183754058Y-78232403D01*
X183674870Y-78423579D01*
X183674868Y-78423587D01*
X183634500Y-78626530D01*
X178491501Y-78626530D01*
X170918512Y-71053541D01*
X170918504Y-71053535D01*
X170849995Y-71013982D01*
X170849990Y-71013979D01*
X170824513Y-71007152D01*
X170773562Y-70993500D01*
X170773560Y-70993500D01*
X163676495Y-70993500D01*
X163609456Y-70973815D01*
X163563701Y-70921011D01*
X163553757Y-70851853D01*
X163582782Y-70788297D01*
X163588814Y-70781819D01*
X163645974Y-70724658D01*
X163645975Y-70724657D01*
X163645977Y-70724655D01*
X163760941Y-70552598D01*
X163840130Y-70361420D01*
X163880500Y-70158465D01*
X163880500Y-69701535D01*
X163840130Y-69498580D01*
X163760941Y-69307402D01*
X163645977Y-69135345D01*
X163645975Y-69135342D01*
X163499657Y-68989024D01*
X163413626Y-68931541D01*
X163327598Y-68874059D01*
X163269372Y-68849941D01*
X163136420Y-68794870D01*
X163136412Y-68794868D01*
X162933469Y-68754500D01*
X162933465Y-68754500D01*
X162726535Y-68754500D01*
X162726530Y-68754500D01*
X162523587Y-68794868D01*
X162523579Y-68794870D01*
X162332403Y-68874058D01*
X162160342Y-68989024D01*
X162014024Y-69135342D01*
X161899058Y-69307403D01*
X161819870Y-69498579D01*
X161819868Y-69498587D01*
X161779500Y-69701530D01*
X161779500Y-70158469D01*
X161819868Y-70361412D01*
X161819870Y-70361420D01*
X161899058Y-70552596D01*
X162014024Y-70724657D01*
X162071186Y-70781819D01*
X162104671Y-70843142D01*
X162099687Y-70912834D01*
X162057815Y-70968767D01*
X161992351Y-70993184D01*
X161983505Y-70993500D01*
X161176495Y-70993500D01*
X161109456Y-70973815D01*
X161063701Y-70921011D01*
X161053757Y-70851853D01*
X161082782Y-70788297D01*
X161088814Y-70781819D01*
X161145974Y-70724658D01*
X161145975Y-70724657D01*
X161145977Y-70724655D01*
X161260941Y-70552598D01*
X161340130Y-70361420D01*
X161380500Y-70158465D01*
X161380500Y-69701535D01*
X161340130Y-69498580D01*
X161260941Y-69307402D01*
X161145977Y-69135345D01*
X161145975Y-69135342D01*
X160999657Y-68989024D01*
X160913626Y-68931541D01*
X160827598Y-68874059D01*
X160769372Y-68849941D01*
X160636420Y-68794870D01*
X160636412Y-68794868D01*
X160433469Y-68754500D01*
X160433465Y-68754500D01*
X160226535Y-68754500D01*
X160226530Y-68754500D01*
X160023587Y-68794868D01*
X160023579Y-68794870D01*
X159832403Y-68874058D01*
X159660342Y-68989024D01*
X159514024Y-69135342D01*
X159399058Y-69307403D01*
X159319870Y-69498579D01*
X159319868Y-69498587D01*
X159279500Y-69701530D01*
X159279500Y-70158469D01*
X159319868Y-70361412D01*
X159319870Y-70361420D01*
X159399058Y-70552596D01*
X159514024Y-70724657D01*
X159571186Y-70781819D01*
X159604671Y-70843142D01*
X159599687Y-70912834D01*
X159557815Y-70968767D01*
X159492351Y-70993184D01*
X159483505Y-70993500D01*
X158676495Y-70993500D01*
X158609456Y-70973815D01*
X158563701Y-70921011D01*
X158553757Y-70851853D01*
X158582782Y-70788297D01*
X158588814Y-70781819D01*
X158645974Y-70724658D01*
X158645975Y-70724657D01*
X158645977Y-70724655D01*
X158760941Y-70552598D01*
X158840130Y-70361420D01*
X158880500Y-70158465D01*
X158880500Y-69701535D01*
X158840130Y-69498580D01*
X158760941Y-69307402D01*
X158645977Y-69135345D01*
X158645975Y-69135342D01*
X158499657Y-68989024D01*
X158413626Y-68931541D01*
X158327598Y-68874059D01*
X158269372Y-68849941D01*
X158136420Y-68794870D01*
X158136412Y-68794868D01*
X157933469Y-68754500D01*
X157933465Y-68754500D01*
X157726535Y-68754500D01*
X157726530Y-68754500D01*
X157523587Y-68794868D01*
X157523579Y-68794870D01*
X157332403Y-68874058D01*
X157160342Y-68989024D01*
X157014024Y-69135342D01*
X156899058Y-69307403D01*
X156819870Y-69498579D01*
X156819868Y-69498587D01*
X156779500Y-69701530D01*
X156779500Y-70158469D01*
X156819868Y-70361412D01*
X156819870Y-70361420D01*
X156899058Y-70552596D01*
X157014024Y-70724657D01*
X157160342Y-70870975D01*
X157160345Y-70870977D01*
X157332402Y-70985941D01*
X157454105Y-71036352D01*
X157508508Y-71080193D01*
X157530573Y-71146487D01*
X157513294Y-71214186D01*
X157494333Y-71238594D01*
X151069277Y-77663651D01*
X151007954Y-77697136D01*
X150938262Y-77692152D01*
X150882329Y-77650280D01*
X150857912Y-77584816D01*
X150861821Y-77543876D01*
X150862732Y-77540472D01*
X150862735Y-77540469D01*
X150891732Y-77432250D01*
X150891732Y-77320214D01*
X150862735Y-77211995D01*
X150806717Y-77114969D01*
X150803051Y-77111303D01*
X150769566Y-77049980D01*
X150766732Y-77023622D01*
X150766732Y-75876670D01*
X150755252Y-75833827D01*
X150746253Y-75800243D01*
X150730978Y-75773786D01*
X150706696Y-75731727D01*
X150706690Y-75731719D01*
X149363953Y-74388982D01*
X151774500Y-74388982D01*
X151774500Y-74501018D01*
X151803497Y-74609237D01*
X151859515Y-74706263D01*
X151938737Y-74785485D01*
X152035763Y-74841503D01*
X152143982Y-74870500D01*
X152143984Y-74870500D01*
X152256016Y-74870500D01*
X152256018Y-74870500D01*
X152364237Y-74841503D01*
X152461263Y-74785485D01*
X152540485Y-74706263D01*
X152596503Y-74609237D01*
X152625500Y-74501018D01*
X152625500Y-74388982D01*
X152596503Y-74280763D01*
X152540485Y-74183737D01*
X152461263Y-74104515D01*
X152364237Y-74048497D01*
X152256018Y-74019500D01*
X152143982Y-74019500D01*
X152035763Y-74048497D01*
X152035760Y-74048498D01*
X151938740Y-74104513D01*
X151938734Y-74104517D01*
X151859517Y-74183734D01*
X151859513Y-74183740D01*
X151803498Y-74280760D01*
X151803497Y-74280763D01*
X151774500Y-74388982D01*
X149363953Y-74388982D01*
X148568343Y-73593372D01*
X148548637Y-73567690D01*
X148505740Y-73493390D01*
X148505734Y-73493382D01*
X148426516Y-73414164D01*
X148426514Y-73414162D01*
X148329488Y-73358144D01*
X148221269Y-73329147D01*
X148109233Y-73329147D01*
X148001014Y-73358144D01*
X148001011Y-73358145D01*
X147903991Y-73414160D01*
X147903985Y-73414164D01*
X147824768Y-73493381D01*
X147824764Y-73493387D01*
X147768749Y-73590407D01*
X147768748Y-73590410D01*
X147739751Y-73698629D01*
X143304500Y-73698629D01*
X143304500Y-69150730D01*
X154279500Y-69150730D01*
X154279500Y-70709269D01*
X154282353Y-70739699D01*
X154282353Y-70739701D01*
X154318550Y-70843142D01*
X154327207Y-70867882D01*
X154407850Y-70977150D01*
X154517118Y-71057793D01*
X154559845Y-71072744D01*
X154645299Y-71102646D01*
X154675730Y-71105500D01*
X154675734Y-71105500D01*
X155984270Y-71105500D01*
X156014699Y-71102646D01*
X156014701Y-71102646D01*
X156078866Y-71080193D01*
X156142882Y-71057793D01*
X156252150Y-70977150D01*
X156332793Y-70867882D01*
X156362908Y-70781819D01*
X156377646Y-70739701D01*
X156377646Y-70739699D01*
X156380500Y-70709269D01*
X156380500Y-69150730D01*
X156377646Y-69120300D01*
X156377646Y-69120298D01*
X156332793Y-68992119D01*
X156332792Y-68992117D01*
X156331171Y-68989920D01*
X156252150Y-68882850D01*
X156142882Y-68802207D01*
X156142880Y-68802206D01*
X156014700Y-68757353D01*
X155984270Y-68754500D01*
X155984266Y-68754500D01*
X154675734Y-68754500D01*
X154675730Y-68754500D01*
X154645300Y-68757353D01*
X154645298Y-68757353D01*
X154517119Y-68802206D01*
X154517117Y-68802207D01*
X154407850Y-68882850D01*
X154327207Y-68992117D01*
X154327206Y-68992119D01*
X154282353Y-69120298D01*
X154282353Y-69120300D01*
X154279500Y-69150730D01*
X143304500Y-69150730D01*
X143304500Y-69091833D01*
X143324185Y-69024794D01*
X143340819Y-69004152D01*
X144088152Y-68256819D01*
X144149475Y-68223334D01*
X144175833Y-68220500D01*
X144181016Y-68220500D01*
X144181018Y-68220500D01*
X144289237Y-68191503D01*
X144386263Y-68135485D01*
X144389929Y-68131819D01*
X144451252Y-68098334D01*
X144477610Y-68095500D01*
X152397390Y-68095500D01*
X152464429Y-68115185D01*
X152485071Y-68131819D01*
X152488737Y-68135485D01*
X152585763Y-68191503D01*
X152693982Y-68220500D01*
X152693984Y-68220500D01*
X152806016Y-68220500D01*
X152806018Y-68220500D01*
X152914237Y-68191503D01*
X153011263Y-68135485D01*
X153090485Y-68056263D01*
X153146503Y-67959237D01*
X153175500Y-67851018D01*
X153175500Y-67738982D01*
X153172180Y-67726591D01*
X153173843Y-67656744D01*
X153213006Y-67598881D01*
X153277234Y-67571377D01*
X153291955Y-67570500D01*
X183196499Y-67570500D01*
X183202579Y-67570649D01*
G37*
%TD.AperFunction*%
%TA.AperFunction,Conductor*%
G36*
X143600615Y-67575659D02*
G01*
X143618926Y-67575805D01*
X143633442Y-67585298D01*
X143650084Y-67590185D01*
X143662074Y-67604023D01*
X143677401Y-67614046D01*
X143684480Y-67629881D01*
X143695839Y-67642989D01*
X143698445Y-67661113D01*
X143705919Y-67677830D01*
X143705653Y-67711248D01*
X143705783Y-67712147D01*
X143705641Y-67712838D01*
X143705639Y-67713123D01*
X143704604Y-67719929D01*
X143699500Y-67738982D01*
X143699500Y-67753534D01*
X143698094Y-67762790D01*
X143668564Y-67826113D01*
X143663181Y-67831848D01*
X142763541Y-68731487D01*
X142763535Y-68731495D01*
X142723982Y-68800004D01*
X142723979Y-68800009D01*
X142712154Y-68844140D01*
X142703500Y-68876438D01*
X142703500Y-75763562D01*
X142706240Y-75773786D01*
X142723979Y-75839990D01*
X142745155Y-75876666D01*
X142745156Y-75876670D01*
X142745157Y-75876670D01*
X142763539Y-75908509D01*
X142763541Y-75908512D01*
X144902848Y-78047819D01*
X144936333Y-78109142D01*
X144931349Y-78178834D01*
X144889477Y-78234767D01*
X144824013Y-78259184D01*
X144815167Y-78259500D01*
X141331115Y-78259500D01*
X141264076Y-78239815D01*
X141218321Y-78187011D01*
X141208377Y-78117853D01*
X141228012Y-78066610D01*
X141282207Y-77985500D01*
X141340941Y-77897598D01*
X141420130Y-77706420D01*
X141460500Y-77503465D01*
X141460500Y-77296535D01*
X141420130Y-77093580D01*
X141343012Y-76907403D01*
X141343001Y-76907374D01*
X141340942Y-76902405D01*
X141340941Y-76902402D01*
X141225977Y-76730345D01*
X141225975Y-76730342D01*
X141082100Y-76586467D01*
X141071487Y-76567030D01*
X141056987Y-76550297D01*
X141055070Y-76536965D01*
X141048615Y-76525144D01*
X141050194Y-76503057D01*
X141047043Y-76481139D01*
X141052638Y-76468887D01*
X141053599Y-76455452D01*
X141066869Y-76437725D01*
X141076068Y-76417583D01*
X141087399Y-76410300D01*
X141095471Y-76399519D01*
X141116216Y-76391781D01*
X141134846Y-76379809D01*
X141156764Y-76376657D01*
X141160935Y-76375102D01*
X141169781Y-76374786D01*
X141195553Y-76374786D01*
X141262592Y-76394471D01*
X141283234Y-76411105D01*
X141541731Y-76669602D01*
X141575216Y-76730925D01*
X141578050Y-76757283D01*
X141578050Y-76830018D01*
X141607047Y-76938237D01*
X141663065Y-77035263D01*
X141742287Y-77114485D01*
X141839313Y-77170503D01*
X141947532Y-77199500D01*
X141947534Y-77199500D01*
X142059566Y-77199500D01*
X142059568Y-77199500D01*
X142167787Y-77170503D01*
X142264813Y-77114485D01*
X142344035Y-77035263D01*
X142400053Y-76938237D01*
X142429050Y-76830018D01*
X142429050Y-76717982D01*
X142400053Y-76609763D01*
X142344035Y-76512737D01*
X142264813Y-76433515D01*
X142264811Y-76433514D01*
X142264809Y-76433512D01*
X142167790Y-76377498D01*
X142167786Y-76377496D01*
X142106689Y-76361125D01*
X142051103Y-76329032D01*
X141555898Y-75833827D01*
X141555890Y-75833821D01*
X141487381Y-75794268D01*
X141487376Y-75794265D01*
X141461899Y-75787438D01*
X141410948Y-75773786D01*
X139499052Y-75773786D01*
X139460838Y-75784025D01*
X139422623Y-75794265D01*
X139422618Y-75794268D01*
X139354109Y-75833821D01*
X139354101Y-75833827D01*
X137360541Y-77827387D01*
X137360535Y-77827395D01*
X137320982Y-77895904D01*
X137320979Y-77895909D01*
X137307326Y-77946862D01*
X137301219Y-77969657D01*
X137300500Y-77972339D01*
X137300500Y-82173829D01*
X137280815Y-82240868D01*
X137228011Y-82286623D01*
X137158853Y-82296567D01*
X137095297Y-82267542D01*
X137057523Y-82208764D01*
X137054883Y-82198020D01*
X137030131Y-82073587D01*
X137030130Y-82073580D01*
X136950941Y-81882402D01*
X136835977Y-81710345D01*
X136835975Y-81710342D01*
X136689657Y-81564024D01*
X136525768Y-81454518D01*
X136517598Y-81449059D01*
X136476991Y-81432239D01*
X136326420Y-81369870D01*
X136326412Y-81369868D01*
X136123469Y-81329500D01*
X136123465Y-81329500D01*
X135916535Y-81329500D01*
X135916530Y-81329500D01*
X135713587Y-81369868D01*
X135713579Y-81369870D01*
X135522403Y-81449058D01*
X135350342Y-81564024D01*
X135204024Y-81710342D01*
X135089058Y-81882403D01*
X135009870Y-82073579D01*
X135009868Y-82073587D01*
X134969500Y-82276530D01*
X134969500Y-82483469D01*
X135009868Y-82686412D01*
X135009870Y-82686420D01*
X135080014Y-82855763D01*
X135089059Y-82877598D01*
X135100008Y-82893984D01*
X135204024Y-83049657D01*
X135350342Y-83195975D01*
X135350345Y-83195977D01*
X135522402Y-83310941D01*
X135713580Y-83390130D01*
X135881741Y-83423579D01*
X135916530Y-83430499D01*
X135916534Y-83430500D01*
X135916535Y-83430500D01*
X136123466Y-83430500D01*
X136123467Y-83430499D01*
X136326420Y-83390130D01*
X136517598Y-83310941D01*
X136689655Y-83195977D01*
X136835977Y-83049655D01*
X136950941Y-82877598D01*
X137030130Y-82686420D01*
X137050609Y-82583465D01*
X137054883Y-82561979D01*
X137087267Y-82500068D01*
X137147983Y-82465494D01*
X137217753Y-82469233D01*
X137274425Y-82510099D01*
X137300006Y-82575117D01*
X137300500Y-82586170D01*
X137300500Y-84713829D01*
X137280815Y-84780868D01*
X137228011Y-84826623D01*
X137158853Y-84836567D01*
X137095297Y-84807542D01*
X137057523Y-84748764D01*
X137054883Y-84738020D01*
X137035312Y-84639633D01*
X137030130Y-84613580D01*
X136950941Y-84422402D01*
X136835977Y-84250345D01*
X136835975Y-84250342D01*
X136689657Y-84104024D01*
X136596989Y-84042106D01*
X136517598Y-83989059D01*
X136476211Y-83971916D01*
X136326420Y-83909870D01*
X136326412Y-83909868D01*
X136123469Y-83869500D01*
X136123465Y-83869500D01*
X135916535Y-83869500D01*
X135916530Y-83869500D01*
X135713587Y-83909868D01*
X135713579Y-83909870D01*
X135522403Y-83989058D01*
X135350342Y-84104024D01*
X135204024Y-84250342D01*
X135089058Y-84422403D01*
X135009870Y-84613579D01*
X135009868Y-84613587D01*
X134969500Y-84816530D01*
X134969500Y-85023469D01*
X135009868Y-85226412D01*
X135009870Y-85226420D01*
X135087578Y-85414024D01*
X135089059Y-85417598D01*
X135111051Y-85450512D01*
X135204024Y-85589657D01*
X135350342Y-85735975D01*
X135350345Y-85735977D01*
X135522402Y-85850941D01*
X135713580Y-85930130D01*
X135862818Y-85959815D01*
X135916530Y-85970499D01*
X135916534Y-85970500D01*
X135916535Y-85970500D01*
X136123466Y-85970500D01*
X136123467Y-85970499D01*
X136326420Y-85930130D01*
X136517598Y-85850941D01*
X136689655Y-85735977D01*
X136835977Y-85589655D01*
X136950941Y-85417598D01*
X137030130Y-85226420D01*
X137050609Y-85123465D01*
X137054883Y-85101979D01*
X137087267Y-85040068D01*
X137147983Y-85005494D01*
X137217753Y-85009233D01*
X137274425Y-85050099D01*
X137300006Y-85115117D01*
X137300500Y-85126170D01*
X137300500Y-87253829D01*
X137280815Y-87320868D01*
X137228011Y-87366623D01*
X137158853Y-87376567D01*
X137095297Y-87347542D01*
X137057523Y-87288764D01*
X137054883Y-87278020D01*
X137036327Y-87184734D01*
X137030130Y-87153580D01*
X136950941Y-86962402D01*
X136835977Y-86790345D01*
X136835975Y-86790342D01*
X136689657Y-86644024D01*
X136548741Y-86549868D01*
X136517598Y-86529059D01*
X136498767Y-86521259D01*
X136326420Y-86449870D01*
X136326412Y-86449868D01*
X136123469Y-86409500D01*
X136123465Y-86409500D01*
X135916535Y-86409500D01*
X135916530Y-86409500D01*
X135713587Y-86449868D01*
X135713579Y-86449870D01*
X135522403Y-86529058D01*
X135350342Y-86644024D01*
X135204024Y-86790342D01*
X135089058Y-86962403D01*
X135009870Y-87153579D01*
X135009868Y-87153587D01*
X134969500Y-87356530D01*
X134969500Y-87563469D01*
X135009868Y-87766412D01*
X135009870Y-87766420D01*
X135088404Y-87956018D01*
X135089059Y-87957598D01*
X135108210Y-87986259D01*
X135204024Y-88129657D01*
X135350342Y-88275975D01*
X135350345Y-88275977D01*
X135522402Y-88390941D01*
X135713580Y-88470130D01*
X135916530Y-88510499D01*
X135916534Y-88510500D01*
X135916535Y-88510500D01*
X136123466Y-88510500D01*
X136123467Y-88510499D01*
X136326420Y-88470130D01*
X136517598Y-88390941D01*
X136689655Y-88275977D01*
X136835977Y-88129655D01*
X136950941Y-87957598D01*
X137030130Y-87766420D01*
X137049511Y-87668984D01*
X137054883Y-87641979D01*
X137087267Y-87580068D01*
X137147983Y-87545494D01*
X137217753Y-87549233D01*
X137274425Y-87590099D01*
X137300006Y-87655117D01*
X137300500Y-87666170D01*
X137300500Y-89031731D01*
X137280815Y-89098770D01*
X137228011Y-89144525D01*
X137158853Y-89154469D01*
X137095297Y-89125444D01*
X137061940Y-89079187D01*
X137058867Y-89071770D01*
X137058867Y-89071769D01*
X137042093Y-89046666D01*
X137014552Y-89005447D01*
X136948230Y-88961132D01*
X136948229Y-88961131D01*
X136889752Y-88949500D01*
X136889748Y-88949500D01*
X135150252Y-88949500D01*
X135150247Y-88949500D01*
X135091770Y-88961131D01*
X135091769Y-88961132D01*
X135025447Y-89005447D01*
X134981132Y-89071769D01*
X134981131Y-89071770D01*
X134969500Y-89130247D01*
X134969500Y-90869752D01*
X134981131Y-90928229D01*
X134981132Y-90928230D01*
X135025447Y-90994552D01*
X135091769Y-91038867D01*
X135091770Y-91038868D01*
X135150247Y-91050499D01*
X135150250Y-91050500D01*
X135150252Y-91050500D01*
X136889750Y-91050500D01*
X136889751Y-91050499D01*
X136904568Y-91047552D01*
X136948229Y-91038868D01*
X136948229Y-91038867D01*
X136948231Y-91038867D01*
X137014552Y-90994552D01*
X137058867Y-90928231D01*
X137058868Y-90928225D01*
X137061939Y-90920814D01*
X137105781Y-90866411D01*
X137172075Y-90844347D01*
X137239774Y-90861627D01*
X137287384Y-90912765D01*
X137300500Y-90968268D01*
X137300500Y-95055217D01*
X137280815Y-95122256D01*
X137264181Y-95142898D01*
X136559541Y-95847537D01*
X136559535Y-95847545D01*
X136519982Y-95916054D01*
X136519979Y-95916059D01*
X136499500Y-95992489D01*
X136499500Y-97815476D01*
X136479815Y-97882515D01*
X136427011Y-97928270D01*
X136357853Y-97938214D01*
X136306610Y-97918579D01*
X136218250Y-97859540D01*
X136187598Y-97839059D01*
X136186813Y-97838734D01*
X135996420Y-97759870D01*
X135996412Y-97759868D01*
X135793469Y-97719500D01*
X135793465Y-97719500D01*
X135586535Y-97719500D01*
X135586530Y-97719500D01*
X135383587Y-97759868D01*
X135383579Y-97759870D01*
X135192403Y-97839058D01*
X135020342Y-97954024D01*
X134874024Y-98100342D01*
X134759058Y-98272403D01*
X134679870Y-98463579D01*
X134679868Y-98463587D01*
X134639500Y-98666530D01*
X134639500Y-98873469D01*
X134679868Y-99076412D01*
X134679870Y-99076420D01*
X134759058Y-99267596D01*
X134874024Y-99439657D01*
X135020342Y-99585975D01*
X135020345Y-99585977D01*
X135192402Y-99700941D01*
X135383580Y-99780130D01*
X135586530Y-99820499D01*
X135586534Y-99820500D01*
X135586535Y-99820500D01*
X135793466Y-99820500D01*
X135793467Y-99820499D01*
X135996420Y-99780130D01*
X136187598Y-99700941D01*
X136359655Y-99585977D01*
X136505977Y-99439655D01*
X136620941Y-99267598D01*
X136670875Y-99147046D01*
X136714716Y-99092644D01*
X136781010Y-99070579D01*
X136785436Y-99070500D01*
X136919560Y-99070500D01*
X136919562Y-99070500D01*
X136995989Y-99050021D01*
X137064511Y-99010460D01*
X137120460Y-98954511D01*
X137160021Y-98885989D01*
X137180500Y-98809562D01*
X137180500Y-98730438D01*
X137160021Y-98654011D01*
X137120460Y-98585489D01*
X137117112Y-98579690D01*
X137100500Y-98517691D01*
X137100500Y-96207883D01*
X137120185Y-96140844D01*
X137136819Y-96120202D01*
X137687819Y-95569202D01*
X137749142Y-95535717D01*
X137818834Y-95540701D01*
X137874767Y-95582573D01*
X137899184Y-95648037D01*
X137899500Y-95656883D01*
X137899500Y-101482390D01*
X137879815Y-101549429D01*
X137863181Y-101570071D01*
X137859517Y-101573734D01*
X137859513Y-101573740D01*
X137803498Y-101670760D01*
X137803497Y-101670763D01*
X137774500Y-101778982D01*
X137774500Y-101891018D01*
X137803497Y-101999237D01*
X137859515Y-102096263D01*
X137859517Y-102096265D01*
X137894344Y-102131092D01*
X137927829Y-102192415D01*
X137922845Y-102262107D01*
X137880973Y-102318040D01*
X137868663Y-102326160D01*
X137845492Y-102339537D01*
X137845487Y-102339541D01*
X136812570Y-103372458D01*
X136751247Y-103405943D01*
X136681555Y-103400959D01*
X136625622Y-103359087D01*
X136621786Y-103353667D01*
X136505975Y-103180342D01*
X136359657Y-103034024D01*
X136238378Y-102952989D01*
X136187598Y-102919059D01*
X136182190Y-102916819D01*
X135996420Y-102839870D01*
X135996412Y-102839868D01*
X135793469Y-102799500D01*
X135793465Y-102799500D01*
X135586535Y-102799500D01*
X135586530Y-102799500D01*
X135383587Y-102839868D01*
X135383579Y-102839870D01*
X135192403Y-102919058D01*
X135020342Y-103034024D01*
X134874024Y-103180342D01*
X134759058Y-103352403D01*
X134679870Y-103543579D01*
X134679868Y-103543587D01*
X134639500Y-103746530D01*
X134639500Y-103953469D01*
X134678692Y-104150500D01*
X134679870Y-104156420D01*
X134759059Y-104347598D01*
X134816541Y-104433626D01*
X134874024Y-104519657D01*
X135020342Y-104665975D01*
X135020345Y-104665977D01*
X135192402Y-104780941D01*
X135383580Y-104860130D01*
X135586530Y-104900499D01*
X135586534Y-104900500D01*
X135586535Y-104900500D01*
X135793466Y-104900500D01*
X135793467Y-104900499D01*
X135996420Y-104860130D01*
X136187598Y-104780941D01*
X136359655Y-104665977D01*
X136505977Y-104519655D01*
X136620941Y-104347598D01*
X136670875Y-104227046D01*
X136714716Y-104172644D01*
X136781010Y-104150579D01*
X136785436Y-104150500D01*
X136799560Y-104150500D01*
X136799562Y-104150500D01*
X136875989Y-104130021D01*
X136944511Y-104090460D01*
X137000460Y-104034511D01*
X138118152Y-102916819D01*
X138179475Y-102883334D01*
X138205833Y-102880500D01*
X139124505Y-102880500D01*
X139191544Y-102900185D01*
X139237299Y-102952989D01*
X139247243Y-103022147D01*
X139218218Y-103085703D01*
X139212186Y-103092181D01*
X139194025Y-103110341D01*
X139194024Y-103110342D01*
X139079058Y-103282403D01*
X138999870Y-103473579D01*
X138999868Y-103473587D01*
X138959500Y-103676530D01*
X138959500Y-103883469D01*
X138999868Y-104086412D01*
X138999870Y-104086420D01*
X139079058Y-104277596D01*
X139194024Y-104449657D01*
X139340342Y-104595975D01*
X139340345Y-104595977D01*
X139512402Y-104710941D01*
X139703580Y-104790130D01*
X139905741Y-104830342D01*
X139906530Y-104830499D01*
X139906534Y-104830500D01*
X139906535Y-104830500D01*
X140113466Y-104830500D01*
X140113467Y-104830499D01*
X140316420Y-104790130D01*
X140507598Y-104710941D01*
X140679655Y-104595977D01*
X140825977Y-104449655D01*
X140940941Y-104277598D01*
X141020130Y-104086420D01*
X141060500Y-103883465D01*
X141060500Y-103676535D01*
X141020130Y-103473580D01*
X140970194Y-103353026D01*
X140962726Y-103283559D01*
X140994001Y-103221080D01*
X140997046Y-103217923D01*
X141420988Y-102793982D01*
X150474500Y-102793982D01*
X150474500Y-102906018D01*
X150503497Y-103014237D01*
X150559515Y-103111263D01*
X150638737Y-103190485D01*
X150735763Y-103246503D01*
X150843982Y-103275500D01*
X150843984Y-103275500D01*
X150956016Y-103275500D01*
X150956018Y-103275500D01*
X151064237Y-103246503D01*
X151161263Y-103190485D01*
X151240485Y-103111263D01*
X151296503Y-103014237D01*
X151325500Y-102906018D01*
X151325500Y-102793982D01*
X151296503Y-102685763D01*
X151240485Y-102588737D01*
X151161263Y-102509515D01*
X151064237Y-102453497D01*
X150956018Y-102424500D01*
X150843982Y-102424500D01*
X150735763Y-102453497D01*
X150735760Y-102453498D01*
X150638740Y-102509513D01*
X150638734Y-102509517D01*
X150559517Y-102588734D01*
X150559513Y-102588740D01*
X150503498Y-102685760D01*
X150503497Y-102685763D01*
X150474500Y-102793982D01*
X141420988Y-102793982D01*
X142331460Y-101883511D01*
X142335215Y-101877005D01*
X142336631Y-101874556D01*
X142348630Y-101853770D01*
X142371021Y-101814989D01*
X142391500Y-101738562D01*
X142391500Y-100643982D01*
X144274500Y-100643982D01*
X144274500Y-100756018D01*
X144303497Y-100864237D01*
X144359515Y-100961263D01*
X144438737Y-101040485D01*
X144535763Y-101096503D01*
X144643982Y-101125500D01*
X144643984Y-101125500D01*
X144756016Y-101125500D01*
X144756018Y-101125500D01*
X144864237Y-101096503D01*
X144961263Y-101040485D01*
X145040485Y-100961263D01*
X145096503Y-100864237D01*
X145125500Y-100756018D01*
X145125500Y-100643982D01*
X145096503Y-100535763D01*
X145040485Y-100438737D01*
X144961263Y-100359515D01*
X144864237Y-100303497D01*
X144756018Y-100274500D01*
X144643982Y-100274500D01*
X144535763Y-100303497D01*
X144535760Y-100303498D01*
X144438740Y-100359513D01*
X144438734Y-100359517D01*
X144359517Y-100438734D01*
X144359513Y-100438740D01*
X144303498Y-100535760D01*
X144303497Y-100535763D01*
X144274500Y-100643982D01*
X142391500Y-100643982D01*
X142391500Y-98043982D01*
X158599500Y-98043982D01*
X158599500Y-98156018D01*
X158628497Y-98264237D01*
X158684515Y-98361263D01*
X158763737Y-98440485D01*
X158860763Y-98496503D01*
X158968982Y-98525500D01*
X158968984Y-98525500D01*
X159081016Y-98525500D01*
X159081018Y-98525500D01*
X159189237Y-98496503D01*
X159286263Y-98440485D01*
X159365485Y-98361263D01*
X159421503Y-98264237D01*
X159450500Y-98156018D01*
X159450500Y-98043982D01*
X159421503Y-97935763D01*
X159365485Y-97838737D01*
X159286263Y-97759515D01*
X159208369Y-97714543D01*
X159189239Y-97703498D01*
X159189238Y-97703497D01*
X159189237Y-97703497D01*
X159081018Y-97674500D01*
X158968982Y-97674500D01*
X158860763Y-97703497D01*
X158860760Y-97703498D01*
X158763740Y-97759513D01*
X158763734Y-97759517D01*
X158684517Y-97838734D01*
X158684513Y-97838740D01*
X158628498Y-97935760D01*
X158628497Y-97935763D01*
X158599500Y-98043982D01*
X142391500Y-98043982D01*
X142391500Y-87570251D01*
X142411185Y-87503212D01*
X142463989Y-87457457D01*
X142533147Y-87447513D01*
X142577494Y-87462861D01*
X142635763Y-87496503D01*
X142743982Y-87525500D01*
X142743984Y-87525500D01*
X142856016Y-87525500D01*
X142856018Y-87525500D01*
X142964237Y-87496503D01*
X143061263Y-87440485D01*
X143140485Y-87361263D01*
X143196503Y-87264237D01*
X143225500Y-87156018D01*
X143225500Y-87043982D01*
X143196503Y-86935763D01*
X143140485Y-86838737D01*
X143061263Y-86759515D01*
X142968593Y-86706012D01*
X142964239Y-86703498D01*
X142964238Y-86703497D01*
X142964237Y-86703497D01*
X142856018Y-86674500D01*
X142743982Y-86674500D01*
X142635763Y-86703497D01*
X142635760Y-86703498D01*
X142577500Y-86737135D01*
X142509600Y-86753608D01*
X142443573Y-86730755D01*
X142400382Y-86675834D01*
X142391500Y-86629748D01*
X142391500Y-84934833D01*
X142411185Y-84867794D01*
X142427819Y-84847152D01*
X143028152Y-84246819D01*
X143055079Y-84232115D01*
X143080898Y-84215523D01*
X143087098Y-84214631D01*
X143089475Y-84213334D01*
X143115833Y-84210500D01*
X143243779Y-84210500D01*
X143310818Y-84230185D01*
X143356573Y-84282989D01*
X143366517Y-84352147D01*
X143351167Y-84396496D01*
X143328497Y-84435763D01*
X143299500Y-84543982D01*
X143299500Y-84656018D01*
X143328497Y-84764237D01*
X143384515Y-84861263D01*
X143463737Y-84940485D01*
X143560763Y-84996503D01*
X143668982Y-85025500D01*
X143668984Y-85025500D01*
X143781016Y-85025500D01*
X143781018Y-85025500D01*
X143889237Y-84996503D01*
X143986263Y-84940485D01*
X144065485Y-84861263D01*
X144121503Y-84764237D01*
X144150500Y-84656018D01*
X144150500Y-84543982D01*
X144121503Y-84435763D01*
X144098833Y-84396497D01*
X144082361Y-84328601D01*
X144105213Y-84262574D01*
X144160134Y-84219383D01*
X144206221Y-84210500D01*
X145683869Y-84210500D01*
X145750908Y-84230185D01*
X145796663Y-84282989D01*
X145807869Y-84334500D01*
X145807869Y-84359387D01*
X145836866Y-84467606D01*
X145892884Y-84564632D01*
X145972106Y-84643854D01*
X146069132Y-84699872D01*
X146177351Y-84728869D01*
X146182536Y-84728869D01*
X146211976Y-84737513D01*
X146241963Y-84744037D01*
X146246978Y-84747791D01*
X146249575Y-84748554D01*
X146270217Y-84765188D01*
X146288181Y-84783152D01*
X146321666Y-84844475D01*
X146324500Y-84870833D01*
X146324500Y-85269944D01*
X146304815Y-85336983D01*
X146252011Y-85382738D01*
X146232597Y-85389718D01*
X146214761Y-85394497D01*
X146214759Y-85394498D01*
X146117740Y-85450512D01*
X146117734Y-85450517D01*
X146038517Y-85529734D01*
X146038513Y-85529740D01*
X145982498Y-85626760D01*
X145982497Y-85626763D01*
X145953500Y-85734982D01*
X145953500Y-85847018D01*
X145978211Y-85939239D01*
X145982497Y-85955236D01*
X145982498Y-85955239D01*
X145991309Y-85970500D01*
X146038515Y-86052263D01*
X146117737Y-86131485D01*
X146214763Y-86187503D01*
X146322982Y-86216500D01*
X146322984Y-86216500D01*
X146435016Y-86216500D01*
X146435018Y-86216500D01*
X146543237Y-86187503D01*
X146640263Y-86131485D01*
X146643929Y-86127819D01*
X146705252Y-86094334D01*
X146731610Y-86091500D01*
X148327610Y-86091500D01*
X148394649Y-86111185D01*
X148440404Y-86163989D01*
X148450348Y-86233147D01*
X148421323Y-86296703D01*
X148415291Y-86303181D01*
X148337912Y-86380559D01*
X148337908Y-86380565D01*
X148281893Y-86477585D01*
X148281892Y-86477588D01*
X148252895Y-86585807D01*
X148252895Y-86697843D01*
X148278330Y-86792766D01*
X148281892Y-86806061D01*
X148281893Y-86806064D01*
X148298314Y-86834506D01*
X148337910Y-86903088D01*
X148417132Y-86982310D01*
X148497501Y-87028711D01*
X148545715Y-87079276D01*
X148559500Y-87136097D01*
X148559500Y-92434167D01*
X148539815Y-92501206D01*
X148523181Y-92521848D01*
X144950848Y-96094181D01*
X144889525Y-96127666D01*
X144863167Y-96130500D01*
X144843982Y-96130500D01*
X144735763Y-96159497D01*
X144735760Y-96159498D01*
X144638740Y-96215513D01*
X144638734Y-96215517D01*
X144559517Y-96294734D01*
X144559513Y-96294740D01*
X144503498Y-96391760D01*
X144503497Y-96391763D01*
X144474500Y-96499982D01*
X144474500Y-96612018D01*
X144503497Y-96720237D01*
X144559515Y-96817263D01*
X144638737Y-96896485D01*
X144735763Y-96952503D01*
X144843982Y-96981500D01*
X144843984Y-96981500D01*
X144956016Y-96981500D01*
X144956018Y-96981500D01*
X145064237Y-96952503D01*
X145161263Y-96896485D01*
X145240485Y-96817263D01*
X145296503Y-96720237D01*
X145325500Y-96612018D01*
X145325500Y-96612006D01*
X145326455Y-96604755D01*
X145354720Y-96540858D01*
X145361702Y-96533268D01*
X146750988Y-95143982D01*
X159374500Y-95143982D01*
X159374500Y-95256018D01*
X159403497Y-95364237D01*
X159459515Y-95461263D01*
X159538737Y-95540485D01*
X159635763Y-95596503D01*
X159743982Y-95625500D01*
X159743984Y-95625500D01*
X159856016Y-95625500D01*
X159856018Y-95625500D01*
X159964237Y-95596503D01*
X160061263Y-95540485D01*
X160140485Y-95461263D01*
X160196503Y-95364237D01*
X160225500Y-95256018D01*
X160225500Y-95143982D01*
X160196503Y-95035763D01*
X160140485Y-94938737D01*
X160061263Y-94859515D01*
X159964237Y-94803497D01*
X159856018Y-94774500D01*
X159743982Y-94774500D01*
X159635763Y-94803497D01*
X159635760Y-94803498D01*
X159538740Y-94859513D01*
X159538734Y-94859517D01*
X159459517Y-94938734D01*
X159459513Y-94938740D01*
X159403498Y-95035760D01*
X159403497Y-95035763D01*
X159374500Y-95143982D01*
X146750988Y-95143982D01*
X148380989Y-93513982D01*
X157874500Y-93513982D01*
X157874500Y-93626018D01*
X157903497Y-93734237D01*
X157959515Y-93831263D01*
X158038737Y-93910485D01*
X158135763Y-93966503D01*
X158243982Y-93995500D01*
X158243984Y-93995500D01*
X158356016Y-93995500D01*
X158356018Y-93995500D01*
X158464237Y-93966503D01*
X158561263Y-93910485D01*
X158640485Y-93831263D01*
X158696503Y-93734237D01*
X158725500Y-93626018D01*
X158725500Y-93513982D01*
X158696503Y-93405763D01*
X158640485Y-93308737D01*
X158561263Y-93229515D01*
X158464237Y-93173497D01*
X158356018Y-93144500D01*
X158243982Y-93144500D01*
X158135763Y-93173497D01*
X158135760Y-93173498D01*
X158038740Y-93229513D01*
X158038734Y-93229517D01*
X157959517Y-93308734D01*
X157959513Y-93308740D01*
X157903498Y-93405760D01*
X157903497Y-93405763D01*
X157874500Y-93513982D01*
X148380989Y-93513982D01*
X149100460Y-92794511D01*
X149140022Y-92725988D01*
X149160500Y-92649562D01*
X149160500Y-92570438D01*
X149160500Y-86783868D01*
X149140021Y-86707441D01*
X149127353Y-86685499D01*
X149120507Y-86673640D01*
X149105916Y-86633940D01*
X149103895Y-86622884D01*
X149103895Y-86585807D01*
X149082566Y-86506209D01*
X149081665Y-86501275D01*
X149084815Y-86471325D01*
X149085532Y-86441221D01*
X149088432Y-86436935D01*
X149088974Y-86431788D01*
X149107817Y-86408294D01*
X149124695Y-86383358D01*
X149129452Y-86381320D01*
X149132690Y-86377284D01*
X149161238Y-86367709D01*
X149188923Y-86355854D01*
X149194027Y-86356712D01*
X149198933Y-86355067D01*
X149228128Y-86362447D01*
X149257825Y-86367441D01*
X149263295Y-86371336D01*
X149266672Y-86372190D01*
X149271015Y-86376833D01*
X149291325Y-86391296D01*
X151956865Y-89056836D01*
X151966942Y-89068326D01*
X152331670Y-89433055D01*
X152343165Y-89443136D01*
X153485540Y-90585511D01*
X153541489Y-90641460D01*
X153541491Y-90641461D01*
X153541495Y-90641464D01*
X153602755Y-90676832D01*
X153610011Y-90681021D01*
X153686438Y-90701500D01*
X153765562Y-90701500D01*
X156975167Y-90701500D01*
X157042206Y-90721185D01*
X157062848Y-90737819D01*
X157708181Y-91383152D01*
X157741666Y-91444475D01*
X157744500Y-91470833D01*
X157744500Y-91476018D01*
X157773497Y-91584237D01*
X157829515Y-91681263D01*
X157908737Y-91760485D01*
X158005763Y-91816503D01*
X158113982Y-91845500D01*
X158113984Y-91845500D01*
X158226016Y-91845500D01*
X158226018Y-91845500D01*
X158334237Y-91816503D01*
X158431263Y-91760485D01*
X158510485Y-91681263D01*
X158566503Y-91584237D01*
X158595500Y-91476018D01*
X158595500Y-91363982D01*
X158566503Y-91255763D01*
X158510485Y-91158737D01*
X158431263Y-91079515D01*
X158334237Y-91023497D01*
X158226018Y-90994500D01*
X158226017Y-90994500D01*
X158220833Y-90994500D01*
X158153794Y-90974815D01*
X158133152Y-90958181D01*
X157563540Y-90388569D01*
X157530055Y-90327246D01*
X157535039Y-90257554D01*
X157563536Y-90213211D01*
X157640485Y-90136263D01*
X157696503Y-90039237D01*
X157725500Y-89931018D01*
X157725500Y-89818982D01*
X157722180Y-89806591D01*
X157723843Y-89736744D01*
X157763006Y-89678881D01*
X157827234Y-89651377D01*
X157841955Y-89650500D01*
X158514560Y-89650500D01*
X158514562Y-89650500D01*
X158590989Y-89630021D01*
X158659511Y-89590460D01*
X158715460Y-89534511D01*
X160262737Y-87987234D01*
X160324060Y-87953749D01*
X160350418Y-87950915D01*
X161705660Y-87950915D01*
X161705662Y-87950915D01*
X161705663Y-87950914D01*
X161713718Y-87949854D01*
X161713837Y-87950758D01*
X161730999Y-87948500D01*
X163842167Y-87948500D01*
X163909206Y-87968185D01*
X163929848Y-87984819D01*
X173477134Y-97532105D01*
X173489117Y-97554050D01*
X173504574Y-97573708D01*
X173505573Y-97584188D01*
X173510619Y-97593428D01*
X173508835Y-97618371D01*
X173511210Y-97643262D01*
X173506386Y-97652617D01*
X173505635Y-97663120D01*
X173490648Y-97683138D01*
X173479190Y-97705362D01*
X173466603Y-97715259D01*
X173463763Y-97719053D01*
X173451445Y-97727178D01*
X173439187Y-97734254D01*
X173371286Y-97750721D01*
X173305261Y-97727864D01*
X173289514Y-97714543D01*
X165516587Y-89941616D01*
X165516586Y-89941615D01*
X165498231Y-89931018D01*
X165498231Y-89931016D01*
X165498228Y-89931016D01*
X165448069Y-89902056D01*
X165448066Y-89902054D01*
X165409850Y-89891814D01*
X165371637Y-89881575D01*
X165371635Y-89881575D01*
X164219610Y-89881575D01*
X164152571Y-89861890D01*
X164131929Y-89845256D01*
X164128265Y-89841592D01*
X164128263Y-89841590D01*
X164031237Y-89785572D01*
X163923018Y-89756575D01*
X163810982Y-89756575D01*
X163702763Y-89785572D01*
X163702760Y-89785573D01*
X163605740Y-89841588D01*
X163605734Y-89841592D01*
X163526517Y-89920809D01*
X163526515Y-89920812D01*
X163507869Y-89953107D01*
X163457300Y-90001321D01*
X163388693Y-90014542D01*
X163323829Y-89988573D01*
X163312802Y-89978785D01*
X163131237Y-89797220D01*
X163111061Y-89785572D01*
X163103293Y-89781087D01*
X163062718Y-89757661D01*
X163062717Y-89757660D01*
X163037240Y-89750833D01*
X162986289Y-89737181D01*
X162526880Y-89737181D01*
X162447756Y-89737181D01*
X162371328Y-89757659D01*
X162302807Y-89797221D01*
X162302804Y-89797223D01*
X161783541Y-90316486D01*
X161783535Y-90316494D01*
X161743982Y-90385003D01*
X161743979Y-90385008D01*
X161723500Y-90461438D01*
X161723500Y-104384571D01*
X161703815Y-104451610D01*
X161651011Y-104497365D01*
X161581853Y-104507309D01*
X161567407Y-104504346D01*
X161501156Y-104486594D01*
X161456018Y-104474500D01*
X161343982Y-104474500D01*
X161235763Y-104503497D01*
X161235760Y-104503498D01*
X161162000Y-104546084D01*
X161094100Y-104562557D01*
X161038000Y-104546084D01*
X160964239Y-104503498D01*
X160964238Y-104503497D01*
X160964237Y-104503497D01*
X160856018Y-104474500D01*
X160743982Y-104474500D01*
X160635763Y-104503497D01*
X160635760Y-104503498D01*
X160562000Y-104546084D01*
X160494100Y-104562557D01*
X160438000Y-104546084D01*
X160364239Y-104503498D01*
X160364238Y-104503497D01*
X160364237Y-104503497D01*
X160256018Y-104474500D01*
X160143982Y-104474500D01*
X160035763Y-104503497D01*
X160035760Y-104503498D01*
X159938740Y-104559513D01*
X159938734Y-104559517D01*
X159859517Y-104638734D01*
X159859513Y-104638740D01*
X159803498Y-104735760D01*
X159803497Y-104735763D01*
X159774500Y-104843982D01*
X159774500Y-104956018D01*
X159803497Y-105064237D01*
X159859515Y-105161263D01*
X159938737Y-105240485D01*
X160035763Y-105296503D01*
X160143982Y-105325500D01*
X160143984Y-105325500D01*
X160256016Y-105325500D01*
X160256018Y-105325500D01*
X160364237Y-105296503D01*
X160438003Y-105253913D01*
X160505899Y-105237442D01*
X160561995Y-105253913D01*
X160635763Y-105296503D01*
X160743982Y-105325500D01*
X160743984Y-105325500D01*
X160856016Y-105325500D01*
X160856018Y-105325500D01*
X160964237Y-105296503D01*
X161038003Y-105253913D01*
X161105899Y-105237442D01*
X161161995Y-105253913D01*
X161235763Y-105296503D01*
X161343982Y-105325500D01*
X161343984Y-105325500D01*
X161456015Y-105325500D01*
X161456018Y-105325500D01*
X161564237Y-105296503D01*
X161564239Y-105296501D01*
X161567406Y-105295653D01*
X161637256Y-105297316D01*
X161695119Y-105336478D01*
X161722623Y-105400707D01*
X161723500Y-105415428D01*
X161723500Y-117140167D01*
X161703815Y-117207206D01*
X161687181Y-117227848D01*
X157351848Y-121563181D01*
X157290525Y-121596666D01*
X157264167Y-121599500D01*
X156934500Y-121599500D01*
X156867461Y-121579815D01*
X156821706Y-121527011D01*
X156810500Y-121475500D01*
X156810500Y-121030249D01*
X156810499Y-121030247D01*
X156798868Y-120971770D01*
X156798867Y-120971769D01*
X156754552Y-120905447D01*
X156688230Y-120861132D01*
X156688229Y-120861131D01*
X156629752Y-120849500D01*
X156629748Y-120849500D01*
X154890252Y-120849500D01*
X154890247Y-120849500D01*
X154831770Y-120861131D01*
X154831769Y-120861132D01*
X154765447Y-120905447D01*
X154721132Y-120971769D01*
X154721131Y-120971770D01*
X154709500Y-121030247D01*
X154709500Y-122769752D01*
X154721131Y-122828229D01*
X154721132Y-122828230D01*
X154765447Y-122894552D01*
X154831769Y-122938867D01*
X154843054Y-122943542D01*
X154842338Y-122945269D01*
X154890986Y-122970716D01*
X154925561Y-123031431D01*
X154921822Y-123101201D01*
X154880956Y-123157873D01*
X154815939Y-123183455D01*
X154804777Y-123183949D01*
X153414807Y-123182738D01*
X153347785Y-123162995D01*
X153302076Y-123110151D01*
X153292193Y-123040984D01*
X153321273Y-122977454D01*
X153380084Y-122939730D01*
X153390698Y-122937126D01*
X153526420Y-122910130D01*
X153717598Y-122830941D01*
X153889655Y-122715977D01*
X154035977Y-122569655D01*
X154150941Y-122397598D01*
X154230130Y-122206420D01*
X154270500Y-122003465D01*
X154270500Y-121796535D01*
X154230130Y-121593580D01*
X154150941Y-121402402D01*
X154035977Y-121230345D01*
X154035975Y-121230342D01*
X153889657Y-121084024D01*
X153721655Y-120971770D01*
X153717598Y-120969059D01*
X153642557Y-120937976D01*
X153526420Y-120889870D01*
X153526412Y-120889868D01*
X153323469Y-120849500D01*
X153323465Y-120849500D01*
X153116535Y-120849500D01*
X153116530Y-120849500D01*
X152913587Y-120889868D01*
X152913579Y-120889870D01*
X152722403Y-120969058D01*
X152550342Y-121084024D01*
X152404024Y-121230342D01*
X152289058Y-121402403D01*
X152209870Y-121593579D01*
X152209868Y-121593587D01*
X152169500Y-121796530D01*
X152169500Y-122003469D01*
X152209868Y-122206412D01*
X152209870Y-122206420D01*
X152273539Y-122360131D01*
X152289059Y-122397598D01*
X152290998Y-122400500D01*
X152404024Y-122569657D01*
X152550342Y-122715975D01*
X152550345Y-122715977D01*
X152722402Y-122830941D01*
X152913580Y-122910130D01*
X153047563Y-122936780D01*
X153109472Y-122969164D01*
X153144046Y-123029880D01*
X153140307Y-123099649D01*
X153099441Y-123156321D01*
X153034423Y-123181903D01*
X153023262Y-123182397D01*
X149895899Y-123179674D01*
X149828877Y-123159931D01*
X149808326Y-123143355D01*
X149127075Y-122462104D01*
X149093590Y-122400781D01*
X149098574Y-122331089D01*
X149100163Y-122327049D01*
X149150130Y-122206420D01*
X149190500Y-122003465D01*
X149190500Y-121796535D01*
X149150130Y-121593580D01*
X149070941Y-121402402D01*
X148955977Y-121230345D01*
X148955975Y-121230342D01*
X148809657Y-121084024D01*
X148641655Y-120971770D01*
X148637598Y-120969059D01*
X148562557Y-120937976D01*
X148446420Y-120889870D01*
X148446412Y-120889868D01*
X148243469Y-120849500D01*
X148243465Y-120849500D01*
X148036535Y-120849500D01*
X148036530Y-120849500D01*
X147833587Y-120889868D01*
X147833579Y-120889870D01*
X147642403Y-120969058D01*
X147470342Y-121084024D01*
X147324024Y-121230342D01*
X147209058Y-121402403D01*
X147129870Y-121593579D01*
X147129868Y-121593587D01*
X147089500Y-121796530D01*
X147089500Y-122003469D01*
X147129868Y-122206412D01*
X147129870Y-122206420D01*
X147193539Y-122360131D01*
X147209059Y-122397598D01*
X147210998Y-122400500D01*
X147324024Y-122569657D01*
X147470342Y-122715975D01*
X147470345Y-122715977D01*
X147642402Y-122830941D01*
X147833580Y-122910130D01*
X147996804Y-122942597D01*
X148036530Y-122950499D01*
X148036534Y-122950500D01*
X148036535Y-122950500D01*
X148243466Y-122950500D01*
X148243467Y-122950499D01*
X148446420Y-122910130D01*
X148566974Y-122860194D01*
X148636438Y-122852726D01*
X148698918Y-122884000D01*
X148702104Y-122887075D01*
X149183326Y-123368297D01*
X149216811Y-123429620D01*
X149211827Y-123499312D01*
X149169955Y-123555245D01*
X149104491Y-123579662D01*
X149095537Y-123579978D01*
X137134355Y-123569564D01*
X137134352Y-123569564D01*
X137126104Y-123569556D01*
X137125892Y-123569500D01*
X137062951Y-123569500D01*
X137062940Y-123569497D01*
X137056994Y-123569351D01*
X136942356Y-123563719D01*
X136723071Y-123552947D01*
X136710960Y-123551754D01*
X136383304Y-123503151D01*
X136371369Y-123500777D01*
X136050055Y-123420292D01*
X136038411Y-123416759D01*
X135726540Y-123305170D01*
X135715301Y-123300515D01*
X135415844Y-123158883D01*
X135405121Y-123153150D01*
X135121011Y-122982862D01*
X135110893Y-122976102D01*
X134844829Y-122778775D01*
X134835423Y-122771055D01*
X134613212Y-122569655D01*
X134589986Y-122548604D01*
X134581395Y-122540013D01*
X134358944Y-122294576D01*
X134351224Y-122285170D01*
X134248282Y-122146369D01*
X134153895Y-122019103D01*
X134147137Y-122008988D01*
X134143829Y-122003469D01*
X134019795Y-121796530D01*
X142009500Y-121796530D01*
X142009500Y-122003469D01*
X142049868Y-122206412D01*
X142049870Y-122206420D01*
X142113539Y-122360131D01*
X142129059Y-122397598D01*
X142130998Y-122400500D01*
X142244024Y-122569657D01*
X142390342Y-122715975D01*
X142390345Y-122715977D01*
X142562402Y-122830941D01*
X142753580Y-122910130D01*
X142916804Y-122942597D01*
X142956530Y-122950499D01*
X142956534Y-122950500D01*
X142956535Y-122950500D01*
X143163466Y-122950500D01*
X143163467Y-122950499D01*
X143366420Y-122910130D01*
X143557598Y-122830941D01*
X143729655Y-122715977D01*
X143875977Y-122569655D01*
X143990941Y-122397598D01*
X144070130Y-122206420D01*
X144110500Y-122003465D01*
X144110500Y-121796535D01*
X144110499Y-121796530D01*
X144549500Y-121796530D01*
X144549500Y-122003469D01*
X144589868Y-122206412D01*
X144589870Y-122206420D01*
X144653539Y-122360131D01*
X144669059Y-122397598D01*
X144670998Y-122400500D01*
X144784024Y-122569657D01*
X144930342Y-122715975D01*
X144930345Y-122715977D01*
X145102402Y-122830941D01*
X145293580Y-122910130D01*
X145456804Y-122942597D01*
X145496530Y-122950499D01*
X145496534Y-122950500D01*
X145496535Y-122950500D01*
X145703466Y-122950500D01*
X145703467Y-122950499D01*
X145906420Y-122910130D01*
X146097598Y-122830941D01*
X146269655Y-122715977D01*
X146415977Y-122569655D01*
X146530941Y-122397598D01*
X146610130Y-122206420D01*
X146650500Y-122003465D01*
X146650500Y-121796535D01*
X146610130Y-121593580D01*
X146530941Y-121402402D01*
X146415977Y-121230345D01*
X146415975Y-121230342D01*
X146269657Y-121084024D01*
X146101655Y-120971770D01*
X146097598Y-120969059D01*
X146022557Y-120937976D01*
X145906420Y-120889870D01*
X145906412Y-120889868D01*
X145703469Y-120849500D01*
X145703465Y-120849500D01*
X145496535Y-120849500D01*
X145496530Y-120849500D01*
X145293587Y-120889868D01*
X145293579Y-120889870D01*
X145102403Y-120969058D01*
X144930342Y-121084024D01*
X144784024Y-121230342D01*
X144669058Y-121402403D01*
X144589870Y-121593579D01*
X144589868Y-121593587D01*
X144549500Y-121796530D01*
X144110499Y-121796530D01*
X144070130Y-121593580D01*
X143990941Y-121402402D01*
X143875977Y-121230345D01*
X143875975Y-121230342D01*
X143729657Y-121084024D01*
X143561655Y-120971770D01*
X143557598Y-120969059D01*
X143482557Y-120937976D01*
X143366420Y-120889870D01*
X143366412Y-120889868D01*
X143163469Y-120849500D01*
X143163465Y-120849500D01*
X142956535Y-120849500D01*
X142956530Y-120849500D01*
X142753587Y-120889868D01*
X142753579Y-120889870D01*
X142562403Y-120969058D01*
X142390342Y-121084024D01*
X142244024Y-121230342D01*
X142129058Y-121402403D01*
X142049870Y-121593579D01*
X142049868Y-121593587D01*
X142009500Y-121796530D01*
X134019795Y-121796530D01*
X133976844Y-121724871D01*
X133971120Y-121714163D01*
X133829479Y-121414688D01*
X133824829Y-121403459D01*
X133824451Y-121402403D01*
X133713240Y-121091588D01*
X133709707Y-121079944D01*
X133707529Y-121071248D01*
X133629219Y-120758617D01*
X133626848Y-120746694D01*
X133625453Y-120737292D01*
X133578245Y-120419037D01*
X133577052Y-120406927D01*
X133576273Y-120391080D01*
X133560649Y-120073032D01*
X133560500Y-120066948D01*
X133560500Y-110600247D01*
X134639500Y-110600247D01*
X134639500Y-112339752D01*
X134651131Y-112398229D01*
X134651132Y-112398230D01*
X134695447Y-112464552D01*
X134761769Y-112508867D01*
X134761770Y-112508868D01*
X134820247Y-112520499D01*
X134820250Y-112520500D01*
X134820252Y-112520500D01*
X136559750Y-112520500D01*
X136559751Y-112520499D01*
X136574568Y-112517552D01*
X136618229Y-112508868D01*
X136618229Y-112508867D01*
X136618231Y-112508867D01*
X136684552Y-112464552D01*
X136728867Y-112398231D01*
X136728867Y-112398229D01*
X136728868Y-112398229D01*
X136740499Y-112339752D01*
X136740500Y-112339750D01*
X136740500Y-110600249D01*
X136740499Y-110600247D01*
X136730177Y-110548351D01*
X136728868Y-110541770D01*
X136728867Y-110541769D01*
X136721168Y-110530247D01*
X138959500Y-110530247D01*
X138959500Y-112269752D01*
X138971131Y-112328229D01*
X138971132Y-112328230D01*
X139015447Y-112394552D01*
X139081769Y-112438867D01*
X139081770Y-112438868D01*
X139140247Y-112450499D01*
X139140250Y-112450500D01*
X139140252Y-112450500D01*
X140879750Y-112450500D01*
X140879751Y-112450499D01*
X140894568Y-112447552D01*
X140938229Y-112438868D01*
X140938229Y-112438867D01*
X140938231Y-112438867D01*
X141004552Y-112394552D01*
X141048867Y-112328231D01*
X141048867Y-112328229D01*
X141048868Y-112328229D01*
X141060499Y-112269752D01*
X141060500Y-112269750D01*
X141060500Y-110530249D01*
X141060499Y-110530247D01*
X141048868Y-110471770D01*
X141048867Y-110471769D01*
X141004552Y-110405447D01*
X140938230Y-110361132D01*
X140938229Y-110361131D01*
X140879752Y-110349500D01*
X140879748Y-110349500D01*
X139140252Y-110349500D01*
X139140247Y-110349500D01*
X139081770Y-110361131D01*
X139081769Y-110361132D01*
X139015447Y-110405447D01*
X138971132Y-110471769D01*
X138971131Y-110471770D01*
X138959500Y-110530247D01*
X136721168Y-110530247D01*
X136684552Y-110475447D01*
X136618230Y-110431132D01*
X136618229Y-110431131D01*
X136559752Y-110419500D01*
X136559748Y-110419500D01*
X134820252Y-110419500D01*
X134820247Y-110419500D01*
X134761770Y-110431131D01*
X134761769Y-110431132D01*
X134695447Y-110475447D01*
X134651132Y-110541769D01*
X134651131Y-110541770D01*
X134639500Y-110600247D01*
X133560500Y-110600247D01*
X133560500Y-108826530D01*
X134639500Y-108826530D01*
X134639500Y-109033469D01*
X134679868Y-109236412D01*
X134679870Y-109236420D01*
X134722252Y-109338740D01*
X134759059Y-109427598D01*
X134805569Y-109497206D01*
X134874024Y-109599657D01*
X135020342Y-109745975D01*
X135020345Y-109745977D01*
X135192402Y-109860941D01*
X135383580Y-109940130D01*
X135586530Y-109980499D01*
X135586534Y-109980500D01*
X135586535Y-109980500D01*
X135793466Y-109980500D01*
X135793467Y-109980499D01*
X135996420Y-109940130D01*
X136187598Y-109860941D01*
X136359655Y-109745977D01*
X136505977Y-109599655D01*
X136620941Y-109427598D01*
X136700130Y-109236420D01*
X136740500Y-109033465D01*
X136740500Y-108826535D01*
X136740417Y-108826120D01*
X136730177Y-108774634D01*
X136726576Y-108756530D01*
X138959500Y-108756530D01*
X138959500Y-108963469D01*
X138999868Y-109166412D01*
X138999870Y-109166420D01*
X139025461Y-109228203D01*
X139079059Y-109357598D01*
X139125830Y-109427596D01*
X139194024Y-109529657D01*
X139340342Y-109675975D01*
X139340345Y-109675977D01*
X139512402Y-109790941D01*
X139703580Y-109870130D01*
X139906530Y-109910499D01*
X139906534Y-109910500D01*
X139906535Y-109910500D01*
X140113466Y-109910500D01*
X140113467Y-109910499D01*
X140316420Y-109870130D01*
X140507598Y-109790941D01*
X140679655Y-109675977D01*
X140825977Y-109529655D01*
X140940941Y-109357598D01*
X141020130Y-109166420D01*
X141060500Y-108963465D01*
X141060500Y-108756535D01*
X141020130Y-108553580D01*
X140940941Y-108362402D01*
X140825977Y-108190345D01*
X140825975Y-108190342D01*
X140679657Y-108044024D01*
X140593626Y-107986541D01*
X140507598Y-107929059D01*
X140316420Y-107849870D01*
X140316412Y-107849868D01*
X140113469Y-107809500D01*
X140113465Y-107809500D01*
X139906535Y-107809500D01*
X139906530Y-107809500D01*
X139703587Y-107849868D01*
X139703579Y-107849870D01*
X139512403Y-107929058D01*
X139340342Y-108044024D01*
X139194024Y-108190342D01*
X139079058Y-108362403D01*
X138999870Y-108553579D01*
X138999868Y-108553587D01*
X138959500Y-108756530D01*
X136726576Y-108756530D01*
X136700131Y-108623587D01*
X136700130Y-108623580D01*
X136620941Y-108432402D01*
X136505977Y-108260345D01*
X136505975Y-108260342D01*
X136359657Y-108114024D01*
X136254892Y-108044023D01*
X136187598Y-107999059D01*
X135996420Y-107919870D01*
X135996412Y-107919868D01*
X135793469Y-107879500D01*
X135793465Y-107879500D01*
X135586535Y-107879500D01*
X135586530Y-107879500D01*
X135383587Y-107919868D01*
X135383579Y-107919870D01*
X135192403Y-107999058D01*
X135020342Y-108114024D01*
X134874024Y-108260342D01*
X134759058Y-108432403D01*
X134679870Y-108623579D01*
X134679868Y-108623587D01*
X134639500Y-108826530D01*
X133560500Y-108826530D01*
X133560500Y-106286530D01*
X134639500Y-106286530D01*
X134639500Y-106493469D01*
X134679868Y-106696412D01*
X134679870Y-106696420D01*
X134759058Y-106887596D01*
X134874024Y-107059657D01*
X135020342Y-107205975D01*
X135020345Y-107205977D01*
X135192402Y-107320941D01*
X135383580Y-107400130D01*
X135586530Y-107440499D01*
X135586534Y-107440500D01*
X135586535Y-107440500D01*
X135793466Y-107440500D01*
X135793467Y-107440499D01*
X135996420Y-107400130D01*
X136187598Y-107320941D01*
X136359655Y-107205977D01*
X136505977Y-107059655D01*
X136620941Y-106887598D01*
X136700130Y-106696420D01*
X136740500Y-106493465D01*
X136740500Y-106286535D01*
X136734430Y-106256017D01*
X136730177Y-106234634D01*
X136726576Y-106216530D01*
X138959500Y-106216530D01*
X138959500Y-106423469D01*
X138999868Y-106626412D01*
X138999870Y-106626420D01*
X139079058Y-106817596D01*
X139194024Y-106989657D01*
X139340342Y-107135975D01*
X139340345Y-107135977D01*
X139512402Y-107250941D01*
X139703580Y-107330130D01*
X139906530Y-107370499D01*
X139906534Y-107370500D01*
X139906535Y-107370500D01*
X140113466Y-107370500D01*
X140113467Y-107370499D01*
X140316420Y-107330130D01*
X140507598Y-107250941D01*
X140679655Y-107135977D01*
X140825977Y-106989655D01*
X140940941Y-106817598D01*
X141020130Y-106626420D01*
X141060500Y-106423465D01*
X141060500Y-106216535D01*
X141020130Y-106013580D01*
X140940941Y-105822402D01*
X140825977Y-105650345D01*
X140825975Y-105650342D01*
X140679657Y-105504024D01*
X140547062Y-105415428D01*
X140507598Y-105389059D01*
X140316420Y-105309870D01*
X140316412Y-105309868D01*
X140113469Y-105269500D01*
X140113465Y-105269500D01*
X139906535Y-105269500D01*
X139906530Y-105269500D01*
X139703587Y-105309868D01*
X139703579Y-105309870D01*
X139512403Y-105389058D01*
X139340342Y-105504024D01*
X139194024Y-105650342D01*
X139079058Y-105822403D01*
X138999870Y-106013579D01*
X138999868Y-106013587D01*
X138959500Y-106216530D01*
X136726576Y-106216530D01*
X136700131Y-106083587D01*
X136700130Y-106083580D01*
X136620941Y-105892402D01*
X136505977Y-105720345D01*
X136505975Y-105720342D01*
X136359657Y-105574024D01*
X136254892Y-105504023D01*
X136187598Y-105459059D01*
X135996420Y-105379870D01*
X135996412Y-105379868D01*
X135793469Y-105339500D01*
X135793465Y-105339500D01*
X135586535Y-105339500D01*
X135586530Y-105339500D01*
X135383587Y-105379868D01*
X135383579Y-105379870D01*
X135192403Y-105459058D01*
X135020342Y-105574024D01*
X134874024Y-105720342D01*
X134759058Y-105892403D01*
X134679870Y-106083579D01*
X134679868Y-106083587D01*
X134639500Y-106286530D01*
X133560500Y-106286530D01*
X133560500Y-94743982D01*
X134649500Y-94743982D01*
X134649500Y-94856018D01*
X134678497Y-94964237D01*
X134734515Y-95061263D01*
X134813737Y-95140485D01*
X134910763Y-95196503D01*
X135018982Y-95225500D01*
X135018984Y-95225500D01*
X135131016Y-95225500D01*
X135131018Y-95225500D01*
X135239237Y-95196503D01*
X135336263Y-95140485D01*
X135415485Y-95061263D01*
X135471503Y-94964237D01*
X135500500Y-94856018D01*
X135500500Y-94743982D01*
X135471503Y-94635763D01*
X135415485Y-94538737D01*
X135336263Y-94459515D01*
X135239237Y-94403497D01*
X135131018Y-94374500D01*
X135018982Y-94374500D01*
X134910763Y-94403497D01*
X134910760Y-94403498D01*
X134813740Y-94459513D01*
X134813734Y-94459517D01*
X134734517Y-94538734D01*
X134734513Y-94538740D01*
X134678498Y-94635760D01*
X134678497Y-94635763D01*
X134649500Y-94743982D01*
X133560500Y-94743982D01*
X133560500Y-77196530D01*
X134969500Y-77196530D01*
X134969500Y-77403469D01*
X135009868Y-77606412D01*
X135009870Y-77606420D01*
X135058672Y-77724239D01*
X135089059Y-77797598D01*
X135104873Y-77821265D01*
X135204024Y-77969657D01*
X135350342Y-78115975D01*
X135350345Y-78115977D01*
X135522402Y-78230941D01*
X135713580Y-78310130D01*
X135916530Y-78350499D01*
X135916534Y-78350500D01*
X135916535Y-78350500D01*
X136123466Y-78350500D01*
X136123467Y-78350499D01*
X136326420Y-78310130D01*
X136517598Y-78230941D01*
X136689655Y-78115977D01*
X136835977Y-77969655D01*
X136950941Y-77797598D01*
X137030130Y-77606420D01*
X137070500Y-77403465D01*
X137070500Y-77196535D01*
X137030130Y-76993580D01*
X136950941Y-76802402D01*
X136835977Y-76630345D01*
X136835975Y-76630342D01*
X136689657Y-76484024D01*
X136548744Y-76389870D01*
X136517598Y-76369059D01*
X136477686Y-76352527D01*
X136326420Y-76289870D01*
X136326412Y-76289868D01*
X136123469Y-76249500D01*
X136123465Y-76249500D01*
X135916535Y-76249500D01*
X135916530Y-76249500D01*
X135713587Y-76289868D01*
X135713579Y-76289870D01*
X135522403Y-76369058D01*
X135350342Y-76484024D01*
X135204024Y-76630342D01*
X135089059Y-76802402D01*
X135009870Y-76993579D01*
X135009868Y-76993587D01*
X134969500Y-77196530D01*
X133560500Y-77196530D01*
X133560500Y-71073051D01*
X133560649Y-71066967D01*
X133574657Y-70781819D01*
X133577052Y-70733068D01*
X133578245Y-70720962D01*
X133626849Y-70393296D01*
X133629218Y-70381385D01*
X133709710Y-70060043D01*
X133713240Y-70048411D01*
X133713693Y-70047145D01*
X133824835Y-69736525D01*
X133829476Y-69725318D01*
X133971124Y-69425828D01*
X133976840Y-69415136D01*
X134147145Y-69130998D01*
X134153888Y-69120905D01*
X134351232Y-68854818D01*
X134358935Y-68845433D01*
X134581405Y-68599975D01*
X134589975Y-68591405D01*
X134835433Y-68368935D01*
X134844818Y-68361232D01*
X135110905Y-68163888D01*
X135120998Y-68157145D01*
X135405136Y-67986840D01*
X135415828Y-67981124D01*
X135715318Y-67839476D01*
X135726525Y-67834835D01*
X136038412Y-67723239D01*
X136050043Y-67719710D01*
X136371385Y-67639218D01*
X136383296Y-67636849D01*
X136710962Y-67588244D01*
X136723068Y-67587052D01*
X137056967Y-67570648D01*
X137063051Y-67570500D01*
X137125892Y-67570500D01*
X143583045Y-67570500D01*
X143600615Y-67575659D01*
G37*
%TD.AperFunction*%
%TA.AperFunction,Conductor*%
G36*
X139414391Y-91093846D02*
G01*
X139481769Y-91138867D01*
X139481770Y-91138868D01*
X139540247Y-91150499D01*
X139540250Y-91150500D01*
X141265500Y-91150500D01*
X141332539Y-91170185D01*
X141378294Y-91222989D01*
X141389500Y-91274500D01*
X141389500Y-93600570D01*
X141369815Y-93667609D01*
X141317011Y-93713364D01*
X141247853Y-93723308D01*
X141184297Y-93694283D01*
X141158113Y-93662571D01*
X141137009Y-93626018D01*
X141115485Y-93588737D01*
X141036263Y-93509515D01*
X140939237Y-93453497D01*
X140831018Y-93424500D01*
X140718982Y-93424500D01*
X140610763Y-93453497D01*
X140610760Y-93453498D01*
X140513740Y-93509513D01*
X140513734Y-93509517D01*
X140434517Y-93588734D01*
X140434513Y-93588740D01*
X140378498Y-93685760D01*
X140378497Y-93685763D01*
X140349500Y-93793982D01*
X140349500Y-93906018D01*
X140378497Y-94014237D01*
X140434515Y-94111263D01*
X140513737Y-94190485D01*
X140610763Y-94246503D01*
X140718982Y-94275500D01*
X140718984Y-94275500D01*
X140831016Y-94275500D01*
X140831018Y-94275500D01*
X140939237Y-94246503D01*
X141036263Y-94190485D01*
X141115485Y-94111263D01*
X141158113Y-94037428D01*
X141208680Y-93989213D01*
X141277287Y-93975990D01*
X141342152Y-94001958D01*
X141382680Y-94058873D01*
X141389500Y-94099429D01*
X141389500Y-101249927D01*
X141369815Y-101316966D01*
X141353181Y-101337608D01*
X140447608Y-102243181D01*
X140386285Y-102276666D01*
X140359927Y-102279500D01*
X138649467Y-102279500D01*
X138582428Y-102259815D01*
X138536673Y-102207011D01*
X138526729Y-102137853D01*
X138542080Y-102093500D01*
X138556191Y-102069059D01*
X138596503Y-101999237D01*
X138625500Y-101891018D01*
X138625500Y-101778982D01*
X138596503Y-101670763D01*
X138540485Y-101573737D01*
X138536819Y-101570071D01*
X138503334Y-101508748D01*
X138500500Y-101482390D01*
X138500500Y-98844833D01*
X138520185Y-98777794D01*
X138572989Y-98732039D01*
X138642147Y-98722095D01*
X138705703Y-98751120D01*
X138712181Y-98757152D01*
X138839540Y-98884511D01*
X138895489Y-98940460D01*
X138960317Y-98977888D01*
X139008531Y-99028452D01*
X139012875Y-99037816D01*
X139079059Y-99197598D01*
X139123587Y-99264239D01*
X139194024Y-99369657D01*
X139340342Y-99515975D01*
X139340345Y-99515977D01*
X139512402Y-99630941D01*
X139703580Y-99710130D01*
X139906530Y-99750499D01*
X139906534Y-99750500D01*
X139906535Y-99750500D01*
X140113466Y-99750500D01*
X140113467Y-99750499D01*
X140316420Y-99710130D01*
X140507598Y-99630941D01*
X140679655Y-99515977D01*
X140825977Y-99369655D01*
X140940941Y-99197598D01*
X141020130Y-99006420D01*
X141060500Y-98803465D01*
X141060500Y-98596535D01*
X141020130Y-98393580D01*
X140940941Y-98202402D01*
X140825977Y-98030345D01*
X140825975Y-98030342D01*
X140679657Y-97884024D01*
X140531397Y-97784961D01*
X140507598Y-97769059D01*
X140493407Y-97763181D01*
X140316420Y-97689870D01*
X140316412Y-97689868D01*
X140113469Y-97649500D01*
X140113465Y-97649500D01*
X139906535Y-97649500D01*
X139906530Y-97649500D01*
X139703587Y-97689868D01*
X139703579Y-97689870D01*
X139512403Y-97769058D01*
X139414390Y-97834548D01*
X139347713Y-97855425D01*
X139280333Y-97836940D01*
X139233643Y-97784961D01*
X139221500Y-97731445D01*
X139221500Y-91196948D01*
X139241185Y-91129909D01*
X139293989Y-91084154D01*
X139363147Y-91074210D01*
X139414391Y-91093846D01*
G37*
%TD.AperFunction*%
%TA.AperFunction,Conductor*%
G36*
X145164106Y-78880185D02*
G01*
X145184748Y-78896819D01*
X149693181Y-83405252D01*
X149726666Y-83466575D01*
X149729500Y-83492933D01*
X149729500Y-83952313D01*
X149744922Y-84009868D01*
X149749979Y-84028740D01*
X149779863Y-84080500D01*
X149779865Y-84080504D01*
X149789539Y-84097262D01*
X149789541Y-84097264D01*
X151508927Y-85816649D01*
X153227909Y-87535631D01*
X153283858Y-87591580D01*
X153295808Y-87598479D01*
X153306041Y-87607969D01*
X153306764Y-87609182D01*
X153309404Y-87611208D01*
X153597899Y-87899703D01*
X153666422Y-87939265D01*
X153742848Y-87959743D01*
X153821972Y-87959743D01*
X155806633Y-87959743D01*
X155873672Y-87979428D01*
X155894314Y-87996062D01*
X155963737Y-88065485D01*
X156060763Y-88121503D01*
X156168982Y-88150500D01*
X156168984Y-88150500D01*
X156281016Y-88150500D01*
X156281018Y-88150500D01*
X156389237Y-88121503D01*
X156486263Y-88065485D01*
X156565485Y-87986263D01*
X156621503Y-87889237D01*
X156650500Y-87781018D01*
X156650500Y-87668982D01*
X156621503Y-87560763D01*
X156565485Y-87463737D01*
X156486263Y-87384515D01*
X156389237Y-87328497D01*
X156281018Y-87299500D01*
X156168982Y-87299500D01*
X156060763Y-87328497D01*
X156060760Y-87328498D01*
X156037150Y-87342130D01*
X155975150Y-87358743D01*
X154565590Y-87358743D01*
X154549197Y-87353929D01*
X154532115Y-87354139D01*
X154516369Y-87344290D01*
X154498551Y-87339058D01*
X154487363Y-87326147D01*
X154472879Y-87317087D01*
X154464957Y-87300288D01*
X154452796Y-87286254D01*
X154450364Y-87269345D01*
X154443077Y-87253892D01*
X154445494Y-87235476D01*
X154442852Y-87217096D01*
X154449996Y-87201195D01*
X154452173Y-87184617D01*
X154467483Y-87162274D01*
X154470890Y-87154694D01*
X154474242Y-87150728D01*
X154545911Y-87079060D01*
X154564263Y-87047273D01*
X154585472Y-87010538D01*
X154605951Y-86934111D01*
X154605951Y-82058722D01*
X154625636Y-81991683D01*
X154678440Y-81945928D01*
X154735855Y-81937327D01*
X154735855Y-81935500D01*
X154856016Y-81935500D01*
X154856018Y-81935500D01*
X154963408Y-81906725D01*
X155033257Y-81908388D01*
X155091119Y-81947551D01*
X155118623Y-82011779D01*
X155119500Y-82026500D01*
X155119500Y-86212026D01*
X155128422Y-86245322D01*
X155139979Y-86288454D01*
X155139982Y-86288459D01*
X155179535Y-86356968D01*
X155179539Y-86356973D01*
X155179540Y-86356975D01*
X155657071Y-86834506D01*
X155713020Y-86890455D01*
X155713022Y-86890456D01*
X155713026Y-86890459D01*
X155780181Y-86929230D01*
X155781542Y-86930016D01*
X155857969Y-86950495D01*
X155937093Y-86950495D01*
X156272390Y-86950495D01*
X156339429Y-86970180D01*
X156360071Y-86986814D01*
X156363737Y-86990480D01*
X156460763Y-87046498D01*
X156568982Y-87075495D01*
X156568984Y-87075495D01*
X156681016Y-87075495D01*
X156681018Y-87075495D01*
X156789237Y-87046498D01*
X156886263Y-86990480D01*
X156965485Y-86911258D01*
X157021503Y-86814232D01*
X157050500Y-86706013D01*
X157050500Y-86593977D01*
X157021503Y-86485758D01*
X156965485Y-86388732D01*
X156886263Y-86309510D01*
X156789237Y-86253492D01*
X156681018Y-86224495D01*
X156568982Y-86224495D01*
X156460763Y-86253492D01*
X156460760Y-86253493D01*
X156363740Y-86309508D01*
X156363734Y-86309512D01*
X156360071Y-86313176D01*
X156333143Y-86327879D01*
X156307325Y-86344472D01*
X156301124Y-86345363D01*
X156298748Y-86346661D01*
X156272390Y-86349495D01*
X156073364Y-86349495D01*
X156006325Y-86329810D01*
X155985683Y-86313176D01*
X155756819Y-86084312D01*
X155723334Y-86022989D01*
X155720500Y-85996631D01*
X155720500Y-80200447D01*
X155740185Y-80133408D01*
X155792989Y-80087653D01*
X155862147Y-80077709D01*
X155906498Y-80093060D01*
X155955763Y-80121503D01*
X156063982Y-80150500D01*
X156063984Y-80150500D01*
X156153141Y-80150500D01*
X156220180Y-80170185D01*
X156265935Y-80222989D01*
X156275879Y-80292147D01*
X156272917Y-80306587D01*
X156249500Y-80393982D01*
X156249500Y-80506018D01*
X156278497Y-80614237D01*
X156334515Y-80711263D01*
X156413737Y-80790485D01*
X156510763Y-80846503D01*
X156618982Y-80875500D01*
X156624167Y-80875500D01*
X156691206Y-80895185D01*
X156711848Y-80911819D01*
X157388181Y-81588152D01*
X157421666Y-81649475D01*
X157424500Y-81675833D01*
X157424500Y-88263755D01*
X157415855Y-88293195D01*
X157409332Y-88323182D01*
X157405577Y-88328197D01*
X157404815Y-88330794D01*
X157388181Y-88351436D01*
X157251436Y-88488181D01*
X157190113Y-88521666D01*
X157163755Y-88524500D01*
X155477141Y-88524500D01*
X155410102Y-88504815D01*
X155389460Y-88488181D01*
X155385796Y-88484517D01*
X155385794Y-88484515D01*
X155288768Y-88428497D01*
X155180549Y-88399500D01*
X155068513Y-88399500D01*
X154960294Y-88428497D01*
X154960291Y-88428498D01*
X154863271Y-88484513D01*
X154863265Y-88484517D01*
X154784048Y-88563734D01*
X154784044Y-88563740D01*
X154728029Y-88660760D01*
X154728028Y-88660763D01*
X154699031Y-88768982D01*
X154699031Y-88800500D01*
X154679346Y-88867539D01*
X154626542Y-88913294D01*
X154575031Y-88924500D01*
X154493982Y-88924500D01*
X154385763Y-88953497D01*
X154385760Y-88953498D01*
X154288740Y-89009513D01*
X154288734Y-89009517D01*
X154209517Y-89088734D01*
X154209513Y-89088740D01*
X154153498Y-89185760D01*
X154153497Y-89185763D01*
X154124500Y-89293982D01*
X154124500Y-89332703D01*
X154104815Y-89399742D01*
X154052011Y-89445497D01*
X153982853Y-89455441D01*
X153919297Y-89426416D01*
X153912819Y-89420384D01*
X153195551Y-88703116D01*
X153162066Y-88641793D01*
X153159232Y-88615435D01*
X153159232Y-88610252D01*
X153159232Y-88610250D01*
X153130235Y-88502031D01*
X153074217Y-88405005D01*
X152994995Y-88325783D01*
X152911910Y-88277814D01*
X152897971Y-88269766D01*
X152897970Y-88269765D01*
X152897969Y-88269765D01*
X152789750Y-88240768D01*
X152677714Y-88240768D01*
X152569495Y-88269765D01*
X152569492Y-88269766D01*
X152472472Y-88325781D01*
X152472466Y-88325785D01*
X152393249Y-88405002D01*
X152393245Y-88405008D01*
X152386831Y-88416117D01*
X152336262Y-88464331D01*
X152267655Y-88477551D01*
X152202791Y-88451581D01*
X152191765Y-88441794D01*
X149300511Y-85550540D01*
X149298710Y-85549500D01*
X149298704Y-85549496D01*
X149231989Y-85510979D01*
X149231990Y-85510979D01*
X149206513Y-85504152D01*
X149155562Y-85490500D01*
X149155560Y-85490500D01*
X147049500Y-85490500D01*
X146982461Y-85470815D01*
X146936706Y-85418011D01*
X146925500Y-85366500D01*
X146925500Y-84655439D01*
X146921265Y-84639633D01*
X146905021Y-84579011D01*
X146903466Y-84576317D01*
X146865464Y-84510495D01*
X146865458Y-84510487D01*
X146695188Y-84340217D01*
X146661703Y-84278894D01*
X146658869Y-84252536D01*
X146658869Y-84247353D01*
X146658869Y-84247351D01*
X146629872Y-84139132D01*
X146573854Y-84042106D01*
X146564987Y-84033239D01*
X146531502Y-83971916D01*
X146536486Y-83902224D01*
X146564983Y-83857881D01*
X146632275Y-83790590D01*
X146688293Y-83693564D01*
X146717290Y-83585345D01*
X146717290Y-83473309D01*
X146688293Y-83365090D01*
X146632275Y-83268064D01*
X146553053Y-83188842D01*
X146553049Y-83188838D01*
X146550711Y-83187044D01*
X146549239Y-83185028D01*
X146547306Y-83183095D01*
X146547607Y-83182793D01*
X146509511Y-83130614D01*
X146505361Y-83060868D01*
X146527831Y-83013182D01*
X146530478Y-83009730D01*
X146530485Y-83009724D01*
X146586503Y-82912698D01*
X146615500Y-82804479D01*
X146615500Y-82692443D01*
X146586503Y-82584224D01*
X146530485Y-82487198D01*
X146451263Y-82407976D01*
X146354237Y-82351958D01*
X146246018Y-82322961D01*
X146246017Y-82322961D01*
X146189294Y-82322961D01*
X146122255Y-82303276D01*
X146101613Y-82286642D01*
X145874512Y-82059541D01*
X145874511Y-82059540D01*
X145848036Y-82044255D01*
X145848036Y-82044254D01*
X145848032Y-82044253D01*
X145817284Y-82026500D01*
X145805990Y-82019979D01*
X145805991Y-82019979D01*
X145767031Y-82009540D01*
X145729562Y-81999500D01*
X145729560Y-81999500D01*
X141418645Y-81999500D01*
X141351606Y-81979815D01*
X141315542Y-81944390D01*
X141309959Y-81936035D01*
X141225977Y-81810345D01*
X141225975Y-81810342D01*
X141195814Y-81780181D01*
X141162329Y-81718858D01*
X141167313Y-81649166D01*
X141209185Y-81593233D01*
X141274649Y-81568816D01*
X141283495Y-81568500D01*
X142097390Y-81568500D01*
X142164429Y-81588185D01*
X142185071Y-81604819D01*
X142188737Y-81608485D01*
X142285763Y-81664503D01*
X142393982Y-81693500D01*
X142393984Y-81693500D01*
X142506016Y-81693500D01*
X142506018Y-81693500D01*
X142614237Y-81664503D01*
X142711263Y-81608485D01*
X142790485Y-81529263D01*
X142846503Y-81432237D01*
X142875500Y-81324018D01*
X142875500Y-81211982D01*
X142846503Y-81103763D01*
X142790485Y-81006737D01*
X142711263Y-80927515D01*
X142646579Y-80890169D01*
X142614239Y-80871498D01*
X142614238Y-80871497D01*
X142614237Y-80871497D01*
X142506018Y-80842500D01*
X142393982Y-80842500D01*
X142285763Y-80871497D01*
X142285760Y-80871498D01*
X142188740Y-80927513D01*
X142188734Y-80927517D01*
X142185071Y-80931181D01*
X142123748Y-80964666D01*
X142097390Y-80967500D01*
X139863438Y-80967500D01*
X139787010Y-80987978D01*
X139718489Y-81027540D01*
X139718486Y-81027542D01*
X138712181Y-82033848D01*
X138650858Y-82067333D01*
X138581166Y-82062349D01*
X138525233Y-82020477D01*
X138500816Y-81955013D01*
X138500500Y-81946167D01*
X138500500Y-79975833D01*
X138520185Y-79908794D01*
X138536819Y-79888152D01*
X139528152Y-78896819D01*
X139589475Y-78863334D01*
X139615833Y-78860500D01*
X145097067Y-78860500D01*
X145164106Y-78880185D01*
G37*
%TD.AperFunction*%
%TD*%
M02*
